<svg width="60" height="60" viewBox="0 0 60 60" fill="none" xmlns="http://www.w3.org/2000/svg">
<g clip-path="url(#clip0_174_2879)">
<rect width="60" height="60" rx="5" fill="#BBBF9A" fill-opacity="0.5"/>
<g filter="url(#filter0_d_174_2879)">
<path d="M24.4545 5.86817C25.6032 4.70454 27.1185 3.90081 28.8142 3.64247L27.133 0.9794C26.7482 0.3699 26.0758 0 25.3527 0H21.5266C21.1073 0 20.8568 0.46456 21.0884 0.81241L24.4545 5.86817Z" fill="#F8F6EF"/>
<path d="M31.2036 3.64517C32.8979 3.90727 34.4111 4.71398 35.5572 5.87988L38.3902 1.62482C38.8666 0.90929 39.1048 0.55152 38.9561 0.27576C38.8074 5.96046e-08 38.3762 0 37.5139 0H35.8288C34.6926 0 34.1245 0 33.6498 0.26114C33.1751 0.52228 32.8728 1.00113 32.2682 1.9588L31.2036 3.64517Z" fill="#F8F6EF"/>
<path fill-rule="evenodd" clip-rule="evenodd" d="M30.0001 18C33.7214 18 36.7381 14.9969 36.7381 11.2925C36.7381 7.58802 33.7214 4.58496 30.0001 4.58496C26.2789 4.58496 23.2622 7.58802 23.2622 11.2925C23.2622 14.9969 26.2789 18 30.0001 18ZM29.7911 13.0955C29.8452 13.1334 29.9035 13.1519 29.9715 13.1519C30.0633 13.1519 30.133 13.1291 30.1894 13.0899C30.2486 13.0488 30.2976 12.9894 30.3341 12.903C30.3711 12.8153 30.3926 12.7061 30.3926 12.5706C30.3926 12.3846 30.368 12.2529 30.3304 12.1645L30.3298 12.1632C30.2914 12.0709 30.2421 12.0174 30.1877 11.9859L30.1843 11.9839C30.1227 11.9466 30.0405 11.9229 29.9285 11.9229H29.6629L29.6488 11.923C29.5998 11.9231 29.5397 11.9233 29.4855 11.9081C29.3509 11.8705 29.2458 11.7653 29.2081 11.6308C29.193 11.5766 29.1931 11.5165 29.1933 11.4675L29.1933 11.4534V11.1253L29.1933 11.1073C29.193 11.0445 29.1927 10.9672 29.2175 10.8992C29.258 10.7883 29.3454 10.7009 29.4563 10.6604C29.5243 10.6356 29.6016 10.6359 29.6644 10.6362H29.6824H29.9246C30.0314 10.6362 30.101 10.6125 30.1476 10.5802C30.199 10.5418 30.2415 10.4858 30.2713 10.402C30.3036 10.3111 30.3222 10.1979 30.3222 10.0589C30.3222 9.93042 30.305 9.82642 30.2753 9.74332C30.2473 9.66482 30.2081 9.61242 30.1615 9.57642C30.1224 9.54612 30.0664 9.52452 29.9793 9.52452C29.925 9.52452 29.8752 9.53892 29.826 9.57072C29.7785 9.60132 29.736 9.64712 29.7006 9.71582L29.6991 9.71882C29.6563 9.80432 29.6215 9.87402 29.5933 9.92532C29.5789 9.95152 29.564 9.97692 29.5488 9.99942C29.5348 10.0199 29.5135 10.0487 29.4838 10.0733L29.4824 10.0744C29.4737 10.0817 29.4582 10.0945 29.4394 10.1061C29.4206 10.1177 29.4023 10.1258 29.3919 10.1303L29.3902 10.1311C29.3388 10.1538 29.2872 10.16 29.2463 10.1626C29.2068 10.1651 29.1589 10.1651 29.1073 10.1651H28.7378C28.6509 10.1652 28.5628 10.1652 28.4895 10.1529C28.4018 10.1382 28.3102 10.1024 28.2399 10.0138C28.1746 9.93152 28.1549 9.84242 28.1585 9.75392C28.1613 9.68412 28.1795 9.60612 28.1962 9.53492L28.1989 9.52302C28.2391 9.35062 28.3043 9.19042 28.3951 9.04362C28.5569 8.78167 28.7758 8.57631 29.0486 8.42963C29.322 8.28267 29.6231 8.21047 29.948 8.21047C30.3038 8.21047 30.6256 8.27775 30.9078 8.41871C31.1931 8.55856 31.4176 8.76826 31.5778 9.04402C31.7406 9.32152 31.816 9.65552 31.816 10.0354C31.816 10.2438 31.7757 10.4452 31.6957 10.6383C31.6182 10.8317 31.505 11.0054 31.3578 11.1584L31.3565 11.1598C31.3477 11.1687 31.3334 11.1955 31.3357 11.2393C31.3381 11.2831 31.3555 11.3113 31.3674 11.3215C31.3912 11.342 31.4142 11.3634 31.4364 11.3855C31.5909 11.5371 31.7057 11.7176 31.7806 11.9244C31.8546 12.1285 31.8902 12.3499 31.8902 12.5862C31.8902 12.8741 31.8422 13.1384 31.7415 13.3754C31.6422 13.6089 31.502 13.8092 31.3202 13.973C31.1411 14.1346 30.9333 14.257 30.699 14.3409L30.697 14.3417C30.4629 14.4226 30.2114 14.462 29.9441 14.462C29.7169 14.462 29.494 14.426 29.2761 14.3543C29.0558 14.2809 28.8563 14.1672 28.6803 14.0147C28.4999 13.8584 28.3593 13.6631 28.2573 13.4329C28.2055 13.3159 28.1673 13.1902 28.142 13.0566L28.1397 13.0447C28.1257 12.9709 28.1107 12.8919 28.11 12.8224C28.1091 12.7359 28.1295 12.6471 28.1964 12.5663C28.2675 12.4804 28.3587 12.4468 28.4445 12.433C28.5169 12.4213 28.6043 12.4214 28.6912 12.4214H29.0157C29.0831 12.4214 29.1458 12.4214 29.1972 12.4257C29.2508 12.4303 29.3179 12.441 29.3813 12.4794C29.3899 12.4846 29.3944 12.4876 29.4027 12.4934C29.4715 12.5414 29.5137 12.6193 29.5406 12.6718C29.5719 12.7328 29.6082 12.8149 29.6518 12.9135L29.6537 12.9179C29.6905 12.9992 29.7371 13.056 29.7911 13.0955Z" fill="#F8F6EF"/>
</g>
<path d="M14.192 36.122H15.48V37.41H14.192V40.042H12.708V37.41H8.326L8.186 36.122L12.778 29.85H14.192V36.122ZM12.708 36.122V32.328L9.95 36.122H12.708ZM20.326 38.936C20.9046 38.936 21.376 38.768 21.74 38.432C22.1133 38.096 22.3 37.662 22.3 37.13C22.3 36.598 22.1133 36.164 21.74 35.828C21.376 35.4827 20.9046 35.31 20.326 35.31C19.7473 35.31 19.2713 35.4827 18.898 35.828C18.5246 36.164 18.338 36.598 18.338 37.13C18.338 37.662 18.5246 38.096 18.898 38.432C19.2713 38.768 19.7473 38.936 20.326 38.936ZM18.632 32.482C18.632 32.9393 18.7906 33.3127 19.108 33.602C19.4253 33.8913 19.8313 34.036 20.326 34.036C20.83 34.036 21.2406 33.8913 21.558 33.602C21.8753 33.3127 22.034 32.9393 22.034 32.482C22.034 32.0247 21.8753 31.656 21.558 31.376C21.2406 31.0867 20.83 30.942 20.326 30.942C19.8313 30.942 19.4253 31.0867 19.108 31.376C18.7906 31.656 18.632 32.0247 18.632 32.482ZM22.118 34.68C22.6126 34.96 23.014 35.3333 23.322 35.8C23.6393 36.2573 23.798 36.71 23.798 37.158C23.798 37.746 23.6486 38.2733 23.35 38.74C23.0606 39.1973 22.65 39.5567 22.118 39.818C21.5953 40.0793 20.998 40.21 20.326 40.21C19.654 40.21 19.052 40.0793 18.52 39.818C17.9973 39.5567 17.5866 39.1973 17.288 38.74C16.9986 38.2733 16.854 37.746 16.854 37.158C16.854 36.71 17.0126 36.2527 17.33 35.786C17.6473 35.3193 18.0486 34.9507 18.534 34.68C18.1233 34.4 17.7873 34.0547 17.526 33.644C17.2646 33.2333 17.134 32.846 17.134 32.482C17.134 31.9407 17.2693 31.46 17.54 31.04C17.8106 30.6107 18.1886 30.2793 18.674 30.046C19.1593 29.8033 19.71 29.682 20.326 29.682C20.942 29.682 21.4926 29.8033 21.978 30.046C22.4633 30.2793 22.8413 30.6107 23.112 31.04C23.3826 31.46 23.518 31.9407 23.518 32.482C23.518 32.8553 23.3873 33.2473 23.126 33.658C22.8646 34.0687 22.5286 34.4093 22.118 34.68ZM25.4605 34.862C25.6751 34.3487 26.0065 33.9333 26.4545 33.616C26.9118 33.2987 27.4018 33.14 27.9245 33.14C28.1391 33.14 28.3911 33.1867 28.6805 33.28C28.9791 33.3733 29.2358 33.49 29.4505 33.63L30.6265 34.358C30.7385 34.4327 30.8598 34.4933 30.9905 34.54C31.1211 34.5867 31.2285 34.61 31.3125 34.61C31.5365 34.6287 31.7511 34.5633 31.9565 34.414C32.1711 34.2553 32.3251 34.0453 32.4185 33.784L33.8605 34.344C33.6458 34.8853 33.3098 35.324 32.8525 35.66C32.3951 35.9867 31.8958 36.15 31.3545 36.15C31.1491 36.15 30.8971 36.108 30.5985 36.024C30.3091 35.94 30.0525 35.8233 29.8285 35.674L28.6245 34.932C28.3258 34.764 28.0878 34.68 27.9105 34.68C27.7051 34.68 27.5045 34.7547 27.3085 34.904C27.1218 35.044 26.9818 35.226 26.8885 35.45L25.4605 34.862ZM35.9904 35.296L36.3404 29.85H41.7864V31.152H37.7684L37.6004 33.644C38.0951 33.42 38.5758 33.308 39.0424 33.308C39.7331 33.308 40.3491 33.4527 40.8904 33.742C41.4411 34.0313 41.8658 34.4373 42.1644 34.96C42.4724 35.4733 42.6264 36.0613 42.6264 36.724C42.6264 37.396 42.4724 37.9933 42.1644 38.516C41.8658 39.0387 41.4411 39.4493 40.8904 39.748C40.3491 40.0373 39.7331 40.182 39.0424 40.182C38.5011 40.182 37.9878 40.07 37.5024 39.846C37.0264 39.6127 36.6204 39.2953 36.2844 38.894C35.9484 38.4833 35.7198 38.0213 35.5984 37.508L37.0404 37.172C37.1431 37.6387 37.3811 38.026 37.7544 38.334C38.1278 38.6327 38.5571 38.782 39.0424 38.782C39.6584 38.782 40.1624 38.5907 40.5544 38.208C40.9464 37.8253 41.1424 37.3307 41.1424 36.724C41.1424 36.136 40.9464 35.6553 40.5544 35.282C40.1624 34.8993 39.6584 34.708 39.0424 34.708C38.7811 34.708 38.5058 34.7827 38.2164 34.932C37.9271 35.072 37.6798 35.254 37.4744 35.478L35.9904 35.296ZM44.4123 35.296L44.7623 29.85H50.2083V31.152H46.1903L46.0223 33.644C46.517 33.42 46.9976 33.308 47.4643 33.308C48.155 33.308 48.771 33.4527 49.3123 33.742C49.863 34.0313 50.2876 34.4373 50.5863 34.96C50.8943 35.4733 51.0483 36.0613 51.0483 36.724C51.0483 37.396 50.8943 37.9933 50.5863 38.516C50.2876 39.0387 49.863 39.4493 49.3123 39.748C48.771 40.0373 48.155 40.182 47.4643 40.182C46.923 40.182 46.4096 40.07 45.9243 39.846C45.4483 39.6127 45.0423 39.2953 44.7063 38.894C44.3703 38.4833 44.1416 38.0213 44.0203 37.508L45.4623 37.172C45.565 37.6387 45.803 38.026 46.1763 38.334C46.5496 38.6327 46.979 38.782 47.4643 38.782C48.0803 38.782 48.5843 38.5907 48.9763 38.208C49.3683 37.8253 49.5643 37.3307 49.5643 36.724C49.5643 36.136 49.3683 35.6553 48.9763 35.282C48.5843 34.8993 48.0803 34.708 47.4643 34.708C47.203 34.708 46.9276 34.7827 46.6383 34.932C46.349 35.072 46.1016 35.254 45.8963 35.478L44.4123 35.296Z" fill="#536349"/>
</g>
<defs>
<filter id="filter0_d_174_2879" x="18.99" y="-1" width="22.02" height="22.02" filterUnits="userSpaceOnUse" color-interpolation-filters="sRGB">
<feFlood flood-opacity="0" result="BackgroundImageFix"/>
<feColorMatrix in="SourceAlpha" type="matrix" values="0 0 0 0 0 0 0 0 0 0 0 0 0 0 0 0 0 0 127 0" result="hardAlpha"/>
<feOffset dy="1.01"/>
<feGaussianBlur stdDeviation="0.505"/>
<feComposite in2="hardAlpha" operator="out"/>
<feColorMatrix type="matrix" values="0 0 0 0 1 0 0 0 0 1 0 0 0 0 1 0 0 0 0.2 0"/>
<feBlend mode="normal" in2="BackgroundImageFix" result="effect1_dropShadow_174_2879"/>
<feBlend mode="normal" in="SourceGraphic" in2="effect1_dropShadow_174_2879" result="shape"/>
</filter>
<clipPath id="clip0_174_2879">
<rect width="60" height="60" rx="5" fill="white"/>
</clipPath>
</defs>
</svg>
