<svg width="60" height="60" viewBox="0 0 60 60" fill="none" xmlns="http://www.w3.org/2000/svg">
<g clip-path="url(#clip0_174_2771)">
<rect width="60" height="60" rx="5" fill="#BBBF9A" fill-opacity="0.5"/>
<g filter="url(#filter0_d_174_2771)">
<path d="M24.4545 5.86817C25.6032 4.70454 27.1185 3.90081 28.8142 3.64247L27.133 0.9794C26.7482 0.3699 26.0758 0 25.3527 0H21.5266C21.1073 0 20.8568 0.46456 21.0884 0.81241L24.3889 5.76965C24.4113 5.80336 24.4332 5.8362 24.4545 5.86817Z" fill="#F8F6EF"/>
<path d="M31.2036 3.64517C32.8979 3.90727 34.4111 4.71398 35.5572 5.87988C35.581 5.84424 35.6054 5.8075 35.6306 5.76966L38.3902 1.62482C38.8666 0.90929 39.1048 0.55152 38.9561 0.27576C38.8074 5.96046e-08 38.3762 0 37.5139 0H35.8288C34.6926 0 34.1245 0 33.6498 0.26114C33.1751 0.52228 32.8728 1.00113 32.2682 1.9588L31.2036 3.64517Z" fill="#F8F6EF"/>
<path fill-rule="evenodd" clip-rule="evenodd" d="M36.7381 11.2925C36.7381 14.9969 33.7214 18 30.0001 18C26.2789 18 23.2622 14.9969 23.2622 11.2925C23.2622 7.58802 26.2789 4.58496 30.0001 4.58496C33.7214 4.58496 36.7381 7.58802 36.7381 11.2925ZM30.0098 8.44071C29.873 8.44071 29.7901 8.62461 29.6243 8.99239L29.5638 9.12642C29.3243 9.65752 29.2046 9.92312 28.9801 10.0872C28.7556 10.2512 28.4652 10.2854 27.8845 10.3539L27.7416 10.3707C27.352 10.4166 27.1573 10.4395 27.1152 10.5669C27.0731 10.6942 27.216 10.8278 27.502 11.0951L27.5512 11.1411C28.0105 11.5704 28.2402 11.7851 28.3188 12.0711C28.3975 12.3571 28.3097 12.6583 28.1341 13.2607L28.0594 13.5171C27.9432 13.9155 27.8852 14.1147 27.9919 14.2028C28.0986 14.2908 28.2845 14.1971 28.6562 14.0095L29.0643 13.8037C29.5282 13.5697 29.7602 13.4526 30.0103 13.4516C30.2604 13.4506 30.4933 13.5658 30.9591 13.7961L31.3664 13.9974C31.7373 14.1807 31.9227 14.2724 32.0286 14.1841C32.1345 14.0957 32.0763 13.898 31.9599 13.5024L31.8896 13.2632C31.712 12.6597 31.6232 12.3579 31.7017 12.0711C31.7802 11.7844 32.0105 11.5691 32.471 11.1387L32.5176 11.0951C32.8036 10.8278 32.9465 10.6942 32.9044 10.5669C32.8623 10.4395 32.6675 10.4166 32.278 10.3707L32.135 10.3539C31.5543 10.2854 31.264 10.2512 31.0395 10.0872C30.815 9.92312 30.6952 9.65752 30.4558 9.12642L30.3953 8.99239C30.2295 8.62461 30.1465 8.44071 30.0098 8.44071Z" fill="#F8F6EF"/>
</g>
<path d="M17.596 40.07L21.586 31.11L16.91 31.124V29.808H23.07L23.21 31.11L19.22 40.07H17.596ZM24.812 38.74C25.036 38.5253 25.2693 38.3107 25.512 38.096C25.7547 37.872 25.9973 37.6527 26.24 37.438C26.996 36.766 27.598 36.2107 28.046 35.772C28.494 35.324 28.872 34.8667 29.18 34.4C29.488 33.9333 29.642 33.49 29.642 33.07C29.642 32.4913 29.474 32.02 29.138 31.656C28.8113 31.292 28.3913 31.11 27.878 31.11C27.4767 31.11 27.094 31.2407 26.73 31.502C26.3753 31.7633 26.1047 32.0993 25.918 32.51L24.616 31.936C24.896 31.292 25.3393 30.7693 25.946 30.368C26.562 29.9573 27.206 29.752 27.878 29.752C28.5127 29.752 29.0727 29.892 29.558 30.172C30.0527 30.452 30.4353 30.844 30.706 31.348C30.986 31.852 31.126 32.426 31.126 33.07C31.126 33.7047 30.9347 34.3347 30.552 34.96C30.1787 35.5853 29.726 36.1593 29.194 36.682C28.662 37.2047 27.976 37.8253 27.136 38.544L26.912 38.74H31.294V40.042H24.952L24.812 38.74ZM32.9624 34.862C33.1771 34.3487 33.5084 33.9333 33.9564 33.616C34.4138 33.2987 34.9038 33.14 35.4264 33.14C35.6411 33.14 35.8931 33.1867 36.1824 33.28C36.4811 33.3733 36.7378 33.49 36.9524 33.63L38.1284 34.358C38.2404 34.4327 38.3618 34.4933 38.4924 34.54C38.6231 34.5867 38.7304 34.61 38.8144 34.61C39.0384 34.6287 39.2531 34.5633 39.4584 34.414C39.6731 34.2553 39.8271 34.0453 39.9204 33.784L41.3624 34.344C41.1478 34.8853 40.8118 35.324 40.3544 35.66C39.8971 35.9867 39.3978 36.15 38.8564 36.15C38.6511 36.15 38.3991 36.108 38.1004 36.024C37.8111 35.94 37.5544 35.8233 37.3304 35.674L36.1264 34.932C35.8278 34.764 35.5898 34.68 35.4124 34.68C35.2071 34.68 35.0064 34.7547 34.8104 34.904C34.6238 35.044 34.4838 35.226 34.3904 35.45L32.9624 34.862Z" fill="#536349"/>
</g>
<defs>
<filter id="filter0_d_174_2771" x="18.99" y="-1" width="22.02" height="22.02" filterUnits="userSpaceOnUse" color-interpolation-filters="sRGB">
<feFlood flood-opacity="0" result="BackgroundImageFix"/>
<feColorMatrix in="SourceAlpha" type="matrix" values="0 0 0 0 0 0 0 0 0 0 0 0 0 0 0 0 0 0 127 0" result="hardAlpha"/>
<feOffset dy="1.01"/>
<feGaussianBlur stdDeviation="0.505"/>
<feComposite in2="hardAlpha" operator="out"/>
<feColorMatrix type="matrix" values="0 0 0 0 1 0 0 0 0 1 0 0 0 0 1 0 0 0 0.2 0"/>
<feBlend mode="normal" in2="BackgroundImageFix" result="effect1_dropShadow_174_2771"/>
<feBlend mode="normal" in="SourceGraphic" in2="effect1_dropShadow_174_2771" result="shape"/>
</filter>
<clipPath id="clip0_174_2771">
<rect width="60" height="60" rx="5" fill="white"/>
</clipPath>
</defs>
</svg>
