<svg width="60" height="60" viewBox="0 0 60 60" fill="none" xmlns="http://www.w3.org/2000/svg">
<g clip-path="url(#clip0_174_2861)">
<rect width="60" height="60" rx="5" fill="#BBBF9A" fill-opacity="0.5"/>
<g filter="url(#filter0_d_174_2861)">
<path d="M24.4545 5.86817C25.6032 4.70454 27.1185 3.90081 28.8142 3.64247L27.133 0.9794C26.7482 0.3699 26.0758 0 25.3527 0H21.5266C21.1073 0 20.8568 0.46456 21.0884 0.81241L24.4545 5.86817Z" fill="#F8F6EF"/>
<path d="M31.2031 3.64517C32.8974 3.90727 34.4106 4.71398 35.5567 5.87988L38.3897 1.62482C38.8661 0.90929 39.1043 0.55152 38.9556 0.27576C38.8069 5.96046e-08 38.3757 0 37.5134 0H35.8283C34.6921 0 34.124 0 33.6493 0.26114C33.1746 0.52228 32.8723 1.00113 32.2677 1.9588L31.2031 3.64517Z" fill="#F8F6EF"/>
<path fill-rule="evenodd" clip-rule="evenodd" d="M29.9996 18C33.7209 18 36.7376 14.9969 36.7376 11.2925C36.7376 7.58802 33.7209 4.58496 29.9996 4.58496C26.2784 4.58496 23.2617 7.58802 23.2617 11.2925C23.2617 14.9969 26.2784 18 29.9996 18ZM30.852 13.8324V8.62015C30.852 8.45564 30.7186 8.32229 30.5541 8.32229C30.5153 8.32229 30.4768 8.32988 30.4409 8.34465L28.6368 9.08612C28.5832 9.10812 28.5292 9.13032 28.4852 9.15422C28.4349 9.18172 28.3814 9.21962 28.34 9.28132C28.2987 9.34292 28.2839 9.40682 28.2777 9.46382C28.2723 9.51372 28.2723 9.57202 28.2723 9.63002V9.71572C28.2723 9.83582 28.2723 9.94732 28.2852 10.0354C28.2993 10.1309 28.3347 10.2457 28.4451 10.3219L28.4467 10.323C28.5575 10.3986 28.6773 10.3905 28.7715 10.3693C28.8584 10.3497 28.9624 10.3097 29.0746 10.2665L29.0871 10.2617C29.2162 10.212 29.2922 10.1833 29.3468 10.171L29.3492 10.1704L29.3496 10.1729C29.3577 10.2282 29.3583 10.3095 29.3583 10.4478L29.3582 13.8324C29.3582 13.9172 29.3582 13.9996 29.3674 14.0676C29.3777 14.1442 29.4028 14.2317 29.4754 14.3043C29.5481 14.377 29.6355 14.4021 29.7121 14.4124C29.7801 14.4215 29.8625 14.4215 29.9474 14.4215H30.2629C30.3477 14.4215 30.4301 14.4215 30.4981 14.4124C30.5747 14.4021 30.6622 14.377 30.7348 14.3043C30.8075 14.2317 30.8326 14.1442 30.8429 14.0676C30.852 13.9996 30.852 13.9172 30.852 13.8324Z" fill="#F8F6EF"/>
</g>
<path d="M13.2 38.838C13.7973 38.838 14.2873 38.642 14.67 38.25C15.062 37.858 15.258 37.3587 15.258 36.752C15.258 36.1267 15.0667 35.618 14.684 35.226C14.3013 34.834 13.8067 34.638 13.2 34.638C12.6027 34.638 12.1127 34.834 11.73 35.226C11.3567 35.618 11.17 36.1267 11.17 36.752C11.17 37.3587 11.3567 37.858 11.73 38.25C12.1127 38.642 12.6027 38.838 13.2 38.838ZM9.686 36.752C9.686 36.1453 9.87267 35.4967 10.246 34.806L13.046 29.822H14.754L12.724 33.392C12.948 33.3547 13.1207 33.336 13.242 33.336C13.9233 33.336 14.5253 33.4853 15.048 33.784C15.58 34.0733 15.9953 34.4747 16.294 34.988C16.5927 35.5013 16.742 36.0893 16.742 36.752C16.742 37.4053 16.5927 37.9887 16.294 38.502C15.9953 39.0153 15.5753 39.4167 15.034 39.706C14.502 39.9953 13.8953 40.14 13.214 40.14C12.5327 40.14 11.9213 39.9953 11.38 39.706C10.848 39.4167 10.4327 39.0153 10.134 38.502C9.83533 37.9887 9.686 37.4053 9.686 36.752ZM24.1139 36.122H25.4019V37.41H24.1139V40.042H22.6299V37.41H18.2479L18.1079 36.122L22.6999 29.85H24.1139V36.122ZM22.6299 36.122V32.328L19.8719 36.122H22.6299ZM27.0698 34.862C27.2845 34.3487 27.6158 33.9333 28.0638 33.616C28.5212 33.2987 29.0112 33.14 29.5338 33.14C29.7485 33.14 30.0005 33.1867 30.2898 33.28C30.5885 33.3733 30.8452 33.49 31.0598 33.63L32.2358 34.358C32.3478 34.4327 32.4692 34.4933 32.5998 34.54C32.7305 34.5867 32.8378 34.61 32.9218 34.61C33.1458 34.6287 33.3605 34.5633 33.5658 34.414C33.7805 34.2553 33.9345 34.0453 34.0278 33.784L35.4698 34.344C35.2552 34.8853 34.9192 35.324 34.4618 35.66C34.0045 35.9867 33.5052 36.15 32.9638 36.15C32.7585 36.15 32.5065 36.108 32.2078 36.024C31.9185 35.94 31.6618 35.8233 31.4378 35.674L30.2338 34.932C29.9352 34.764 29.6972 34.68 29.5198 34.68C29.3145 34.68 29.1138 34.7547 28.9178 34.904C28.7312 35.044 28.5912 35.226 28.4978 35.45L27.0698 34.862ZM38.1038 40.07L42.0938 31.11L37.4178 31.124V29.808H43.5778L43.7178 31.11L39.7278 40.07H38.1038ZM48.9038 40.042L47.4198 40.028V31.446L45.6278 32.44L45.0118 31.194L47.4338 29.864H48.9038V40.042Z" fill="#536349"/>
</g>
<defs>
<filter id="filter0_d_174_2861" x="18.9873" y="-1" width="22.0253" height="22.0253" filterUnits="userSpaceOnUse" color-interpolation-filters="sRGB">
<feFlood flood-opacity="0" result="BackgroundImageFix"/>
<feColorMatrix in="SourceAlpha" type="matrix" values="0 0 0 0 0 0 0 0 0 0 0 0 0 0 0 0 0 0 127 0" result="hardAlpha"/>
<feOffset dy="1.01266"/>
<feGaussianBlur stdDeviation="0.506329"/>
<feComposite in2="hardAlpha" operator="out"/>
<feColorMatrix type="matrix" values="0 0 0 0 1 0 0 0 0 1 0 0 0 0 1 0 0 0 0.2 0"/>
<feBlend mode="normal" in2="BackgroundImageFix" result="effect1_dropShadow_174_2861"/>
<feBlend mode="normal" in="SourceGraphic" in2="effect1_dropShadow_174_2861" result="shape"/>
</filter>
<clipPath id="clip0_174_2861">
<rect width="60" height="60" rx="5" fill="white"/>
</clipPath>
</defs>
</svg>
