<svg width="60" height="60" viewBox="0 0 60 60" fill="none" xmlns="http://www.w3.org/2000/svg">
<g clip-path="url(#clip0_174_2870)">
<rect width="60" height="60" rx="5" fill="#BBBF9A" fill-opacity="0.5"/>
<g filter="url(#filter0_d_174_2870)">
<path d="M24.4545 5.86817C25.6032 4.70454 27.1185 3.90081 28.8142 3.64247L27.133 0.9794C26.7482 0.3699 26.0758 0 25.3527 0H21.5266C21.1073 0 20.8568 0.46456 21.0884 0.81241L24.4545 5.86817Z" fill="#F8F6EF"/>
<path d="M31.2036 3.64517C32.8979 3.90727 34.4111 4.71398 35.5572 5.87988L38.3902 1.62482C38.8666 0.90929 39.1048 0.55152 38.9561 0.27576C38.8074 5.96046e-08 38.3762 0 37.5139 0H35.8288C34.6926 0 34.1245 0 33.6498 0.26114C33.1751 0.52228 32.8728 1.00113 32.2682 1.9588L31.2036 3.64517Z" fill="#F8F6EF"/>
<path fill-rule="evenodd" clip-rule="evenodd" d="M30.0001 18C33.7214 18 36.7381 14.9969 36.7381 11.2925C36.7381 7.58802 33.7214 4.58496 30.0001 4.58496C26.2789 4.58496 23.2622 7.58802 23.2622 11.2925C23.2622 14.9969 26.2789 18 30.0001 18ZM30.2856 9.66972C30.253 9.56742 30.2078 9.50072 30.1567 9.45812L30.1526 9.45462C30.1075 9.41422 30.0507 9.39132 29.9715 9.39132C29.8696 9.39132 29.7958 9.42152 29.7384 9.47552C29.6733 9.53682 29.6187 9.62622 29.5801 9.75282C29.5726 9.77872 29.5658 9.80542 29.5598 9.83312L29.5582 9.84012C29.537 9.93712 29.5189 10.02 29.4987 10.0837C29.4786 10.1467 29.4484 10.2199 29.3848 10.271C29.3249 10.3192 29.2559 10.3351 29.1935 10.3419C29.1348 10.3484 29.0623 10.3483 28.9814 10.3483H28.6661C28.5778 10.3484 28.4947 10.3484 28.4267 10.3376C28.349 10.3252 28.2711 10.296 28.2102 10.2235C28.1521 10.1544 28.1338 10.0781 28.1338 10.0009C28.1337 9.93612 28.1469 9.86092 28.1602 9.78442L28.162 9.77442C28.1975 9.57092 28.2596 9.37772 28.3483 9.19522L28.3488 9.19432C28.5006 8.88785 28.7146 8.64194 28.9903 8.45997C29.2739 8.27192 29.6098 8.18117 29.991 8.18117C30.358 8.18117 30.6765 8.24959 30.9389 8.39536C31.2021 8.54016 31.4019 8.74861 31.5352 9.01772C31.6704 9.28272 31.7348 9.59332 31.7348 9.94442C31.7348 10.1477 31.7083 10.346 31.6552 10.5389C31.6028 10.7266 31.5284 10.9136 31.433 11.099C31.338 11.2809 31.2215 11.4664 31.0849 11.6539C30.9508 11.8379 30.8002 12.0279 30.6332 12.2239L30.3365 12.647C30.2368 12.7893 30.1722 12.8821 30.137 12.9523C30.1202 12.9858 30.1152 13.0041 30.114 13.0128C30.1218 13.0167 30.1396 13.0232 30.1767 13.0287C30.2544 13.0401 30.3675 13.0405 30.5412 13.0405H31.3265C31.4131 13.0405 31.4925 13.0405 31.557 13.0492C31.6281 13.0587 31.7033 13.0812 31.7651 13.143C31.8269 13.2048 31.8494 13.28 31.8589 13.3511C31.8676 13.4156 31.8676 13.495 31.8676 13.5816V13.7096C31.8676 13.7962 31.8676 13.8756 31.8589 13.9401C31.8494 14.0112 31.8269 14.0864 31.7651 14.1482C31.7033 14.21 31.6281 14.2325 31.557 14.242C31.4925 14.2507 31.4131 14.2507 31.3266 14.2507H28.7571C28.6705 14.2507 28.5911 14.2507 28.5266 14.242C28.4555 14.2325 28.3803 14.21 28.3185 14.1482C28.2567 14.0864 28.2342 14.0112 28.2247 13.9401C28.216 13.8756 28.216 13.7962 28.216 13.7096V13.4618L28.216 13.4484C28.2159 13.3936 28.2157 13.3346 28.2353 13.2781C28.2548 13.2216 28.2914 13.1753 28.3254 13.1323L28.3337 13.1218L29.7853 11.276C29.9304 11.0747 30.0417 10.9016 30.1206 10.7562C30.2007 10.6061 30.2558 10.4766 30.2886 10.3669C30.3217 10.2532 30.3371 10.1504 30.3371 10.0577C30.3371 9.89922 30.3184 9.77032 30.2856 9.66972Z" fill="#F8F6EF"/>
</g>
<path d="M9.092 35.296L9.442 29.85H14.888V31.152H10.87L10.702 33.644C11.1967 33.42 11.6773 33.308 12.144 33.308C12.8347 33.308 13.4507 33.4527 13.992 33.742C14.5427 34.0313 14.9673 34.4373 15.266 34.96C15.574 35.4733 15.728 36.0613 15.728 36.724C15.728 37.396 15.574 37.9933 15.266 38.516C14.9673 39.0387 14.5427 39.4493 13.992 39.748C13.4507 40.0373 12.8347 40.182 12.144 40.182C11.6027 40.182 11.0893 40.07 10.604 39.846C10.128 39.6127 9.722 39.2953 9.386 38.894C9.05 38.4833 8.82133 38.0213 8.7 37.508L10.142 37.172C10.2447 37.6387 10.4827 38.026 10.856 38.334C11.2293 38.6327 11.6587 38.782 12.144 38.782C12.76 38.782 13.264 38.5907 13.656 38.208C14.048 37.8253 14.244 37.3307 14.244 36.724C14.244 36.136 14.048 35.6553 13.656 35.282C13.264 34.8993 12.76 34.708 12.144 34.708C11.8827 34.708 11.6073 34.7827 11.318 34.932C11.0287 35.072 10.7813 35.254 10.576 35.478L9.092 35.296ZM20.6219 38.838C21.2192 38.838 21.7092 38.642 22.0919 38.25C22.4839 37.858 22.6799 37.3587 22.6799 36.752C22.6799 36.1267 22.4885 35.618 22.1059 35.226C21.7232 34.834 21.2285 34.638 20.6219 34.638C20.0245 34.638 19.5345 34.834 19.1519 35.226C18.7785 35.618 18.5919 36.1267 18.5919 36.752C18.5919 37.3587 18.7785 37.858 19.1519 38.25C19.5345 38.642 20.0245 38.838 20.6219 38.838ZM17.1079 36.752C17.1079 36.1453 17.2945 35.4967 17.6679 34.806L20.4679 29.822H22.1759L20.1459 33.392C20.3699 33.3547 20.5425 33.336 20.6639 33.336C21.3452 33.336 21.9472 33.4853 22.4699 33.784C23.0019 34.0733 23.4172 34.4747 23.7159 34.988C24.0145 35.5013 24.1639 36.0893 24.1639 36.752C24.1639 37.4053 24.0145 37.9887 23.7159 38.502C23.4172 39.0153 22.9972 39.4167 22.4559 39.706C21.9239 39.9953 21.3172 40.14 20.6359 40.14C19.9545 40.14 19.3432 39.9953 18.8019 39.706C18.2699 39.4167 17.8545 39.0153 17.5559 38.502C17.2572 37.9887 17.1079 37.4053 17.1079 36.752ZM25.8238 34.862C26.0384 34.3487 26.3698 33.9333 26.8178 33.616C27.2751 33.2987 27.7651 33.14 28.2878 33.14C28.5024 33.14 28.7544 33.1867 29.0438 33.28C29.3424 33.3733 29.5991 33.49 29.8138 33.63L30.9898 34.358C31.1018 34.4327 31.2231 34.4933 31.3538 34.54C31.4844 34.5867 31.5918 34.61 31.6758 34.61C31.8998 34.6287 32.1144 34.5633 32.3198 34.414C32.5344 34.2553 32.6884 34.0453 32.7818 33.784L34.2238 34.344C34.0091 34.8853 33.6731 35.324 33.2158 35.66C32.7584 35.9867 32.2591 36.15 31.7178 36.15C31.5124 36.15 31.2604 36.108 30.9618 36.024C30.6724 35.94 30.4158 35.8233 30.1918 35.674L28.9878 34.932C28.6891 34.764 28.4511 34.68 28.2738 34.68C28.0684 34.68 27.8678 34.7547 27.6718 34.904C27.4851 35.044 27.3451 35.226 27.2518 35.45L25.8238 34.862ZM39.4617 38.838C40.0591 38.838 40.5491 38.642 40.9317 38.25C41.3237 37.858 41.5197 37.3587 41.5197 36.752C41.5197 36.1267 41.3284 35.618 40.9457 35.226C40.5631 34.834 40.0684 34.638 39.4617 34.638C38.8644 34.638 38.3744 34.834 37.9917 35.226C37.6184 35.618 37.4317 36.1267 37.4317 36.752C37.4317 37.3587 37.6184 37.858 37.9917 38.25C38.3744 38.642 38.8644 38.838 39.4617 38.838ZM35.9477 36.752C35.9477 36.1453 36.1344 35.4967 36.5077 34.806L39.3077 29.822H41.0157L38.9857 33.392C39.2097 33.3547 39.3824 33.336 39.5037 33.336C40.1851 33.336 40.7871 33.4853 41.3097 33.784C41.8417 34.0733 42.2571 34.4747 42.5557 34.988C42.8544 35.5013 43.0037 36.0893 43.0037 36.752C43.0037 37.4053 42.8544 37.9887 42.5557 38.502C42.2571 39.0153 41.8371 39.4167 41.2957 39.706C40.7637 39.9953 40.1571 40.14 39.4757 40.14C38.7944 40.14 38.1831 39.9953 37.6417 39.706C37.1097 39.4167 36.6944 39.0153 36.3957 38.502C36.0971 37.9887 35.9477 37.4053 35.9477 36.752ZM49.7876 34.778C50.2356 35.0393 50.5949 35.394 50.8656 35.842C51.1363 36.2807 51.2716 36.7193 51.2716 37.158C51.2716 37.7273 51.1223 38.2407 50.8236 38.698C50.5343 39.146 50.1283 39.496 49.6056 39.748C49.0829 40 48.4856 40.126 47.8136 40.126C47.1509 40.126 46.5583 39.9953 46.0356 39.734C45.5129 39.4727 45.1023 39.1133 44.8036 38.656C44.5143 38.1893 44.3696 37.662 44.3696 37.074H45.8536C45.8536 37.5873 46.0356 38.0073 46.3996 38.334C46.7636 38.6513 47.2349 38.81 47.8136 38.81C48.4016 38.81 48.8823 38.6513 49.2556 38.334C49.6383 38.0073 49.8296 37.5873 49.8296 37.074C49.8296 36.5793 49.6429 36.178 49.2696 35.87C48.8963 35.5527 48.4203 35.394 47.8416 35.394H47.1136V34.148H47.8556C48.3876 34.148 48.8216 34.008 49.1576 33.728C49.5029 33.4387 49.6756 33.07 49.6756 32.622C49.6756 32.1647 49.5123 31.796 49.1856 31.516C48.8589 31.2267 48.4343 31.082 47.9116 31.082C47.3983 31.082 46.9783 31.2267 46.6516 31.516C46.3249 31.8053 46.1616 32.1787 46.1616 32.636H44.6776C44.6776 32.076 44.8129 31.5813 45.0836 31.152C45.3636 30.7133 45.7463 30.3727 46.2316 30.13C46.7263 29.8873 47.2863 29.766 47.9116 29.766C48.5276 29.766 49.0783 29.8873 49.5636 30.13C50.0489 30.3633 50.4269 30.69 50.6976 31.11C50.9776 31.53 51.1176 32.006 51.1176 32.538C51.1176 32.9393 50.9963 33.35 50.7536 33.77C50.5109 34.1807 50.1889 34.5167 49.7876 34.778Z" fill="#536349"/>
</g>
<defs>
<filter id="filter0_d_174_2870" x="18.99" y="-1" width="22.02" height="22.02" filterUnits="userSpaceOnUse" color-interpolation-filters="sRGB">
<feFlood flood-opacity="0" result="BackgroundImageFix"/>
<feColorMatrix in="SourceAlpha" type="matrix" values="0 0 0 0 0 0 0 0 0 0 0 0 0 0 0 0 0 0 127 0" result="hardAlpha"/>
<feOffset dy="1.01"/>
<feGaussianBlur stdDeviation="0.505"/>
<feComposite in2="hardAlpha" operator="out"/>
<feColorMatrix type="matrix" values="0 0 0 0 1 0 0 0 0 1 0 0 0 0 1 0 0 0 0.2 0"/>
<feBlend mode="normal" in2="BackgroundImageFix" result="effect1_dropShadow_174_2870"/>
<feBlend mode="normal" in="SourceGraphic" in2="effect1_dropShadow_174_2870" result="shape"/>
</filter>
<clipPath id="clip0_174_2870">
<rect width="60" height="60" rx="5" fill="white"/>
</clipPath>
</defs>
</svg>
