<svg width="60" height="60" viewBox="0 0 60 60" fill="none" xmlns="http://www.w3.org/2000/svg">
<g clip-path="url(#clip0_174_3870)">
<rect width="60" height="60" rx="5" fill="#BBBF9A" fill-opacity="0.5"/>
<g filter="url(#filter0_d_174_3870)">
<path d="M24.4545 5.86817C25.6032 4.70454 27.1185 3.90081 28.8142 3.64247L27.133 0.9794C26.7482 0.3699 26.0758 0 25.3527 0H21.5266C21.1073 0 20.8568 0.46456 21.0884 0.81241L24.4545 5.86817Z" fill="#F8F6EF"/>
<path d="M31.2031 3.64517C32.8974 3.90727 34.4106 4.71398 35.5567 5.87988L38.3897 1.62482C38.8661 0.90929 39.1043 0.55152 38.9556 0.27576C38.8069 5.96046e-08 38.3757 0 37.5134 0H35.8283C34.6921 0 34.124 0 33.6493 0.26114C33.1746 0.52228 32.8723 1.00113 32.2677 1.9588L31.2031 3.64517Z" fill="#F8F6EF"/>
<path fill-rule="evenodd" clip-rule="evenodd" d="M29.9996 18C33.7209 18 36.7376 14.9969 36.7376 11.2925C36.7376 7.58802 33.7209 4.58496 29.9996 4.58496C26.2784 4.58496 23.2617 7.58802 23.2617 11.2925C23.2617 14.9969 26.2784 18 29.9996 18ZM30.852 13.8324V8.62015C30.852 8.45564 30.7186 8.32229 30.5541 8.32229C30.5153 8.32229 30.4768 8.32988 30.4409 8.34465L28.6368 9.08612C28.5832 9.10812 28.5292 9.13032 28.4852 9.15422C28.4349 9.18172 28.3814 9.21962 28.34 9.28132C28.2987 9.34292 28.2839 9.40682 28.2777 9.46382C28.2723 9.51372 28.2723 9.57202 28.2723 9.63002V9.71572C28.2723 9.83582 28.2723 9.94732 28.2852 10.0354C28.2993 10.1309 28.3347 10.2457 28.4451 10.3219L28.4467 10.323C28.5575 10.3986 28.6773 10.3905 28.7715 10.3693C28.8584 10.3497 28.9624 10.3097 29.0746 10.2665L29.0871 10.2617C29.2162 10.212 29.2922 10.1833 29.3468 10.171L29.3492 10.1704L29.3496 10.1729C29.3577 10.2282 29.3583 10.3095 29.3583 10.4478L29.3582 13.8324C29.3582 13.9172 29.3582 13.9996 29.3674 14.0676C29.3777 14.1442 29.4028 14.2317 29.4754 14.3043C29.5481 14.377 29.6355 14.4021 29.7121 14.4124C29.7801 14.4215 29.8625 14.4215 29.9474 14.4215H30.2629C30.3477 14.4215 30.4301 14.4215 30.4981 14.4124C30.5747 14.4021 30.6622 14.377 30.7348 14.3043C30.8075 14.2317 30.8326 14.1442 30.8429 14.0676C30.852 13.9996 30.852 13.9172 30.852 13.8324Z" fill="#F8F6EF"/>
</g>
<path d="M15.34 38.036L14.068 38.024V30.668L12.532 31.52L12.004 30.452L14.08 29.312H15.34V38.036ZM17.2836 36.92C17.4756 36.736 17.6756 36.552 17.8836 36.368C18.0916 36.176 18.2996 35.988 18.5076 35.804C19.1556 35.228 19.6716 34.752 20.0556 34.376C20.4396 33.992 20.7636 33.6 21.0276 33.2C21.2916 32.8 21.4236 32.42 21.4236 32.06C21.4236 31.564 21.2796 31.16 20.9916 30.848C20.7116 30.536 20.3516 30.38 19.9116 30.38C19.5676 30.38 19.2396 30.492 18.9276 30.716C18.6236 30.94 18.3916 31.228 18.2316 31.58L17.1156 31.088C17.3556 30.536 17.7356 30.088 18.2556 29.744C18.7836 29.392 19.3356 29.216 19.9116 29.216C20.4556 29.216 20.9356 29.336 21.3516 29.576C21.7756 29.816 22.1036 30.152 22.3356 30.584C22.5756 31.016 22.6956 31.508 22.6956 32.06C22.6956 32.604 22.5316 33.144 22.2036 33.68C21.8836 34.216 21.4956 34.708 21.0396 35.156C20.5836 35.604 19.9956 36.136 19.2756 36.752L19.0836 36.92H22.8396V38.036H17.4036L17.2836 36.92ZM25.2177 30.92C25.4257 30.92 25.5937 30.988 25.7217 31.124C25.8577 31.252 25.9257 31.42 25.9257 31.628C25.9257 31.836 25.8577 32.008 25.7217 32.144C25.5937 32.28 25.4257 32.348 25.2177 32.348C25.0097 32.348 24.8377 32.28 24.7017 32.144C24.5737 32.008 24.5097 31.836 24.5097 31.628C24.5097 31.42 24.5777 31.252 24.7137 31.124C24.8497 30.988 25.0177 30.92 25.2177 30.92ZM25.2177 34.952C25.4257 34.952 25.5937 35.02 25.7217 35.156C25.8577 35.284 25.9257 35.452 25.9257 35.66C25.9257 35.868 25.8577 36.04 25.7217 36.176C25.5937 36.312 25.4257 36.38 25.2177 36.38C25.0097 36.38 24.8377 36.312 24.7017 36.176C24.5737 36.04 24.5097 35.868 24.5097 35.66C24.5097 35.452 24.5777 35.284 24.7137 35.156C24.8497 35.02 25.0177 34.952 25.2177 34.952ZM32.2359 33.524C32.6199 33.748 32.9279 34.052 33.1599 34.436C33.3919 34.812 33.5079 35.188 33.5079 35.564C33.5079 36.052 33.3799 36.492 33.1239 36.884C32.8759 37.268 32.5279 37.568 32.0799 37.784C31.6319 38 31.1199 38.108 30.5439 38.108C29.9759 38.108 29.4679 37.996 29.0199 37.772C28.5719 37.548 28.2199 37.24 27.9639 36.848C27.7159 36.448 27.5919 35.996 27.5919 35.492H28.8639C28.8639 35.932 29.0199 36.292 29.3319 36.572C29.6439 36.844 30.0479 36.98 30.5439 36.98C31.0479 36.98 31.4599 36.844 31.7799 36.572C32.1079 36.292 32.2719 35.932 32.2719 35.492C32.2719 35.068 32.1119 34.724 31.7919 34.46C31.4719 34.188 31.0639 34.052 30.5679 34.052H29.9439V32.984H30.5799C31.0359 32.984 31.4079 32.864 31.6959 32.624C31.9919 32.376 32.1399 32.06 32.1399 31.676C32.1399 31.284 31.9999 30.968 31.7199 30.728C31.4399 30.48 31.0759 30.356 30.6279 30.356C30.1879 30.356 29.8279 30.48 29.5479 30.728C29.2679 30.976 29.1279 31.296 29.1279 31.688H27.8559C27.8559 31.208 27.9719 30.784 28.2039 30.416C28.4439 30.04 28.7719 29.748 29.1879 29.54C29.6119 29.332 30.0919 29.228 30.6279 29.228C31.1559 29.228 31.6279 29.332 32.0439 29.54C32.4599 29.74 32.7839 30.02 33.0159 30.38C33.2559 30.74 33.3759 31.148 33.3759 31.604C33.3759 31.948 33.2719 32.3 33.0639 32.66C32.8559 33.012 32.5799 33.3 32.2359 33.524ZM37.9338 38.036L36.6618 38.024V30.668L35.1258 31.52L34.5978 30.452L36.6738 29.312H37.9338V38.036ZM39.9494 33.596C40.1334 33.156 40.4174 32.8 40.8014 32.528C41.1934 32.256 41.6134 32.12 42.0614 32.12C42.2454 32.12 42.4614 32.16 42.7094 32.24C42.9654 32.32 43.1854 32.42 43.3694 32.54L44.3774 33.164C44.4734 33.228 44.5774 33.28 44.6894 33.32C44.8014 33.36 44.8934 33.38 44.9654 33.38C45.1574 33.396 45.3414 33.34 45.5174 33.212C45.7014 33.076 45.8334 32.896 45.9134 32.672L47.1494 33.152C46.9654 33.616 46.6774 33.992 46.2854 34.28C45.8934 34.56 45.4654 34.7 45.0014 34.7C44.8254 34.7 44.6094 34.664 44.3534 34.592C44.1054 34.52 43.8854 34.42 43.6934 34.292L42.6614 33.656C42.4054 33.512 42.2014 33.44 42.0494 33.44C41.8734 33.44 41.7014 33.504 41.5334 33.632C41.3734 33.752 41.2534 33.908 41.1734 34.1L39.9494 33.596ZM15.34 53.036L14.068 53.024V45.668L12.532 46.52L12.004 45.452L14.08 44.312H15.34V53.036ZM21.7476 48.524C22.1316 48.748 22.4396 49.052 22.6716 49.436C22.9036 49.812 23.0196 50.188 23.0196 50.564C23.0196 51.052 22.8916 51.492 22.6356 51.884C22.3876 52.268 22.0396 52.568 21.5916 52.784C21.1436 53 20.6316 53.108 20.0556 53.108C19.4876 53.108 18.9796 52.996 18.5316 52.772C18.0836 52.548 17.7316 52.24 17.4756 51.848C17.2276 51.448 17.1036 50.996 17.1036 50.492H18.3756C18.3756 50.932 18.5316 51.292 18.8436 51.572C19.1556 51.844 19.5596 51.98 20.0556 51.98C20.5596 51.98 20.9716 51.844 21.2916 51.572C21.6196 51.292 21.7836 50.932 21.7836 50.492C21.7836 50.068 21.6236 49.724 21.3036 49.46C20.9836 49.188 20.5756 49.052 20.0796 49.052H19.4556V47.984H20.0916C20.5476 47.984 20.9196 47.864 21.2076 47.624C21.5036 47.376 21.6516 47.06 21.6516 46.676C21.6516 46.284 21.5116 45.968 21.2316 45.728C20.9516 45.48 20.5876 45.356 20.1396 45.356C19.6996 45.356 19.3396 45.48 19.0596 45.728C18.7796 45.976 18.6396 46.296 18.6396 46.688H17.3676C17.3676 46.208 17.4836 45.784 17.7156 45.416C17.9556 45.04 18.2836 44.748 18.6996 44.54C19.1236 44.332 19.6036 44.228 20.1396 44.228C20.6676 44.228 21.1396 44.332 21.5556 44.54C21.9716 44.74 22.2956 45.02 22.5276 45.38C22.7676 45.74 22.8876 46.148 22.8876 46.604C22.8876 46.948 22.7836 47.3 22.5756 47.66C22.3676 48.012 22.0916 48.3 21.7476 48.524ZM25.3935 45.92C25.6015 45.92 25.7695 45.988 25.8975 46.124C26.0335 46.252 26.1015 46.42 26.1015 46.628C26.1015 46.836 26.0335 47.008 25.8975 47.144C25.7695 47.28 25.6015 47.348 25.3935 47.348C25.1855 47.348 25.0135 47.28 24.8775 47.144C24.7495 47.008 24.6855 46.836 24.6855 46.628C24.6855 46.42 24.7535 46.252 24.8895 46.124C25.0255 45.988 25.1935 45.92 25.3935 45.92ZM25.3935 49.952C25.6015 49.952 25.7695 50.02 25.8975 50.156C26.0335 50.284 26.1015 50.452 26.1015 50.66C26.1015 50.868 26.0335 51.04 25.8975 51.176C25.7695 51.312 25.6015 51.38 25.3935 51.38C25.1855 51.38 25.0135 51.312 24.8775 51.176C24.7495 51.04 24.6855 50.868 24.6855 50.66C24.6855 50.452 24.7535 50.284 24.8895 50.156C25.0255 50.02 25.1935 49.952 25.3935 49.952ZM32.4117 48.524C32.7957 48.748 33.1037 49.052 33.3357 49.436C33.5677 49.812 33.6837 50.188 33.6837 50.564C33.6837 51.052 33.5557 51.492 33.2997 51.884C33.0517 52.268 32.7037 52.568 32.2557 52.784C31.8077 53 31.2957 53.108 30.7197 53.108C30.1517 53.108 29.6437 52.996 29.1957 52.772C28.7477 52.548 28.3957 52.24 28.1397 51.848C27.8917 51.448 27.7677 50.996 27.7677 50.492H29.0397C29.0397 50.932 29.1957 51.292 29.5077 51.572C29.8197 51.844 30.2237 51.98 30.7197 51.98C31.2237 51.98 31.6357 51.844 31.9557 51.572C32.2837 51.292 32.4477 50.932 32.4477 50.492C32.4477 50.068 32.2877 49.724 31.9677 49.46C31.6477 49.188 31.2397 49.052 30.7437 49.052H30.1197V47.984H30.7557C31.2117 47.984 31.5837 47.864 31.8717 47.624C32.1677 47.376 32.3157 47.06 32.3157 46.676C32.3157 46.284 32.1757 45.968 31.8957 45.728C31.6157 45.48 31.2517 45.356 30.8037 45.356C30.3637 45.356 30.0037 45.48 29.7237 45.728C29.4437 45.976 29.3037 46.296 29.3037 46.688H28.0317C28.0317 46.208 28.1477 45.784 28.3797 45.416C28.6197 45.04 28.9477 44.748 29.3637 44.54C29.7877 44.332 30.2677 44.228 30.8037 44.228C31.3317 44.228 31.8037 44.332 32.2197 44.54C32.6357 44.74 32.9597 45.02 33.1917 45.38C33.4317 45.74 33.5517 46.148 33.5517 46.604C33.5517 46.948 33.4477 47.3 33.2397 47.66C33.0317 48.012 32.7557 48.3 32.4117 48.524ZM35.0375 51.92C35.2295 51.736 35.4295 51.552 35.6375 51.368C35.8455 51.176 36.0535 50.988 36.2615 50.804C36.9095 50.228 37.4255 49.752 37.8095 49.376C38.1935 48.992 38.5175 48.6 38.7815 48.2C39.0455 47.8 39.1775 47.42 39.1775 47.06C39.1775 46.564 39.0335 46.16 38.7455 45.848C38.4655 45.536 38.1055 45.38 37.6655 45.38C37.3215 45.38 36.9935 45.492 36.6815 45.716C36.3775 45.94 36.1455 46.228 35.9855 46.58L34.8695 46.088C35.1095 45.536 35.4895 45.088 36.0095 44.744C36.5375 44.392 37.0895 44.216 37.6655 44.216C38.2095 44.216 38.6895 44.336 39.1055 44.576C39.5295 44.816 39.8575 45.152 40.0895 45.584C40.3295 46.016 40.4495 46.508 40.4495 47.06C40.4495 47.604 40.2855 48.144 39.9575 48.68C39.6375 49.216 39.2495 49.708 38.7935 50.156C38.3375 50.604 37.7495 51.136 37.0295 51.752L36.8375 51.92H40.5935V53.036H35.1575L35.0375 51.92Z" fill="#536349"/>
</g>
<defs>
<filter id="filter0_d_174_3870" x="18.9873" y="-1" width="22.0253" height="22.0253" filterUnits="userSpaceOnUse" color-interpolation-filters="sRGB">
<feFlood flood-opacity="0" result="BackgroundImageFix"/>
<feColorMatrix in="SourceAlpha" type="matrix" values="0 0 0 0 0 0 0 0 0 0 0 0 0 0 0 0 0 0 127 0" result="hardAlpha"/>
<feOffset dy="1.01266"/>
<feGaussianBlur stdDeviation="0.506329"/>
<feComposite in2="hardAlpha" operator="out"/>
<feColorMatrix type="matrix" values="0 0 0 0 1 0 0 0 0 1 0 0 0 0 1 0 0 0 0.2 0"/>
<feBlend mode="normal" in2="BackgroundImageFix" result="effect1_dropShadow_174_3870"/>
<feBlend mode="normal" in="SourceGraphic" in2="effect1_dropShadow_174_3870" result="shape"/>
</filter>
<clipPath id="clip0_174_3870">
<rect width="60" height="60" rx="5" fill="white"/>
</clipPath>
</defs>
</svg>
