<svg width="60" height="60" viewBox="0 0 60 60" fill="none" xmlns="http://www.w3.org/2000/svg">
<g clip-path="url(#clip0_174_3869)">
<rect width="60" height="60" rx="5" fill="#BBBF9A" fill-opacity="0.5"/>
<g filter="url(#filter0_d_174_3869)">
<path d="M24.4545 5.86817C25.6032 4.70454 27.1185 3.90081 28.8142 3.64247L27.133 0.9794C26.7482 0.3699 26.0758 0 25.3527 0H21.5266C21.1073 0 20.8568 0.46456 21.0884 0.81241L24.3889 5.76965C24.4113 5.80336 24.4332 5.8362 24.4545 5.86817Z" fill="#F8F6EF"/>
<path d="M31.2036 3.64517C32.8979 3.90727 34.4111 4.71398 35.5572 5.87988C35.581 5.84424 35.6054 5.8075 35.6306 5.76966L38.3902 1.62482C38.8666 0.90929 39.1048 0.55152 38.9561 0.27576C38.8074 5.96046e-08 38.3762 0 37.5139 0H35.8288C34.6926 0 34.1245 0 33.6498 0.26114C33.1751 0.52228 32.8728 1.00113 32.2682 1.9588L31.2036 3.64517Z" fill="#F8F6EF"/>
<path fill-rule="evenodd" clip-rule="evenodd" d="M36.7381 11.2925C36.7381 14.9969 33.7214 18 30.0001 18C26.2789 18 23.2622 14.9969 23.2622 11.2925C23.2622 7.58802 26.2789 4.58496 30.0001 4.58496C33.7214 4.58496 36.7381 7.58802 36.7381 11.2925ZM30.0098 8.44071C29.873 8.44071 29.7901 8.62461 29.6243 8.99239L29.5638 9.12642C29.3243 9.65752 29.2046 9.92312 28.9801 10.0872C28.7556 10.2512 28.4652 10.2854 27.8845 10.3539L27.7416 10.3707C27.352 10.4166 27.1573 10.4395 27.1152 10.5669C27.0731 10.6942 27.216 10.8278 27.502 11.0951L27.5512 11.1411C28.0105 11.5704 28.2402 11.7851 28.3188 12.0711C28.3975 12.3571 28.3097 12.6583 28.1341 13.2607L28.0594 13.5171C27.9432 13.9155 27.8852 14.1147 27.9919 14.2028C28.0986 14.2908 28.2845 14.1971 28.6562 14.0095L29.0643 13.8037C29.5282 13.5697 29.7602 13.4526 30.0103 13.4516C30.2604 13.4506 30.4933 13.5658 30.9591 13.7961L31.3664 13.9974C31.7373 14.1807 31.9227 14.2724 32.0286 14.1841C32.1345 14.0957 32.0763 13.898 31.9599 13.5024L31.8896 13.2632C31.712 12.6597 31.6232 12.3579 31.7017 12.0711C31.7802 11.7844 32.0105 11.5691 32.471 11.1387L32.5176 11.0951C32.8036 10.8278 32.9465 10.6942 32.9044 10.5669C32.8623 10.4395 32.6675 10.4166 32.278 10.3707L32.135 10.3539C31.5543 10.2854 31.264 10.2512 31.0395 10.0872C30.815 9.92312 30.6952 9.65752 30.4558 9.12642L30.3953 8.99239C30.2295 8.62461 30.1465 8.44071 30.0098 8.44071Z" fill="#F8F6EF"/>
</g>
<path d="M13.84 41.036L12.568 41.024V33.668L11.032 34.52L10.504 33.452L12.58 32.312H13.84V41.036ZM15.7836 39.92C15.9756 39.736 16.1756 39.552 16.3836 39.368C16.5916 39.176 16.7996 38.988 17.0076 38.804C17.6556 38.228 18.1716 37.752 18.5556 37.376C18.9396 36.992 19.2636 36.6 19.5276 36.2C19.7916 35.8 19.9236 35.42 19.9236 35.06C19.9236 34.564 19.7796 34.16 19.4916 33.848C19.2116 33.536 18.8516 33.38 18.4116 33.38C18.0676 33.38 17.7396 33.492 17.4276 33.716C17.1236 33.94 16.8916 34.228 16.7316 34.58L15.6156 34.088C15.8556 33.536 16.2356 33.088 16.7556 32.744C17.2836 32.392 17.8356 32.216 18.4116 32.216C18.9556 32.216 19.4356 32.336 19.8516 32.576C20.2756 32.816 20.6036 33.152 20.8356 33.584C21.0756 34.016 21.1956 34.508 21.1956 35.06C21.1956 35.604 21.0316 36.144 20.7036 36.68C20.3836 37.216 19.9956 37.708 19.5396 38.156C19.0836 38.604 18.4956 39.136 17.7756 39.752L17.5836 39.92H21.3396V41.036H15.9036L15.7836 39.92ZM23.7177 33.92C23.9257 33.92 24.0937 33.988 24.2217 34.124C24.3577 34.252 24.4257 34.42 24.4257 34.628C24.4257 34.836 24.3577 35.008 24.2217 35.144C24.0937 35.28 23.9257 35.348 23.7177 35.348C23.5097 35.348 23.3377 35.28 23.2017 35.144C23.0737 35.008 23.0097 34.836 23.0097 34.628C23.0097 34.42 23.0777 34.252 23.2137 34.124C23.3497 33.988 23.5177 33.92 23.7177 33.92ZM23.7177 37.952C23.9257 37.952 24.0937 38.02 24.2217 38.156C24.3577 38.284 24.4257 38.452 24.4257 38.66C24.4257 38.868 24.3577 39.04 24.2217 39.176C24.0937 39.312 23.9257 39.38 23.7177 39.38C23.5097 39.38 23.3377 39.312 23.2017 39.176C23.0737 39.04 23.0097 38.868 23.0097 38.66C23.0097 38.452 23.0777 38.284 23.2137 38.156C23.3497 38.02 23.5177 37.952 23.7177 37.952ZM30.7359 36.524C31.1199 36.748 31.4279 37.052 31.6599 37.436C31.8919 37.812 32.0079 38.188 32.0079 38.564C32.0079 39.052 31.8799 39.492 31.6239 39.884C31.3759 40.268 31.0279 40.568 30.5799 40.784C30.1319 41 29.6199 41.108 29.0439 41.108C28.4759 41.108 27.9679 40.996 27.5199 40.772C27.0719 40.548 26.7199 40.24 26.4639 39.848C26.2159 39.448 26.0919 38.996 26.0919 38.492H27.3639C27.3639 38.932 27.5199 39.292 27.8319 39.572C28.1439 39.844 28.5479 39.98 29.0439 39.98C29.5479 39.98 29.9599 39.844 30.2799 39.572C30.6079 39.292 30.7719 38.932 30.7719 38.492C30.7719 38.068 30.6119 37.724 30.2919 37.46C29.9719 37.188 29.5639 37.052 29.0679 37.052H28.4439V35.984H29.0799C29.5359 35.984 29.9079 35.864 30.1959 35.624C30.4919 35.376 30.6399 35.06 30.6399 34.676C30.6399 34.284 30.4999 33.968 30.2199 33.728C29.9399 33.48 29.5759 33.356 29.1279 33.356C28.6879 33.356 28.3279 33.48 28.0479 33.728C27.7679 33.976 27.6279 34.296 27.6279 34.688H26.3559C26.3559 34.208 26.4719 33.784 26.7039 33.416C26.9439 33.04 27.2719 32.748 27.6879 32.54C28.1119 32.332 28.5919 32.228 29.1279 32.228C29.6559 32.228 30.1279 32.332 30.5439 32.54C30.9599 32.74 31.2839 33.02 31.5159 33.38C31.7559 33.74 31.8759 34.148 31.8759 34.604C31.8759 34.948 31.7719 35.3 31.5639 35.66C31.3559 36.012 31.0799 36.3 30.7359 36.524ZM36.4578 39.992C36.8498 39.992 37.1978 39.852 37.5018 39.572C37.8058 39.292 38.0418 38.904 38.2098 38.408C38.3778 37.904 38.4618 37.324 38.4618 36.668C38.4618 36.012 38.3778 35.432 38.2098 34.928C38.0418 34.424 37.8058 34.032 37.5018 33.752C37.1978 33.472 36.8498 33.332 36.4578 33.332C36.0658 33.332 35.7138 33.472 35.4018 33.752C35.0978 34.032 34.8618 34.424 34.6938 34.928C34.5258 35.432 34.4418 36.012 34.4418 36.668C34.4418 37.324 34.5258 37.904 34.6938 38.408C34.8618 38.904 35.0978 39.292 35.4018 39.572C35.7138 39.852 36.0658 39.992 36.4578 39.992ZM36.4578 41.12C35.8258 41.12 35.2578 40.932 34.7538 40.556C34.2578 40.172 33.8698 39.644 33.5898 38.972C33.3098 38.292 33.1698 37.524 33.1698 36.668C33.1698 35.804 33.3098 35.036 33.5898 34.364C33.8698 33.684 34.2578 33.156 34.7538 32.78C35.2498 32.404 35.8178 32.216 36.4578 32.216C37.0898 32.216 37.6538 32.404 38.1498 32.78C38.6458 33.156 39.0338 33.684 39.3138 34.364C39.5938 35.036 39.7338 35.804 39.7338 36.668C39.7338 37.524 39.5938 38.292 39.3138 38.972C39.0338 39.644 38.6458 40.172 38.1498 40.556C37.6538 40.932 37.0898 41.12 36.4578 41.12ZM41.1564 36.596C41.3404 36.156 41.6244 35.8 42.0084 35.528C42.4004 35.256 42.8204 35.12 43.2684 35.12C43.4524 35.12 43.6684 35.16 43.9164 35.24C44.1724 35.32 44.3924 35.42 44.5764 35.54L45.5844 36.164C45.6804 36.228 45.7844 36.28 45.8964 36.32C46.0084 36.36 46.1004 36.38 46.1724 36.38C46.3644 36.396 46.5484 36.34 46.7244 36.212C46.9084 36.076 47.0404 35.896 47.1204 35.672L48.3564 36.152C48.1724 36.616 47.8844 36.992 47.4924 37.28C47.1004 37.56 46.6724 37.7 46.2084 37.7C46.0324 37.7 45.8164 37.664 45.5604 37.592C45.3124 37.52 45.0924 37.42 44.9004 37.292L43.8684 36.656C43.6124 36.512 43.4084 36.44 43.2564 36.44C43.0804 36.44 42.9084 36.504 42.7404 36.632C42.5804 36.752 42.4604 36.908 42.3804 37.1L41.1564 36.596Z" fill="#536349"/>
</g>
<defs>
<filter id="filter0_d_174_3869" x="18.99" y="-1" width="22.02" height="22.02" filterUnits="userSpaceOnUse" color-interpolation-filters="sRGB">
<feFlood flood-opacity="0" result="BackgroundImageFix"/>
<feColorMatrix in="SourceAlpha" type="matrix" values="0 0 0 0 0 0 0 0 0 0 0 0 0 0 0 0 0 0 127 0" result="hardAlpha"/>
<feOffset dy="1.01"/>
<feGaussianBlur stdDeviation="0.505"/>
<feComposite in2="hardAlpha" operator="out"/>
<feColorMatrix type="matrix" values="0 0 0 0 1 0 0 0 0 1 0 0 0 0 1 0 0 0 0.2 0"/>
<feBlend mode="normal" in2="BackgroundImageFix" result="effect1_dropShadow_174_3869"/>
<feBlend mode="normal" in="SourceGraphic" in2="effect1_dropShadow_174_3869" result="shape"/>
</filter>
<clipPath id="clip0_174_3869">
<rect width="60" height="60" rx="5" fill="white"/>
</clipPath>
</defs>
</svg>
