<svg width="60" height="60" viewBox="0 0 60 60" fill="none" xmlns="http://www.w3.org/2000/svg">
<g clip-path="url(#clip0_174_3871)">
<rect width="60" height="60" rx="5" fill="#BBBF9A" fill-opacity="0.5"/>
<g filter="url(#filter0_d_174_3871)">
<path d="M24.4545 5.86817C25.6032 4.70454 27.1185 3.90081 28.8142 3.64247L27.133 0.9794C26.7482 0.3699 26.0758 0 25.3527 0H21.5266C21.1073 0 20.8568 0.46456 21.0884 0.81241L24.4545 5.86817Z" fill="#F8F6EF"/>
<path d="M31.2036 3.64517C32.8979 3.90727 34.4111 4.71398 35.5572 5.87988L38.3902 1.62482C38.8666 0.90929 39.1048 0.55152 38.9561 0.27576C38.8074 5.96046e-08 38.3762 0 37.5139 0H35.8288C34.6926 0 34.1245 0 33.6498 0.26114C33.1751 0.52228 32.8728 1.00113 32.2682 1.9588L31.2036 3.64517Z" fill="#F8F6EF"/>
<path fill-rule="evenodd" clip-rule="evenodd" d="M30.0001 18C33.7214 18 36.7381 14.9969 36.7381 11.2925C36.7381 7.58802 33.7214 4.58496 30.0001 4.58496C26.2789 4.58496 23.2622 7.58802 23.2622 11.2925C23.2622 14.9969 26.2789 18 30.0001 18ZM30.2856 9.66972C30.253 9.56742 30.2078 9.50072 30.1567 9.45812L30.1526 9.45462C30.1075 9.41422 30.0507 9.39132 29.9715 9.39132C29.8696 9.39132 29.7958 9.42152 29.7384 9.47552C29.6733 9.53682 29.6187 9.62622 29.5801 9.75282C29.5726 9.77872 29.5658 9.80542 29.5598 9.83312L29.5582 9.84012C29.537 9.93712 29.5189 10.02 29.4987 10.0837C29.4786 10.1467 29.4484 10.2199 29.3848 10.271C29.3249 10.3192 29.2559 10.3351 29.1935 10.3419C29.1348 10.3484 29.0623 10.3483 28.9814 10.3483H28.6661C28.5778 10.3484 28.4947 10.3484 28.4267 10.3376C28.349 10.3252 28.2711 10.296 28.2102 10.2235C28.1521 10.1544 28.1338 10.0781 28.1338 10.0009C28.1337 9.93612 28.1469 9.86092 28.1602 9.78442L28.162 9.77442C28.1975 9.57092 28.2596 9.37772 28.3483 9.19522L28.3488 9.19432C28.5006 8.88785 28.7146 8.64194 28.9903 8.45997C29.2739 8.27192 29.6098 8.18117 29.991 8.18117C30.358 8.18117 30.6765 8.24959 30.9389 8.39536C31.2021 8.54016 31.4019 8.74861 31.5352 9.01772C31.6704 9.28272 31.7348 9.59332 31.7348 9.94442C31.7348 10.1477 31.7083 10.346 31.6552 10.5389C31.6028 10.7266 31.5284 10.9136 31.433 11.099C31.338 11.2809 31.2215 11.4664 31.0849 11.6539C30.9508 11.8379 30.8002 12.0279 30.6332 12.2239L30.3365 12.647C30.2368 12.7893 30.1722 12.8821 30.137 12.9523C30.1202 12.9858 30.1152 13.0041 30.114 13.0128C30.1218 13.0167 30.1396 13.0232 30.1767 13.0287C30.2544 13.0401 30.3675 13.0405 30.5412 13.0405H31.3265C31.4131 13.0405 31.4925 13.0405 31.557 13.0492C31.6281 13.0587 31.7033 13.0812 31.7651 13.143C31.8269 13.2048 31.8494 13.28 31.8589 13.3511C31.8676 13.4156 31.8676 13.495 31.8676 13.5816V13.7096C31.8676 13.7962 31.8676 13.8756 31.8589 13.9401C31.8494 14.0112 31.8269 14.0864 31.7651 14.1482C31.7033 14.21 31.6281 14.2325 31.557 14.242C31.4925 14.2507 31.4131 14.2507 31.3266 14.2507H28.7571C28.6705 14.2507 28.5911 14.2507 28.5266 14.242C28.4555 14.2325 28.3803 14.21 28.3185 14.1482C28.2567 14.0864 28.2342 14.0112 28.2247 13.9401C28.216 13.8756 28.216 13.7962 28.216 13.7096V13.4618L28.216 13.4484C28.2159 13.3936 28.2157 13.3346 28.2353 13.2781C28.2548 13.2216 28.2914 13.1753 28.3254 13.1323L28.3337 13.1218L29.7853 11.276C29.9304 11.0747 30.0417 10.9016 30.1206 10.7562C30.2007 10.6061 30.2558 10.4766 30.2886 10.3669C30.3217 10.2532 30.3371 10.1504 30.3371 10.0577C30.3371 9.89922 30.3184 9.77032 30.2856 9.66972Z" fill="#F8F6EF"/>
</g>
<path d="M14.34 38.036L13.068 38.024V30.668L11.532 31.52L11.004 30.452L13.08 29.312H14.34V38.036ZM20.7476 33.524C21.1316 33.748 21.4396 34.052 21.6716 34.436C21.9036 34.812 22.0196 35.188 22.0196 35.564C22.0196 36.052 21.8916 36.492 21.6356 36.884C21.3876 37.268 21.0396 37.568 20.5916 37.784C20.1436 38 19.6316 38.108 19.0556 38.108C18.4876 38.108 17.9796 37.996 17.5316 37.772C17.0836 37.548 16.7316 37.24 16.4756 36.848C16.2276 36.448 16.1036 35.996 16.1036 35.492H17.3756C17.3756 35.932 17.5316 36.292 17.8436 36.572C18.1556 36.844 18.5596 36.98 19.0556 36.98C19.5596 36.98 19.9716 36.844 20.2916 36.572C20.6196 36.292 20.7836 35.932 20.7836 35.492C20.7836 35.068 20.6236 34.724 20.3036 34.46C19.9836 34.188 19.5756 34.052 19.0796 34.052H18.4556V32.984H19.0916C19.5476 32.984 19.9196 32.864 20.2076 32.624C20.5036 32.376 20.6516 32.06 20.6516 31.676C20.6516 31.284 20.5116 30.968 20.2316 30.728C19.9516 30.48 19.5876 30.356 19.1396 30.356C18.6996 30.356 18.3396 30.48 18.0596 30.728C17.7796 30.976 17.6396 31.296 17.6396 31.688H16.3676C16.3676 31.208 16.4836 30.784 16.7156 30.416C16.9556 30.04 17.2836 29.748 17.6996 29.54C18.1236 29.332 18.6036 29.228 19.1396 29.228C19.6676 29.228 20.1396 29.332 20.5556 29.54C20.9716 29.74 21.2956 30.02 21.5276 30.38C21.7676 30.74 21.8876 31.148 21.8876 31.604C21.8876 31.948 21.7836 32.3 21.5756 32.66C21.3676 33.012 21.0916 33.3 20.7476 33.524ZM24.3935 30.92C24.6015 30.92 24.7695 30.988 24.8975 31.124C25.0335 31.252 25.1015 31.42 25.1015 31.628C25.1015 31.836 25.0335 32.008 24.8975 32.144C24.7695 32.28 24.6015 32.348 24.3935 32.348C24.1855 32.348 24.0135 32.28 23.8775 32.144C23.7495 32.008 23.6855 31.836 23.6855 31.628C23.6855 31.42 23.7535 31.252 23.8895 31.124C24.0255 30.988 24.1935 30.92 24.3935 30.92ZM24.3935 34.952C24.6015 34.952 24.7695 35.02 24.8975 35.156C25.0335 35.284 25.1015 35.452 25.1015 35.66C25.1015 35.868 25.0335 36.04 24.8975 36.176C24.7695 36.312 24.6015 36.38 24.3935 36.38C24.1855 36.38 24.0135 36.312 23.8775 36.176C23.7495 36.04 23.6855 35.868 23.6855 35.66C23.6855 35.452 23.7535 35.284 23.8895 35.156C24.0255 35.02 24.1935 34.952 24.3935 34.952ZM31.4117 33.524C31.7957 33.748 32.1037 34.052 32.3357 34.436C32.5677 34.812 32.6837 35.188 32.6837 35.564C32.6837 36.052 32.5557 36.492 32.2997 36.884C32.0517 37.268 31.7037 37.568 31.2557 37.784C30.8077 38 30.2957 38.108 29.7197 38.108C29.1517 38.108 28.6437 37.996 28.1957 37.772C27.7477 37.548 27.3957 37.24 27.1397 36.848C26.8917 36.448 26.7677 35.996 26.7677 35.492H28.0397C28.0397 35.932 28.1957 36.292 28.5077 36.572C28.8197 36.844 29.2237 36.98 29.7197 36.98C30.2237 36.98 30.6357 36.844 30.9557 36.572C31.2837 36.292 31.4477 35.932 31.4477 35.492C31.4477 35.068 31.2877 34.724 30.9677 34.46C30.6477 34.188 30.2397 34.052 29.7437 34.052H29.1197V32.984H29.7557C30.2117 32.984 30.5837 32.864 30.8717 32.624C31.1677 32.376 31.3157 32.06 31.3157 31.676C31.3157 31.284 31.1757 30.968 30.8957 30.728C30.6157 30.48 30.2517 30.356 29.8037 30.356C29.3637 30.356 29.0037 30.48 28.7237 30.728C28.4437 30.976 28.3037 31.296 28.3037 31.688H27.0317C27.0317 31.208 27.1477 30.784 27.3797 30.416C27.6197 30.04 27.9477 29.748 28.3637 29.54C28.7877 29.332 29.2677 29.228 29.8037 29.228C30.3317 29.228 30.8037 29.332 31.2197 29.54C31.6357 29.74 31.9597 30.02 32.1917 30.38C32.4317 30.74 32.5517 31.148 32.5517 31.604C32.5517 31.948 32.4477 32.3 32.2397 32.66C32.0317 33.012 31.7557 33.3 31.4117 33.524ZM38.5015 33.524C38.8855 33.748 39.1935 34.052 39.4255 34.436C39.6575 34.812 39.7735 35.188 39.7735 35.564C39.7735 36.052 39.6455 36.492 39.3895 36.884C39.1415 37.268 38.7935 37.568 38.3455 37.784C37.8975 38 37.3855 38.108 36.8095 38.108C36.2415 38.108 35.7335 37.996 35.2855 37.772C34.8375 37.548 34.4855 37.24 34.2295 36.848C33.9815 36.448 33.8575 35.996 33.8575 35.492H35.1295C35.1295 35.932 35.2855 36.292 35.5975 36.572C35.9095 36.844 36.3135 36.98 36.8095 36.98C37.3135 36.98 37.7255 36.844 38.0455 36.572C38.3735 36.292 38.5375 35.932 38.5375 35.492C38.5375 35.068 38.3775 34.724 38.0575 34.46C37.7375 34.188 37.3295 34.052 36.8335 34.052H36.2095V32.984H36.8455C37.3015 32.984 37.6735 32.864 37.9615 32.624C38.2575 32.376 38.4055 32.06 38.4055 31.676C38.4055 31.284 38.2655 30.968 37.9855 30.728C37.7055 30.48 37.3415 30.356 36.8935 30.356C36.4535 30.356 36.0935 30.48 35.8135 30.728C35.5335 30.976 35.3935 31.296 35.3935 31.688H34.1215C34.1215 31.208 34.2375 30.784 34.4695 30.416C34.7095 30.04 35.0375 29.748 35.4535 29.54C35.8775 29.332 36.3575 29.228 36.8935 29.228C37.4215 29.228 37.8935 29.332 38.3095 29.54C38.7255 29.74 39.0495 30.02 39.2815 30.38C39.5215 30.74 39.6415 31.148 39.6415 31.604C39.6415 31.948 39.5375 32.3 39.3295 32.66C39.1215 33.012 38.8455 33.3 38.5015 33.524ZM41.1994 33.596C41.3834 33.156 41.6674 32.8 42.0514 32.528C42.4434 32.256 42.8634 32.12 43.3114 32.12C43.4954 32.12 43.7114 32.16 43.9594 32.24C44.2154 32.32 44.4354 32.42 44.6194 32.54L45.6274 33.164C45.7234 33.228 45.8274 33.28 45.9394 33.32C46.0514 33.36 46.1434 33.38 46.2154 33.38C46.4074 33.396 46.5914 33.34 46.7674 33.212C46.9514 33.076 47.0834 32.896 47.1634 32.672L48.3994 33.152C48.2154 33.616 47.9274 33.992 47.5354 34.28C47.1434 34.56 46.7154 34.7 46.2514 34.7C46.0754 34.7 45.8594 34.664 45.6034 34.592C45.3554 34.52 45.1354 34.42 44.9434 34.292L43.9114 33.656C43.6554 33.512 43.4514 33.44 43.2994 33.44C43.1234 33.44 42.9514 33.504 42.7834 33.632C42.6234 33.752 42.5034 33.908 42.4234 34.1L41.1994 33.596ZM14.34 53.036L13.068 53.024V45.668L11.532 46.52L11.004 45.452L13.08 44.312H14.34V53.036ZM21.2516 49.676H22.3556V50.78H21.2516V53.036H19.9796V50.78H16.2236L16.1036 49.676L20.0396 44.3H21.2516V49.676ZM19.9796 49.676V46.424L17.6156 49.676H19.9796ZM24.7333 45.92C24.9413 45.92 25.1093 45.988 25.2373 46.124C25.3733 46.252 25.4413 46.42 25.4413 46.628C25.4413 46.836 25.3733 47.008 25.2373 47.144C25.1093 47.28 24.9413 47.348 24.7333 47.348C24.5253 47.348 24.3533 47.28 24.2173 47.144C24.0893 47.008 24.0253 46.836 24.0253 46.628C24.0253 46.42 24.0933 46.252 24.2293 46.124C24.3653 45.988 24.5333 45.92 24.7333 45.92ZM24.7333 49.952C24.9413 49.952 25.1093 50.02 25.2373 50.156C25.3733 50.284 25.4413 50.452 25.4413 50.66C25.4413 50.868 25.3733 51.04 25.2373 51.176C25.1093 51.312 24.9413 51.38 24.7333 51.38C24.5253 51.38 24.3533 51.312 24.2173 51.176C24.0893 51.04 24.0253 50.868 24.0253 50.66C24.0253 50.452 24.0933 50.284 24.2293 50.156C24.3653 50.02 24.5333 49.952 24.7333 49.952ZM31.7515 48.524C32.1355 48.748 32.4435 49.052 32.6755 49.436C32.9075 49.812 33.0235 50.188 33.0235 50.564C33.0235 51.052 32.8955 51.492 32.6395 51.884C32.3915 52.268 32.0435 52.568 31.5955 52.784C31.1475 53 30.6355 53.108 30.0595 53.108C29.4915 53.108 28.9835 52.996 28.5355 52.772C28.0875 52.548 27.7355 52.24 27.4795 51.848C27.2315 51.448 27.1075 50.996 27.1075 50.492H28.3795C28.3795 50.932 28.5355 51.292 28.8475 51.572C29.1595 51.844 29.5635 51.98 30.0595 51.98C30.5635 51.98 30.9755 51.844 31.2955 51.572C31.6235 51.292 31.7875 50.932 31.7875 50.492C31.7875 50.068 31.6275 49.724 31.3075 49.46C30.9875 49.188 30.5795 49.052 30.0835 49.052H29.4595V47.984H30.0955C30.5515 47.984 30.9235 47.864 31.2115 47.624C31.5075 47.376 31.6555 47.06 31.6555 46.676C31.6555 46.284 31.5155 45.968 31.2355 45.728C30.9555 45.48 30.5915 45.356 30.1435 45.356C29.7035 45.356 29.3435 45.48 29.0635 45.728C28.7835 45.976 28.6435 46.296 28.6435 46.688H27.3715C27.3715 46.208 27.4875 45.784 27.7195 45.416C27.9595 45.04 28.2875 44.748 28.7035 44.54C29.1275 44.332 29.6075 44.228 30.1435 44.228C30.6715 44.228 31.1435 44.332 31.5595 44.54C31.9755 44.74 32.2995 45.02 32.5315 45.38C32.7715 45.74 32.8915 46.148 32.8915 46.604C32.8915 46.948 32.7875 47.3 32.5795 47.66C32.3715 48.012 32.0955 48.3 31.7515 48.524ZM39.3454 49.676H40.4494V50.78H39.3454V53.036H38.0734V50.78H34.3174L34.1974 49.676L38.1334 44.3H39.3454V49.676ZM38.0734 49.676V46.424L35.7094 49.676H38.0734Z" fill="#536349"/>
</g>
<defs>
<filter id="filter0_d_174_3871" x="18.99" y="-1" width="22.02" height="22.02" filterUnits="userSpaceOnUse" color-interpolation-filters="sRGB">
<feFlood flood-opacity="0" result="BackgroundImageFix"/>
<feColorMatrix in="SourceAlpha" type="matrix" values="0 0 0 0 0 0 0 0 0 0 0 0 0 0 0 0 0 0 127 0" result="hardAlpha"/>
<feOffset dy="1.01"/>
<feGaussianBlur stdDeviation="0.505"/>
<feComposite in2="hardAlpha" operator="out"/>
<feColorMatrix type="matrix" values="0 0 0 0 1 0 0 0 0 1 0 0 0 0 1 0 0 0 0.2 0"/>
<feBlend mode="normal" in2="BackgroundImageFix" result="effect1_dropShadow_174_3871"/>
<feBlend mode="normal" in="SourceGraphic" in2="effect1_dropShadow_174_3871" result="shape"/>
</filter>
<clipPath id="clip0_174_3871">
<rect width="60" height="60" rx="5" fill="white"/>
</clipPath>
</defs>
</svg>
