<svg width="60" height="60" viewBox="0 0 60 60" fill="none" xmlns="http://www.w3.org/2000/svg">
<g clip-path="url(#clip0_174_3872)">
<rect width="60" height="60" rx="5" fill="#BBBF9A" fill-opacity="0.5"/>
<g filter="url(#filter0_d_174_3872)">
<path d="M24.4545 5.86817C25.6032 4.70454 27.1185 3.90081 28.8142 3.64247L27.133 0.9794C26.7482 0.3699 26.0758 0 25.3527 0H21.5266C21.1073 0 20.8568 0.46456 21.0884 0.81241L24.4545 5.86817Z" fill="#F8F6EF"/>
<path d="M31.2036 3.64517C32.8979 3.90727 34.4111 4.71398 35.5572 5.87988L38.3902 1.62482C38.8666 0.90929 39.1048 0.55152 38.9561 0.27576C38.8074 5.96046e-08 38.3762 0 37.5139 0H35.8288C34.6926 0 34.1245 0 33.6498 0.26114C33.1751 0.52228 32.8728 1.00113 32.2682 1.9588L31.2036 3.64517Z" fill="#F8F6EF"/>
<path fill-rule="evenodd" clip-rule="evenodd" d="M30.0001 18C33.7214 18 36.7381 14.9969 36.7381 11.2925C36.7381 7.58802 33.7214 4.58496 30.0001 4.58496C26.2789 4.58496 23.2622 7.58802 23.2622 11.2925C23.2622 14.9969 26.2789 18 30.0001 18ZM29.7911 13.0955C29.8452 13.1334 29.9035 13.1519 29.9715 13.1519C30.0633 13.1519 30.133 13.1291 30.1894 13.0899C30.2486 13.0488 30.2976 12.9894 30.3341 12.903C30.3711 12.8153 30.3926 12.7061 30.3926 12.5706C30.3926 12.3846 30.368 12.2529 30.3304 12.1645L30.3298 12.1632C30.2914 12.0709 30.2421 12.0174 30.1877 11.9859L30.1843 11.9839C30.1227 11.9466 30.0405 11.9229 29.9285 11.9229H29.6629L29.6488 11.923C29.5998 11.9231 29.5397 11.9233 29.4855 11.9081C29.3509 11.8705 29.2458 11.7653 29.2081 11.6308C29.193 11.5766 29.1931 11.5165 29.1933 11.4675L29.1933 11.4534V11.1253L29.1933 11.1073C29.193 11.0445 29.1927 10.9672 29.2175 10.8992C29.258 10.7883 29.3454 10.7009 29.4563 10.6604C29.5243 10.6356 29.6016 10.6359 29.6644 10.6362H29.6824H29.9246C30.0314 10.6362 30.101 10.6125 30.1476 10.5802C30.199 10.5418 30.2415 10.4858 30.2713 10.402C30.3036 10.3111 30.3222 10.1979 30.3222 10.0589C30.3222 9.93042 30.305 9.82642 30.2753 9.74332C30.2473 9.66482 30.2081 9.61242 30.1615 9.57642C30.1224 9.54612 30.0664 9.52452 29.9793 9.52452C29.925 9.52452 29.8752 9.53892 29.826 9.57072C29.7785 9.60132 29.736 9.64712 29.7006 9.71582L29.6991 9.71882C29.6563 9.80432 29.6215 9.87402 29.5933 9.92532C29.5789 9.95152 29.564 9.97692 29.5488 9.99942C29.5348 10.0199 29.5135 10.0487 29.4838 10.0733L29.4824 10.0744C29.4737 10.0817 29.4582 10.0945 29.4394 10.1061C29.4206 10.1177 29.4023 10.1258 29.3919 10.1303L29.3902 10.1311C29.3388 10.1538 29.2872 10.16 29.2463 10.1626C29.2068 10.1651 29.1589 10.1651 29.1073 10.1651H28.7378C28.6509 10.1652 28.5628 10.1652 28.4895 10.1529C28.4018 10.1382 28.3102 10.1024 28.2399 10.0138C28.1746 9.93152 28.1549 9.84242 28.1585 9.75392C28.1613 9.68412 28.1795 9.60612 28.1962 9.53492L28.1989 9.52302C28.2391 9.35062 28.3043 9.19042 28.3951 9.04362C28.5569 8.78167 28.7758 8.57631 29.0486 8.42963C29.322 8.28267 29.6231 8.21047 29.948 8.21047C30.3038 8.21047 30.6256 8.27775 30.9078 8.41871C31.1931 8.55856 31.4176 8.76826 31.5778 9.04402C31.7406 9.32152 31.816 9.65552 31.816 10.0354C31.816 10.2438 31.7757 10.4452 31.6957 10.6383C31.6182 10.8317 31.505 11.0054 31.3578 11.1584L31.3565 11.1598C31.3477 11.1687 31.3334 11.1955 31.3357 11.2393C31.3381 11.2831 31.3555 11.3113 31.3674 11.3215C31.3912 11.342 31.4142 11.3634 31.4364 11.3855C31.5909 11.5371 31.7057 11.7176 31.7806 11.9244C31.8546 12.1285 31.8902 12.3499 31.8902 12.5862C31.8902 12.8741 31.8422 13.1384 31.7415 13.3754C31.6422 13.6089 31.502 13.8092 31.3202 13.973C31.1411 14.1346 30.9333 14.257 30.699 14.3409L30.697 14.3417C30.4629 14.4226 30.2114 14.462 29.9441 14.462C29.7169 14.462 29.494 14.426 29.2761 14.3543C29.0558 14.2809 28.8563 14.1672 28.6803 14.0147C28.4999 13.8584 28.3593 13.6631 28.2573 13.4329C28.2055 13.3159 28.1673 13.1902 28.142 13.0566L28.1397 13.0447C28.1257 12.9709 28.1107 12.8919 28.11 12.8224C28.1091 12.7359 28.1295 12.6471 28.1964 12.5663C28.2675 12.4804 28.3587 12.4468 28.4445 12.433C28.5169 12.4213 28.6043 12.4214 28.6912 12.4214H29.0157C29.0831 12.4214 29.1458 12.4214 29.1972 12.4257C29.2508 12.4303 29.3179 12.441 29.3813 12.4794C29.3899 12.4846 29.3944 12.4876 29.4027 12.4934C29.4715 12.5414 29.5137 12.6193 29.5406 12.6718C29.5719 12.7328 29.6082 12.8149 29.6518 12.9135L29.6537 12.9179C29.6905 12.9992 29.7371 13.056 29.7911 13.0955Z" fill="#F8F6EF"/>
</g>
<path d="M13.84 38.036L12.568 38.024V30.668L11.032 31.52L10.504 30.452L12.58 29.312H13.84V38.036ZM20.7516 34.676H21.8556V35.78H20.7516V38.036H19.4796V35.78H15.7236L15.6036 34.676L19.5396 29.3H20.7516V34.676ZM19.4796 34.676V31.424L17.1156 34.676H19.4796ZM24.2333 30.92C24.4413 30.92 24.6093 30.988 24.7373 31.124C24.8733 31.252 24.9413 31.42 24.9413 31.628C24.9413 31.836 24.8733 32.008 24.7373 32.144C24.6093 32.28 24.4413 32.348 24.2333 32.348C24.0253 32.348 23.8533 32.28 23.7173 32.144C23.5893 32.008 23.5253 31.836 23.5253 31.628C23.5253 31.42 23.5933 31.252 23.7293 31.124C23.8653 30.988 24.0333 30.92 24.2333 30.92ZM24.2333 34.952C24.4413 34.952 24.6093 35.02 24.7373 35.156C24.8733 35.284 24.9413 35.452 24.9413 35.66C24.9413 35.868 24.8733 36.04 24.7373 36.176C24.6093 36.312 24.4413 36.38 24.2333 36.38C24.0253 36.38 23.8533 36.312 23.7173 36.176C23.5893 36.04 23.5253 35.868 23.5253 35.66C23.5253 35.452 23.5933 35.284 23.7293 35.156C23.8653 35.02 24.0333 34.952 24.2333 34.952ZM31.2515 33.524C31.6355 33.748 31.9435 34.052 32.1755 34.436C32.4075 34.812 32.5235 35.188 32.5235 35.564C32.5235 36.052 32.3955 36.492 32.1395 36.884C31.8915 37.268 31.5435 37.568 31.0955 37.784C30.6475 38 30.1355 38.108 29.5595 38.108C28.9915 38.108 28.4835 37.996 28.0355 37.772C27.5875 37.548 27.2355 37.24 26.9795 36.848C26.7315 36.448 26.6075 35.996 26.6075 35.492H27.8795C27.8795 35.932 28.0355 36.292 28.3475 36.572C28.6595 36.844 29.0635 36.98 29.5595 36.98C30.0635 36.98 30.4755 36.844 30.7955 36.572C31.1235 36.292 31.2875 35.932 31.2875 35.492C31.2875 35.068 31.1275 34.724 30.8075 34.46C30.4875 34.188 30.0795 34.052 29.5835 34.052H28.9595V32.984H29.5955C30.0515 32.984 30.4235 32.864 30.7115 32.624C31.0075 32.376 31.1555 32.06 31.1555 31.676C31.1555 31.284 31.0155 30.968 30.7355 30.728C30.4555 30.48 30.0915 30.356 29.6435 30.356C29.2035 30.356 28.8435 30.48 28.5635 30.728C28.2835 30.976 28.1435 31.296 28.1435 31.688H26.8715C26.8715 31.208 26.9875 30.784 27.2195 30.416C27.4595 30.04 27.7875 29.748 28.2035 29.54C28.6275 29.332 29.1075 29.228 29.6435 29.228C30.1715 29.228 30.6435 29.332 31.0595 29.54C31.4755 29.74 31.7995 30.02 32.0315 30.38C32.2715 30.74 32.3915 31.148 32.3915 31.604C32.3915 31.948 32.2875 32.3 32.0795 32.66C31.8715 33.012 31.5955 33.3 31.2515 33.524ZM34.0454 33.968L34.3454 29.3H39.0134V30.416H35.5694L35.4254 32.552C35.8494 32.36 36.2614 32.264 36.6614 32.264C37.2534 32.264 37.7814 32.388 38.2454 32.636C38.7174 32.884 39.0814 33.232 39.3374 33.68C39.6014 34.12 39.7334 34.624 39.7334 35.192C39.7334 35.768 39.6014 36.28 39.3374 36.728C39.0814 37.176 38.7174 37.528 38.2454 37.784C37.7814 38.032 37.2534 38.156 36.6614 38.156C36.1974 38.156 35.7574 38.06 35.3414 37.868C34.9334 37.668 34.5854 37.396 34.2974 37.052C34.0094 36.7 33.8134 36.304 33.7094 35.864L34.9454 35.576C35.0334 35.976 35.2374 36.308 35.5574 36.572C35.8774 36.828 36.2454 36.956 36.6614 36.956C37.1894 36.956 37.6214 36.792 37.9574 36.464C38.2934 36.136 38.4614 35.712 38.4614 35.192C38.4614 34.688 38.2934 34.276 37.9574 33.956C37.6214 33.628 37.1894 33.464 36.6614 33.464C36.4374 33.464 36.2014 33.528 35.9534 33.656C35.7054 33.776 35.4934 33.932 35.3174 34.124L34.0454 33.968ZM41.1681 33.596C41.3521 33.156 41.6361 32.8 42.0201 32.528C42.4121 32.256 42.8321 32.12 43.2801 32.12C43.4641 32.12 43.6801 32.16 43.9281 32.24C44.1841 32.32 44.4041 32.42 44.5881 32.54L45.5961 33.164C45.6921 33.228 45.7961 33.28 45.9081 33.32C46.0201 33.36 46.1121 33.38 46.1841 33.38C46.3761 33.396 46.5601 33.34 46.7361 33.212C46.9201 33.076 47.0521 32.896 47.1321 32.672L48.3681 33.152C48.1841 33.616 47.8961 33.992 47.5041 34.28C47.1121 34.56 46.6841 34.7 46.2201 34.7C46.0441 34.7 45.8281 34.664 45.5721 34.592C45.3241 34.52 45.1041 34.42 44.9121 34.292L43.8801 33.656C43.6241 33.512 43.4201 33.44 43.2681 33.44C43.0921 33.44 42.9201 33.504 42.7521 33.632C42.5921 33.752 42.4721 33.908 42.3921 34.1L41.1681 33.596ZM13.84 53.036L12.568 53.024V45.668L11.032 46.52L10.504 45.452L12.58 44.312H13.84V53.036ZM15.9516 48.968L16.2516 44.3H20.9196V45.416H17.4756L17.3316 47.552C17.7556 47.36 18.1676 47.264 18.5676 47.264C19.1596 47.264 19.6876 47.388 20.1516 47.636C20.6236 47.884 20.9876 48.232 21.2436 48.68C21.5076 49.12 21.6396 49.624 21.6396 50.192C21.6396 50.768 21.5076 51.28 21.2436 51.728C20.9876 52.176 20.6236 52.528 20.1516 52.784C19.6876 53.032 19.1596 53.156 18.5676 53.156C18.1036 53.156 17.6636 53.06 17.2476 52.868C16.8396 52.668 16.4916 52.396 16.2036 52.052C15.9156 51.7 15.7196 51.304 15.6156 50.864L16.8516 50.576C16.9396 50.976 17.1436 51.308 17.4636 51.572C17.7836 51.828 18.1516 51.956 18.5676 51.956C19.0956 51.956 19.5276 51.792 19.8636 51.464C20.1996 51.136 20.3676 50.712 20.3676 50.192C20.3676 49.688 20.1996 49.276 19.8636 48.956C19.5276 48.628 19.0956 48.464 18.5676 48.464C18.3436 48.464 18.1076 48.528 17.8596 48.656C17.6116 48.776 17.3996 48.932 17.2236 49.124L15.9516 48.968ZM24.0224 45.92C24.2304 45.92 24.3984 45.988 24.5264 46.124C24.6624 46.252 24.7304 46.42 24.7304 46.628C24.7304 46.836 24.6624 47.008 24.5264 47.144C24.3984 47.28 24.2304 47.348 24.0224 47.348C23.8144 47.348 23.6424 47.28 23.5064 47.144C23.3784 47.008 23.3144 46.836 23.3144 46.628C23.3144 46.42 23.3824 46.252 23.5184 46.124C23.6544 45.988 23.8224 45.92 24.0224 45.92ZM24.0224 49.952C24.2304 49.952 24.3984 50.02 24.5264 50.156C24.6624 50.284 24.7304 50.452 24.7304 50.66C24.7304 50.868 24.6624 51.04 24.5264 51.176C24.3984 51.312 24.2304 51.38 24.0224 51.38C23.8144 51.38 23.6424 51.312 23.5064 51.176C23.3784 51.04 23.3144 50.868 23.3144 50.66C23.3144 50.452 23.3824 50.284 23.5184 50.156C23.6544 50.02 23.8224 49.952 24.0224 49.952ZM31.0406 48.524C31.4246 48.748 31.7326 49.052 31.9646 49.436C32.1966 49.812 32.3126 50.188 32.3126 50.564C32.3126 51.052 32.1846 51.492 31.9286 51.884C31.6806 52.268 31.3326 52.568 30.8846 52.784C30.4366 53 29.9246 53.108 29.3486 53.108C28.7806 53.108 28.2726 52.996 27.8246 52.772C27.3766 52.548 27.0246 52.24 26.7686 51.848C26.5206 51.448 26.3966 50.996 26.3966 50.492H27.6686C27.6686 50.932 27.8246 51.292 28.1366 51.572C28.4486 51.844 28.8526 51.98 29.3486 51.98C29.8526 51.98 30.2646 51.844 30.5846 51.572C30.9126 51.292 31.0766 50.932 31.0766 50.492C31.0766 50.068 30.9166 49.724 30.5966 49.46C30.2766 49.188 29.8686 49.052 29.3726 49.052H28.7486V47.984H29.3846C29.8406 47.984 30.2126 47.864 30.5006 47.624C30.7966 47.376 30.9446 47.06 30.9446 46.676C30.9446 46.284 30.8046 45.968 30.5246 45.728C30.2446 45.48 29.8806 45.356 29.4326 45.356C28.9926 45.356 28.6326 45.48 28.3526 45.728C28.0726 45.976 27.9326 46.296 27.9326 46.688H26.6606C26.6606 46.208 26.7766 45.784 27.0086 45.416C27.2486 45.04 27.5766 44.748 27.9926 44.54C28.4166 44.332 28.8966 44.228 29.4326 44.228C29.9606 44.228 30.4326 44.332 30.8486 44.54C31.2646 44.74 31.5886 45.02 31.8206 45.38C32.0606 45.74 32.1806 46.148 32.1806 46.604C32.1806 46.948 32.0766 47.3 31.8686 47.66C31.6606 48.012 31.3846 48.3 31.0406 48.524ZM36.4984 52.004C37.0104 52.004 37.4304 51.836 37.7584 51.5C38.0944 51.164 38.2624 50.736 38.2624 50.216C38.2624 49.68 38.0984 49.244 37.7704 48.908C37.4424 48.572 37.0184 48.404 36.4984 48.404C35.9864 48.404 35.5664 48.572 35.2384 48.908C34.9184 49.244 34.7584 49.68 34.7584 50.216C34.7584 50.736 34.9184 51.164 35.2384 51.5C35.5664 51.836 35.9864 52.004 36.4984 52.004ZM33.4864 50.216C33.4864 49.696 33.6464 49.14 33.9664 48.548L36.3664 44.276H37.8304L36.0904 47.336C36.2824 47.304 36.4304 47.288 36.5344 47.288C37.1184 47.288 37.6344 47.416 38.0824 47.672C38.5384 47.92 38.8944 48.264 39.1504 48.704C39.4064 49.144 39.5344 49.648 39.5344 50.216C39.5344 50.776 39.4064 51.276 39.1504 51.716C38.8944 52.156 38.5344 52.5 38.0704 52.748C37.6144 52.996 37.0944 53.12 36.5104 53.12C35.9264 53.12 35.4024 52.996 34.9384 52.748C34.4824 52.5 34.1264 52.156 33.8704 51.716C33.6144 51.276 33.4864 50.776 33.4864 50.216Z" fill="#536349"/>
</g>
<defs>
<filter id="filter0_d_174_3872" x="18.99" y="-1" width="22.02" height="22.02" filterUnits="userSpaceOnUse" color-interpolation-filters="sRGB">
<feFlood flood-opacity="0" result="BackgroundImageFix"/>
<feColorMatrix in="SourceAlpha" type="matrix" values="0 0 0 0 0 0 0 0 0 0 0 0 0 0 0 0 0 0 127 0" result="hardAlpha"/>
<feOffset dy="1.01"/>
<feGaussianBlur stdDeviation="0.505"/>
<feComposite in2="hardAlpha" operator="out"/>
<feColorMatrix type="matrix" values="0 0 0 0 1 0 0 0 0 1 0 0 0 0 1 0 0 0 0.2 0"/>
<feBlend mode="normal" in2="BackgroundImageFix" result="effect1_dropShadow_174_3872"/>
<feBlend mode="normal" in="SourceGraphic" in2="effect1_dropShadow_174_3872" result="shape"/>
</filter>
<clipPath id="clip0_174_3872">
<rect width="60" height="60" rx="5" fill="white"/>
</clipPath>
</defs>
</svg>
