<svg width="60" height="60" viewBox="0 0 60 60" fill="none" xmlns="http://www.w3.org/2000/svg">
<g clip-path="url(#clip0_174_3310)">
<rect width="60" height="60" rx="5" fill="#BBBF9A" fill-opacity="0.5"/>
<g filter="url(#filter0_d_174_3310)">
<path d="M24.4545 5.86817C25.6032 4.70454 27.1185 3.90081 28.8142 3.64247L27.133 0.9794C26.7482 0.3699 26.0758 0 25.3527 0H21.5266C21.1073 0 20.8568 0.46456 21.0884 0.81241L24.4545 5.86817Z" fill="#F8F6EF"/>
<path d="M31.2031 3.64517C32.8974 3.90727 34.4106 4.71398 35.5567 5.87988L38.3897 1.62482C38.8661 0.90929 39.1043 0.55152 38.9556 0.27576C38.8069 5.96046e-08 38.3757 0 37.5134 0H35.8283C34.6921 0 34.124 0 33.6493 0.26114C33.1746 0.52228 32.8723 1.00113 32.2677 1.9588L31.2031 3.64517Z" fill="#F8F6EF"/>
<path fill-rule="evenodd" clip-rule="evenodd" d="M29.9996 18C33.7209 18 36.7376 14.9969 36.7376 11.2925C36.7376 7.58802 33.7209 4.58496 29.9996 4.58496C26.2784 4.58496 23.2617 7.58802 23.2617 11.2925C23.2617 14.9969 26.2784 18 29.9996 18ZM30.852 13.8324V8.62015C30.852 8.45564 30.7186 8.32229 30.5541 8.32229C30.5153 8.32229 30.4768 8.32988 30.4409 8.34465L28.6368 9.08612C28.5832 9.10812 28.5292 9.13032 28.4852 9.15422C28.4349 9.18172 28.3814 9.21962 28.34 9.28132C28.2987 9.34292 28.2839 9.40682 28.2777 9.46382C28.2723 9.51372 28.2723 9.57202 28.2723 9.63002V9.71572C28.2723 9.83582 28.2723 9.94732 28.2852 10.0354C28.2993 10.1309 28.3347 10.2457 28.4451 10.3219L28.4467 10.323C28.5575 10.3986 28.6773 10.3905 28.7715 10.3693C28.8584 10.3497 28.9624 10.3097 29.0746 10.2665L29.0871 10.2617C29.2162 10.212 29.2922 10.1833 29.3468 10.171L29.3492 10.1704L29.3496 10.1729C29.3577 10.2282 29.3583 10.3095 29.3583 10.4478L29.3582 13.8324C29.3582 13.9172 29.3582 13.9996 29.3674 14.0676C29.3777 14.1442 29.4028 14.2317 29.4754 14.3043C29.5481 14.377 29.6355 14.4021 29.7121 14.4124C29.7801 14.4215 29.8625 14.4215 29.9474 14.4215H30.2629C30.3477 14.4215 30.4301 14.4215 30.4981 14.4124C30.5747 14.4021 30.6622 14.377 30.7348 14.3043C30.8075 14.2317 30.8326 14.1442 30.8429 14.0676C30.852 13.9996 30.852 13.9172 30.852 13.8324Z" fill="#F8F6EF"/>
</g>
<path d="M9.596 40.07L13.586 31.11L8.91 31.124V29.808H15.07L15.21 31.11L11.22 40.07H9.596ZM20.074 38.936C20.6527 38.936 21.124 38.768 21.488 38.432C21.8613 38.096 22.048 37.662 22.048 37.13C22.048 36.598 21.8613 36.164 21.488 35.828C21.124 35.4827 20.6527 35.31 20.074 35.31C19.4953 35.31 19.0193 35.4827 18.646 35.828C18.2727 36.164 18.086 36.598 18.086 37.13C18.086 37.662 18.2727 38.096 18.646 38.432C19.0193 38.768 19.4953 38.936 20.074 38.936ZM18.38 32.482C18.38 32.9393 18.5387 33.3127 18.856 33.602C19.1733 33.8913 19.5793 34.036 20.074 34.036C20.578 34.036 20.9887 33.8913 21.306 33.602C21.6233 33.3127 21.782 32.9393 21.782 32.482C21.782 32.0247 21.6233 31.656 21.306 31.376C20.9887 31.0867 20.578 30.942 20.074 30.942C19.5793 30.942 19.1733 31.0867 18.856 31.376C18.5387 31.656 18.38 32.0247 18.38 32.482ZM21.866 34.68C22.3607 34.96 22.762 35.3333 23.07 35.8C23.3873 36.2573 23.546 36.71 23.546 37.158C23.546 37.746 23.3967 38.2733 23.098 38.74C22.8087 39.1973 22.398 39.5567 21.866 39.818C21.3433 40.0793 20.746 40.21 20.074 40.21C19.402 40.21 18.8 40.0793 18.268 39.818C17.7453 39.5567 17.3347 39.1973 17.036 38.74C16.7467 38.2733 16.602 37.746 16.602 37.158C16.602 36.71 16.7607 36.2527 17.078 35.786C17.3953 35.3193 17.7967 34.9507 18.282 34.68C17.8713 34.4 17.5353 34.0547 17.274 33.644C17.0127 33.2333 16.882 32.846 16.882 32.482C16.882 31.9407 17.0173 31.46 17.288 31.04C17.5587 30.6107 17.9367 30.2793 18.422 30.046C18.9073 29.8033 19.458 29.682 20.074 29.682C20.69 29.682 21.2407 29.8033 21.726 30.046C22.2113 30.2793 22.5893 30.6107 22.86 31.04C23.1307 31.46 23.266 31.9407 23.266 32.482C23.266 32.8553 23.1353 33.2473 22.874 33.658C22.6127 34.0687 22.2767 34.4093 21.866 34.68ZM25.2085 34.862C25.4232 34.3487 25.7545 33.9333 26.2025 33.616C26.6598 33.2987 27.1498 33.14 27.6725 33.14C27.8872 33.14 28.1392 33.1867 28.4285 33.28C28.7272 33.3733 28.9838 33.49 29.1985 33.63L30.3745 34.358C30.4865 34.4327 30.6078 34.4933 30.7385 34.54C30.8692 34.5867 30.9765 34.61 31.0605 34.61C31.2845 34.6287 31.4992 34.5633 31.7045 34.414C31.9192 34.2553 32.0732 34.0453 32.1665 33.784L33.6085 34.344C33.3938 34.8853 33.0578 35.324 32.6005 35.66C32.1432 35.9867 31.6438 36.15 31.1025 36.15C30.8972 36.15 30.6452 36.108 30.3465 36.024C30.0572 35.94 29.8005 35.8233 29.5765 35.674L28.3725 34.932C28.0738 34.764 27.8358 34.68 27.6585 34.68C27.4532 34.68 27.2525 34.7547 27.0565 34.904C26.8698 35.044 26.7298 35.226 26.6365 35.45L25.2085 34.862ZM38.8045 38.936C39.3832 38.936 39.8545 38.768 40.2185 38.432C40.5918 38.096 40.7785 37.662 40.7785 37.13C40.7785 36.598 40.5918 36.164 40.2185 35.828C39.8545 35.4827 39.3832 35.31 38.8045 35.31C38.2258 35.31 37.7498 35.4827 37.3765 35.828C37.0032 36.164 36.8165 36.598 36.8165 37.13C36.8165 37.662 37.0032 38.096 37.3765 38.432C37.7498 38.768 38.2258 38.936 38.8045 38.936ZM37.1105 32.482C37.1105 32.9393 37.2692 33.3127 37.5865 33.602C37.9038 33.8913 38.3098 34.036 38.8045 34.036C39.3085 34.036 39.7192 33.8913 40.0365 33.602C40.3538 33.3127 40.5125 32.9393 40.5125 32.482C40.5125 32.0247 40.3538 31.656 40.0365 31.376C39.7192 31.0867 39.3085 30.942 38.8045 30.942C38.3098 30.942 37.9038 31.0867 37.5865 31.376C37.2692 31.656 37.1105 32.0247 37.1105 32.482ZM40.5965 34.68C41.0912 34.96 41.4925 35.3333 41.8005 35.8C42.1178 36.2573 42.2765 36.71 42.2765 37.158C42.2765 37.746 42.1272 38.2733 41.8285 38.74C41.5392 39.1973 41.1285 39.5567 40.5965 39.818C40.0738 40.0793 39.4765 40.21 38.8045 40.21C38.1325 40.21 37.5305 40.0793 36.9985 39.818C36.4758 39.5567 36.0652 39.1973 35.7665 38.74C35.4772 38.2733 35.3325 37.746 35.3325 37.158C35.3325 36.71 35.4912 36.2527 35.8085 35.786C36.1258 35.3193 36.5272 34.9507 37.0125 34.68C36.6018 34.4 36.2658 34.0547 36.0045 33.644C35.7432 33.2333 35.6125 32.846 35.6125 32.482C35.6125 31.9407 35.7478 31.46 36.0185 31.04C36.2892 30.6107 36.6672 30.2793 37.1525 30.046C37.6378 29.8033 38.1885 29.682 38.8045 29.682C39.4205 29.682 39.9712 29.8033 40.4565 30.046C40.9418 30.2793 41.3198 30.6107 41.5905 31.04C41.8612 31.46 41.9965 31.9407 41.9965 32.482C41.9965 32.8553 41.8658 33.2473 41.6045 33.658C41.3432 34.0687 41.0072 34.4093 40.5965 34.68ZM44.051 35.296L44.401 29.85H49.847V31.152H45.829L45.661 33.644C46.1557 33.42 46.6363 33.308 47.103 33.308C47.7937 33.308 48.4097 33.4527 48.951 33.742C49.5017 34.0313 49.9263 34.4373 50.225 34.96C50.533 35.4733 50.687 36.0613 50.687 36.724C50.687 37.396 50.533 37.9933 50.225 38.516C49.9263 39.0387 49.5017 39.4493 48.951 39.748C48.4097 40.0373 47.7937 40.182 47.103 40.182C46.5617 40.182 46.0483 40.07 45.563 39.846C45.087 39.6127 44.681 39.2953 44.345 38.894C44.009 38.4833 43.7803 38.0213 43.659 37.508L45.101 37.172C45.2037 37.6387 45.4417 38.026 45.815 38.334C46.1883 38.6327 46.6177 38.782 47.103 38.782C47.719 38.782 48.223 38.5907 48.615 38.208C49.007 37.8253 49.203 37.3307 49.203 36.724C49.203 36.136 49.007 35.6553 48.615 35.282C48.223 34.8993 47.719 34.708 47.103 34.708C46.8417 34.708 46.5663 34.7827 46.277 34.932C45.9877 35.072 45.7403 35.254 45.535 35.478L44.051 35.296Z" fill="#536349"/>
</g>
<defs>
<filter id="filter0_d_174_3310" x="18.9873" y="-1" width="22.0253" height="22.0253" filterUnits="userSpaceOnUse" color-interpolation-filters="sRGB">
<feFlood flood-opacity="0" result="BackgroundImageFix"/>
<feColorMatrix in="SourceAlpha" type="matrix" values="0 0 0 0 0 0 0 0 0 0 0 0 0 0 0 0 0 0 127 0" result="hardAlpha"/>
<feOffset dy="1.01266"/>
<feGaussianBlur stdDeviation="0.506329"/>
<feComposite in2="hardAlpha" operator="out"/>
<feColorMatrix type="matrix" values="0 0 0 0 1 0 0 0 0 1 0 0 0 0 1 0 0 0 0.2 0"/>
<feBlend mode="normal" in2="BackgroundImageFix" result="effect1_dropShadow_174_3310"/>
<feBlend mode="normal" in="SourceGraphic" in2="effect1_dropShadow_174_3310" result="shape"/>
</filter>
<clipPath id="clip0_174_3310">
<rect width="60" height="60" rx="5" fill="white"/>
</clipPath>
</defs>
</svg>
