<svg width="60" height="60" viewBox="0 0 60 60" fill="none" xmlns="http://www.w3.org/2000/svg">
<g clip-path="url(#clip0_174_3309)">
<rect width="60" height="60" rx="5" fill="#BBBF9A" fill-opacity="0.5"/>
<g filter="url(#filter0_d_174_3309)">
<path d="M24.4545 5.86817C25.6032 4.70454 27.1185 3.90081 28.8142 3.64247L27.133 0.9794C26.7482 0.3699 26.0758 0 25.3527 0H21.5266C21.1073 0 20.8568 0.46456 21.0884 0.81241L24.3889 5.76965C24.4113 5.80336 24.4332 5.8362 24.4545 5.86817Z" fill="#F8F6EF"/>
<path d="M31.2036 3.64517C32.8979 3.90727 34.4111 4.71398 35.5572 5.87988C35.581 5.84424 35.6054 5.8075 35.6306 5.76966L38.3902 1.62482C38.8666 0.90929 39.1048 0.55152 38.9561 0.27576C38.8074 5.96046e-08 38.3762 0 37.5139 0H35.8288C34.6926 0 34.1245 0 33.6498 0.26114C33.1751 0.52228 32.8728 1.00113 32.2682 1.9588L31.2036 3.64517Z" fill="#F8F6EF"/>
<path fill-rule="evenodd" clip-rule="evenodd" d="M36.7381 11.2925C36.7381 14.9969 33.7214 18 30.0001 18C26.2789 18 23.2622 14.9969 23.2622 11.2925C23.2622 7.58802 26.2789 4.58496 30.0001 4.58496C33.7214 4.58496 36.7381 7.58802 36.7381 11.2925ZM30.0098 8.44071C29.873 8.44071 29.7901 8.62461 29.6243 8.99239L29.5638 9.12642C29.3243 9.65752 29.2046 9.92312 28.9801 10.0872C28.7556 10.2512 28.4652 10.2854 27.8845 10.3539L27.7416 10.3707C27.352 10.4166 27.1573 10.4395 27.1152 10.5669C27.0731 10.6942 27.216 10.8278 27.502 11.0951L27.5512 11.1411C28.0105 11.5704 28.2402 11.7851 28.3188 12.0711C28.3975 12.3571 28.3097 12.6583 28.1341 13.2607L28.0594 13.5171C27.9432 13.9155 27.8852 14.1147 27.9919 14.2028C28.0986 14.2908 28.2845 14.1971 28.6562 14.0095L29.0643 13.8037C29.5282 13.5697 29.7602 13.4526 30.0103 13.4516C30.2604 13.4506 30.4933 13.5658 30.9591 13.7961L31.3664 13.9974C31.7373 14.1807 31.9227 14.2724 32.0286 14.1841C32.1345 14.0957 32.0763 13.898 31.9599 13.5024L31.8896 13.2632C31.712 12.6597 31.6232 12.3579 31.7017 12.0711C31.7802 11.7844 32.0105 11.5691 32.471 11.1387L32.5176 11.0951C32.8036 10.8278 32.9465 10.6942 32.9044 10.5669C32.8623 10.4395 32.6675 10.4166 32.278 10.3707L32.135 10.3539C31.5543 10.2854 31.264 10.2512 31.0395 10.0872C30.815 9.92312 30.6952 9.65752 30.4558 9.12642L30.3953 8.99239C30.2295 8.62461 30.1465 8.44071 30.0098 8.44071Z" fill="#F8F6EF"/>
</g>
<path d="M20.158 38.936C20.7367 38.936 21.208 38.768 21.572 38.432C21.9453 38.096 22.132 37.662 22.132 37.13C22.132 36.598 21.9453 36.164 21.572 35.828C21.208 35.4827 20.7367 35.31 20.158 35.31C19.5793 35.31 19.1033 35.4827 18.73 35.828C18.3567 36.164 18.17 36.598 18.17 37.13C18.17 37.662 18.3567 38.096 18.73 38.432C19.1033 38.768 19.5793 38.936 20.158 38.936ZM18.464 32.482C18.464 32.9393 18.6227 33.3127 18.94 33.602C19.2573 33.8913 19.6633 34.036 20.158 34.036C20.662 34.036 21.0727 33.8913 21.39 33.602C21.7073 33.3127 21.866 32.9393 21.866 32.482C21.866 32.0247 21.7073 31.656 21.39 31.376C21.0727 31.0867 20.662 30.942 20.158 30.942C19.6633 30.942 19.2573 31.0867 18.94 31.376C18.6227 31.656 18.464 32.0247 18.464 32.482ZM21.95 34.68C22.4447 34.96 22.846 35.3333 23.154 35.8C23.4713 36.2573 23.63 36.71 23.63 37.158C23.63 37.746 23.4807 38.2733 23.182 38.74C22.8927 39.1973 22.482 39.5567 21.95 39.818C21.4273 40.0793 20.83 40.21 20.158 40.21C19.486 40.21 18.884 40.0793 18.352 39.818C17.8293 39.5567 17.4187 39.1973 17.12 38.74C16.8307 38.2733 16.686 37.746 16.686 37.158C16.686 36.71 16.8447 36.2527 17.162 35.786C17.4793 35.3193 17.8807 34.9507 18.366 34.68C17.9553 34.4 17.6193 34.0547 17.358 33.644C17.0967 33.2333 16.966 32.846 16.966 32.482C16.966 31.9407 17.1013 31.46 17.372 31.04C17.6427 30.6107 18.0207 30.2793 18.506 30.046C18.9913 29.8033 19.542 29.682 20.158 29.682C20.774 29.682 21.3247 29.8033 21.81 30.046C22.2953 30.2793 22.6733 30.6107 22.944 31.04C23.2147 31.46 23.35 31.9407 23.35 32.482C23.35 32.8553 23.2193 33.2473 22.958 33.658C22.6967 34.0687 22.3607 34.4093 21.95 34.68ZM28.5125 38.838C29.1098 38.838 29.5998 38.642 29.9825 38.25C30.3745 37.858 30.5705 37.3587 30.5705 36.752C30.5705 36.1267 30.3792 35.618 29.9965 35.226C29.6138 34.834 29.1192 34.638 28.5125 34.638C27.9152 34.638 27.4252 34.834 27.0425 35.226C26.6692 35.618 26.4825 36.1267 26.4825 36.752C26.4825 37.3587 26.6692 37.858 27.0425 38.25C27.4252 38.642 27.9152 38.838 28.5125 38.838ZM24.9985 36.752C24.9985 36.1453 25.1852 35.4967 25.5585 34.806L28.3585 29.822H30.0665L28.0365 33.392C28.2605 33.3547 28.4332 33.336 28.5545 33.336C29.2358 33.336 29.8378 33.4853 30.3605 33.784C30.8925 34.0733 31.3078 34.4747 31.6065 34.988C31.9052 35.5013 32.0545 36.0893 32.0545 36.752C32.0545 37.4053 31.9052 37.9887 31.6065 38.502C31.3078 39.0153 30.8878 39.4167 30.3465 39.706C29.8145 39.9953 29.2078 40.14 28.5265 40.14C27.8452 40.14 27.2338 39.9953 26.6925 39.706C26.1605 39.4167 25.7452 39.0153 25.4465 38.502C25.1478 37.9887 24.9985 37.4053 24.9985 36.752ZM33.7144 34.862C33.929 34.3487 34.2604 33.9333 34.7084 33.616C35.1657 33.2987 35.6557 33.14 36.1784 33.14C36.393 33.14 36.645 33.1867 36.9344 33.28C37.233 33.3733 37.4897 33.49 37.7044 33.63L38.8804 34.358C38.9924 34.4327 39.1137 34.4933 39.2444 34.54C39.375 34.5867 39.4824 34.61 39.5664 34.61C39.7904 34.6287 40.005 34.5633 40.2104 34.414C40.425 34.2553 40.579 34.0453 40.6724 33.784L42.1144 34.344C41.8997 34.8853 41.5637 35.324 41.1064 35.66C40.649 35.9867 40.1497 36.15 39.6084 36.15C39.403 36.15 39.151 36.108 38.8524 36.024C38.563 35.94 38.3064 35.8233 38.0824 35.674L36.8784 34.932C36.5797 34.764 36.3417 34.68 36.1644 34.68C35.959 34.68 35.7584 34.7547 35.5624 34.904C35.3757 35.044 35.2357 35.226 35.1424 35.45L33.7144 34.862Z" fill="#536349"/>
</g>
<defs>
<filter id="filter0_d_174_3309" x="18.99" y="-1" width="22.02" height="22.02" filterUnits="userSpaceOnUse" color-interpolation-filters="sRGB">
<feFlood flood-opacity="0" result="BackgroundImageFix"/>
<feColorMatrix in="SourceAlpha" type="matrix" values="0 0 0 0 0 0 0 0 0 0 0 0 0 0 0 0 0 0 127 0" result="hardAlpha"/>
<feOffset dy="1.01"/>
<feGaussianBlur stdDeviation="0.505"/>
<feComposite in2="hardAlpha" operator="out"/>
<feColorMatrix type="matrix" values="0 0 0 0 1 0 0 0 0 1 0 0 0 0 1 0 0 0 0.2 0"/>
<feBlend mode="normal" in2="BackgroundImageFix" result="effect1_dropShadow_174_3309"/>
<feBlend mode="normal" in="SourceGraphic" in2="effect1_dropShadow_174_3309" result="shape"/>
</filter>
<clipPath id="clip0_174_3309">
<rect width="60" height="60" rx="5" fill="white"/>
</clipPath>
</defs>
</svg>
