<svg width="60" height="60" viewBox="0 0 60 60" fill="none" xmlns="http://www.w3.org/2000/svg">
<g clip-path="url(#clip0_174_3312)">
<rect width="60" height="60" rx="5" fill="#BBBF9A" fill-opacity="0.5"/>
<g filter="url(#filter0_d_174_3312)">
<path d="M24.4545 5.86817C25.6032 4.70454 27.1185 3.90081 28.8142 3.64247L27.133 0.9794C26.7482 0.3699 26.0758 0 25.3527 0H21.5266C21.1073 0 20.8568 0.46456 21.0884 0.81241L24.4545 5.86817Z" fill="#F8F6EF"/>
<path d="M31.2036 3.64517C32.8979 3.90727 34.4111 4.71398 35.5572 5.87988L38.3902 1.62482C38.8666 0.90929 39.1048 0.55152 38.9561 0.27576C38.8074 5.96046e-08 38.3762 0 37.5139 0H35.8288C34.6926 0 34.1245 0 33.6498 0.26114C33.1751 0.52228 32.8728 1.00113 32.2682 1.9588L31.2036 3.64517Z" fill="#F8F6EF"/>
<path fill-rule="evenodd" clip-rule="evenodd" d="M30.0001 18C33.7214 18 36.7381 14.9969 36.7381 11.2925C36.7381 7.58802 33.7214 4.58496 30.0001 4.58496C26.2789 4.58496 23.2622 7.58802 23.2622 11.2925C23.2622 14.9969 26.2789 18 30.0001 18ZM29.7911 13.0955C29.8452 13.1334 29.9035 13.1519 29.9715 13.1519C30.0633 13.1519 30.133 13.1291 30.1894 13.0899C30.2486 13.0488 30.2976 12.9894 30.3341 12.903C30.3711 12.8153 30.3926 12.7061 30.3926 12.5706C30.3926 12.3846 30.368 12.2529 30.3304 12.1645L30.3298 12.1632C30.2914 12.0709 30.2421 12.0174 30.1877 11.9859L30.1843 11.9839C30.1227 11.9466 30.0405 11.9229 29.9285 11.9229H29.6629L29.6488 11.923C29.5998 11.9231 29.5397 11.9233 29.4855 11.9081C29.3509 11.8705 29.2458 11.7653 29.2081 11.6308C29.193 11.5766 29.1931 11.5165 29.1933 11.4675L29.1933 11.4534V11.1253L29.1933 11.1073C29.193 11.0445 29.1927 10.9672 29.2175 10.8992C29.258 10.7883 29.3454 10.7009 29.4563 10.6604C29.5243 10.6356 29.6016 10.6359 29.6644 10.6362H29.6824H29.9246C30.0314 10.6362 30.101 10.6125 30.1476 10.5802C30.199 10.5418 30.2415 10.4858 30.2713 10.402C30.3036 10.3111 30.3222 10.1979 30.3222 10.0589C30.3222 9.93042 30.305 9.82642 30.2753 9.74332C30.2473 9.66482 30.2081 9.61242 30.1615 9.57642C30.1224 9.54612 30.0664 9.52452 29.9793 9.52452C29.925 9.52452 29.8752 9.53892 29.826 9.57072C29.7785 9.60132 29.736 9.64712 29.7006 9.71582L29.6991 9.71882C29.6563 9.80432 29.6215 9.87402 29.5933 9.92532C29.5789 9.95152 29.564 9.97692 29.5488 9.99942C29.5348 10.0199 29.5135 10.0487 29.4838 10.0733L29.4824 10.0744C29.4737 10.0817 29.4582 10.0945 29.4394 10.1061C29.4206 10.1177 29.4023 10.1258 29.3919 10.1303L29.3902 10.1311C29.3388 10.1538 29.2872 10.16 29.2463 10.1626C29.2068 10.1651 29.1589 10.1651 29.1073 10.1651H28.7378C28.6509 10.1652 28.5628 10.1652 28.4895 10.1529C28.4018 10.1382 28.3102 10.1024 28.2399 10.0138C28.1746 9.93152 28.1549 9.84242 28.1585 9.75392C28.1613 9.68412 28.1795 9.60612 28.1962 9.53492L28.1989 9.52302C28.2391 9.35062 28.3043 9.19042 28.3951 9.04362C28.5569 8.78167 28.7758 8.57631 29.0486 8.42963C29.322 8.28267 29.6231 8.21047 29.948 8.21047C30.3038 8.21047 30.6256 8.27775 30.9078 8.41871C31.1931 8.55856 31.4176 8.76826 31.5778 9.04402C31.7406 9.32152 31.816 9.65552 31.816 10.0354C31.816 10.2438 31.7757 10.4452 31.6957 10.6383C31.6182 10.8317 31.505 11.0054 31.3578 11.1584L31.3565 11.1598C31.3477 11.1687 31.3334 11.1955 31.3357 11.2393C31.3381 11.2831 31.3555 11.3113 31.3674 11.3215C31.3912 11.342 31.4142 11.3634 31.4364 11.3855C31.5909 11.5371 31.7057 11.7176 31.7806 11.9244C31.8546 12.1285 31.8902 12.3499 31.8902 12.5862C31.8902 12.8741 31.8422 13.1384 31.7415 13.3754C31.6422 13.6089 31.502 13.8092 31.3202 13.973C31.1411 14.1346 30.9333 14.257 30.699 14.3409L30.697 14.3417C30.4629 14.4226 30.2114 14.462 29.9441 14.462C29.7169 14.462 29.494 14.426 29.2761 14.3543C29.0558 14.2809 28.8563 14.1672 28.6803 14.0147C28.4999 13.8584 28.3593 13.6631 28.2573 13.4329C28.2055 13.3159 28.1673 13.1902 28.142 13.0566L28.1397 13.0447C28.1257 12.9709 28.1107 12.8919 28.11 12.8224C28.1091 12.7359 28.1295 12.6471 28.1964 12.5663C28.2675 12.4804 28.3587 12.4468 28.4445 12.433C28.5169 12.4213 28.6043 12.4214 28.6912 12.4214H29.0157C29.0831 12.4214 29.1458 12.4214 29.1972 12.4257C29.2508 12.4303 29.3179 12.441 29.3813 12.4794C29.3899 12.4846 29.3944 12.4876 29.4027 12.4934C29.4715 12.5414 29.5137 12.6193 29.5406 12.6718C29.5719 12.7328 29.6082 12.8149 29.6518 12.9135L29.6537 12.9179C29.6905 12.9992 29.7371 13.056 29.7911 13.0955Z" fill="#F8F6EF"/>
</g>
<path d="M12.2 38.838C12.7973 38.838 13.2873 38.642 13.67 38.25C14.062 37.858 14.258 37.3587 14.258 36.752C14.258 36.1267 14.0667 35.618 13.684 35.226C13.3013 34.834 12.8067 34.638 12.2 34.638C11.6027 34.638 11.1127 34.834 10.73 35.226C10.3567 35.618 10.17 36.1267 10.17 36.752C10.17 37.3587 10.3567 37.858 10.73 38.25C11.1127 38.642 11.6027 38.838 12.2 38.838ZM8.686 36.752C8.686 36.1453 8.87267 35.4967 9.246 34.806L12.046 29.822H13.754L11.724 33.392C11.948 33.3547 12.1207 33.336 12.242 33.336C12.9233 33.336 13.5253 33.4853 14.048 33.784C14.58 34.0733 14.9953 34.4747 15.294 34.988C15.5927 35.5013 15.742 36.0893 15.742 36.752C15.742 37.4053 15.5927 37.9887 15.294 38.502C14.9953 39.0153 14.5753 39.4167 14.034 39.706C13.502 39.9953 12.8953 40.14 12.214 40.14C11.5327 40.14 10.9213 39.9953 10.38 39.706C9.848 39.4167 9.43267 39.0153 9.134 38.502C8.83533 37.9887 8.686 37.4053 8.686 36.752ZM17.3179 38.74C17.5419 38.5253 17.7752 38.3107 18.0179 38.096C18.2605 37.872 18.5032 37.6527 18.7459 37.438C19.5019 36.766 20.1039 36.2107 20.5519 35.772C20.9999 35.324 21.3779 34.8667 21.6859 34.4C21.9939 33.9333 22.1479 33.49 22.1479 33.07C22.1479 32.4913 21.9799 32.02 21.6439 31.656C21.3172 31.292 20.8972 31.11 20.3839 31.11C19.9825 31.11 19.5999 31.2407 19.2359 31.502C18.8812 31.7633 18.6105 32.0993 18.4239 32.51L17.1219 31.936C17.4019 31.292 17.8452 30.7693 18.4519 30.368C19.0679 29.9573 19.7119 29.752 20.3839 29.752C21.0185 29.752 21.5785 29.892 22.0639 30.172C22.5585 30.452 22.9412 30.844 23.2119 31.348C23.4919 31.852 23.6319 32.426 23.6319 33.07C23.6319 33.7047 23.4405 34.3347 23.0579 34.96C22.6845 35.5853 22.2319 36.1593 21.6999 36.682C21.1679 37.2047 20.4819 37.8253 19.6419 38.544L19.4179 38.74H23.7999V40.042H17.4579L17.3179 38.74ZM25.4683 34.862C25.6829 34.3487 26.0143 33.9333 26.4623 33.616C26.9196 33.2987 27.4096 33.14 27.9323 33.14C28.1469 33.14 28.3989 33.1867 28.6883 33.28C28.9869 33.3733 29.2436 33.49 29.4583 33.63L30.6343 34.358C30.7463 34.4327 30.8676 34.4933 30.9983 34.54C31.1289 34.5867 31.2363 34.61 31.3203 34.61C31.5443 34.6287 31.7589 34.5633 31.9643 34.414C32.1789 34.2553 32.3329 34.0453 32.4263 33.784L33.8683 34.344C33.6536 34.8853 33.3176 35.324 32.8603 35.66C32.4029 35.9867 31.9036 36.15 31.3623 36.15C31.1569 36.15 30.9049 36.108 30.6063 36.024C30.3169 35.94 30.0603 35.8233 29.8363 35.674L28.6323 34.932C28.3336 34.764 28.0956 34.68 27.9183 34.68C27.7129 34.68 27.5123 34.7547 27.3163 34.904C27.1296 35.044 26.9896 35.226 26.8963 35.45L25.4683 34.862ZM39.1063 38.838C39.7036 38.838 40.1936 38.642 40.5763 38.25C40.9683 37.858 41.1643 37.3587 41.1643 36.752C41.1643 36.1267 40.9729 35.618 40.5903 35.226C40.2076 34.834 39.7129 34.638 39.1063 34.638C38.5089 34.638 38.0189 34.834 37.6363 35.226C37.2629 35.618 37.0763 36.1267 37.0763 36.752C37.0763 37.3587 37.2629 37.858 37.6363 38.25C38.0189 38.642 38.5089 38.838 39.1063 38.838ZM35.5923 36.752C35.5923 36.1453 35.7789 35.4967 36.1523 34.806L38.9523 29.822H40.6603L38.6303 33.392C38.8543 33.3547 39.0269 33.336 39.1483 33.336C39.8296 33.336 40.4316 33.4853 40.9543 33.784C41.4863 34.0733 41.9016 34.4747 42.2003 34.988C42.4989 35.5013 42.6483 36.0893 42.6483 36.752C42.6483 37.4053 42.4989 37.9887 42.2003 38.502C41.9016 39.0153 41.4816 39.4167 40.9403 39.706C40.4083 39.9953 39.8016 40.14 39.1203 40.14C38.4389 40.14 37.8276 39.9953 37.2863 39.706C36.7543 39.4167 36.3389 39.0153 36.0403 38.502C35.7416 37.9887 35.5923 37.4053 35.5923 36.752ZM47.5561 31.04C46.9495 31.04 46.4548 31.236 46.0721 31.628C45.6895 32.02 45.4981 32.524 45.4981 33.14C45.4981 33.756 45.6895 34.26 46.0721 34.652C46.4548 35.044 46.9495 35.24 47.5561 35.24C48.1535 35.24 48.6388 35.044 49.0121 34.652C49.3948 34.26 49.5861 33.756 49.5861 33.14C49.5861 32.524 49.3948 32.02 49.0121 31.628C48.6388 31.236 48.1535 31.04 47.5561 31.04ZM51.0701 33.14C51.0701 33.756 50.8835 34.4 50.5101 35.072L47.7101 40.056H46.0021L48.0321 36.486C47.8081 36.5233 47.6355 36.542 47.5141 36.542C46.8328 36.542 46.2261 36.3973 45.6941 36.108C45.1715 35.8093 44.7608 35.4033 44.4621 34.89C44.1635 34.3767 44.0141 33.7933 44.0141 33.14C44.0141 32.4773 44.1635 31.8893 44.4621 31.376C44.7608 30.8627 45.1761 30.4613 45.7081 30.172C46.2495 29.8827 46.8608 29.738 47.5421 29.738C48.2235 29.738 48.8301 29.8827 49.3621 30.172C49.9035 30.4613 50.3235 30.8627 50.6221 31.376C50.9208 31.8893 51.0701 32.4773 51.0701 33.14Z" fill="#536349"/>
</g>
<defs>
<filter id="filter0_d_174_3312" x="18.99" y="-1" width="22.02" height="22.02" filterUnits="userSpaceOnUse" color-interpolation-filters="sRGB">
<feFlood flood-opacity="0" result="BackgroundImageFix"/>
<feColorMatrix in="SourceAlpha" type="matrix" values="0 0 0 0 0 0 0 0 0 0 0 0 0 0 0 0 0 0 127 0" result="hardAlpha"/>
<feOffset dy="1.01"/>
<feGaussianBlur stdDeviation="0.505"/>
<feComposite in2="hardAlpha" operator="out"/>
<feColorMatrix type="matrix" values="0 0 0 0 1 0 0 0 0 1 0 0 0 0 1 0 0 0 0.2 0"/>
<feBlend mode="normal" in2="BackgroundImageFix" result="effect1_dropShadow_174_3312"/>
<feBlend mode="normal" in="SourceGraphic" in2="effect1_dropShadow_174_3312" result="shape"/>
</filter>
<clipPath id="clip0_174_3312">
<rect width="60" height="60" rx="5" fill="white"/>
</clipPath>
</defs>
</svg>
