<svg width="60" height="60" viewBox="0 0 60 60" fill="none" xmlns="http://www.w3.org/2000/svg">
<g clip-path="url(#clip0_174_3311)">
<rect width="60" height="60" rx="5" fill="#BBBF9A" fill-opacity="0.5"/>
<g filter="url(#filter0_d_174_3311)">
<path d="M24.4545 5.86817C25.6032 4.70454 27.1185 3.90081 28.8142 3.64247L27.133 0.9794C26.7482 0.3699 26.0758 0 25.3527 0H21.5266C21.1073 0 20.8568 0.46456 21.0884 0.81241L24.4545 5.86817Z" fill="#F8F6EF"/>
<path d="M31.2036 3.64517C32.8979 3.90727 34.4111 4.71398 35.5572 5.87988L38.3902 1.62482C38.8666 0.90929 39.1048 0.55152 38.9561 0.27576C38.8074 5.96046e-08 38.3762 0 37.5139 0H35.8288C34.6926 0 34.1245 0 33.6498 0.26114C33.1751 0.52228 32.8728 1.00113 32.2682 1.9588L31.2036 3.64517Z" fill="#F8F6EF"/>
<path fill-rule="evenodd" clip-rule="evenodd" d="M30.0001 18C33.7214 18 36.7381 14.9969 36.7381 11.2925C36.7381 7.58802 33.7214 4.58496 30.0001 4.58496C26.2789 4.58496 23.2622 7.58802 23.2622 11.2925C23.2622 14.9969 26.2789 18 30.0001 18ZM30.2856 9.66972C30.253 9.56742 30.2078 9.50072 30.1567 9.45812L30.1526 9.45462C30.1075 9.41422 30.0507 9.39132 29.9715 9.39132C29.8696 9.39132 29.7958 9.42152 29.7384 9.47552C29.6733 9.53682 29.6187 9.62622 29.5801 9.75282C29.5726 9.77872 29.5658 9.80542 29.5598 9.83312L29.5582 9.84012C29.537 9.93712 29.5189 10.02 29.4987 10.0837C29.4786 10.1467 29.4484 10.2199 29.3848 10.271C29.3249 10.3192 29.2559 10.3351 29.1935 10.3419C29.1348 10.3484 29.0623 10.3483 28.9814 10.3483H28.6661C28.5778 10.3484 28.4947 10.3484 28.4267 10.3376C28.349 10.3252 28.2711 10.296 28.2102 10.2235C28.1521 10.1544 28.1338 10.0781 28.1338 10.0009C28.1337 9.93612 28.1469 9.86092 28.1602 9.78442L28.162 9.77442C28.1975 9.57092 28.2596 9.37772 28.3483 9.19522L28.3488 9.19432C28.5006 8.88785 28.7146 8.64194 28.9903 8.45997C29.2739 8.27192 29.6098 8.18117 29.991 8.18117C30.358 8.18117 30.6765 8.24959 30.9389 8.39536C31.2021 8.54016 31.4019 8.74861 31.5352 9.01772C31.6704 9.28272 31.7348 9.59332 31.7348 9.94442C31.7348 10.1477 31.7083 10.346 31.6552 10.5389C31.6028 10.7266 31.5284 10.9136 31.433 11.099C31.338 11.2809 31.2215 11.4664 31.0849 11.6539C30.9508 11.8379 30.8002 12.0279 30.6332 12.2239L30.3365 12.647C30.2368 12.7893 30.1722 12.8821 30.137 12.9523C30.1202 12.9858 30.1152 13.0041 30.114 13.0128C30.1218 13.0167 30.1396 13.0232 30.1767 13.0287C30.2544 13.0401 30.3675 13.0405 30.5412 13.0405H31.3265C31.4131 13.0405 31.4925 13.0405 31.557 13.0492C31.6281 13.0587 31.7033 13.0812 31.7651 13.143C31.8269 13.2048 31.8494 13.28 31.8589 13.3511C31.8676 13.4156 31.8676 13.495 31.8676 13.5816V13.7096C31.8676 13.7962 31.8676 13.8756 31.8589 13.9401C31.8494 14.0112 31.8269 14.0864 31.7651 14.1482C31.7033 14.21 31.6281 14.2325 31.557 14.242C31.4925 14.2507 31.4131 14.2507 31.3266 14.2507H28.7571C28.6705 14.2507 28.5911 14.2507 28.5266 14.242C28.4555 14.2325 28.3803 14.21 28.3185 14.1482C28.2567 14.0864 28.2342 14.0112 28.2247 13.9401C28.216 13.8756 28.216 13.7962 28.216 13.7096V13.4618L28.216 13.4484C28.2159 13.3936 28.2157 13.3346 28.2353 13.2781C28.2548 13.2216 28.2914 13.1753 28.3254 13.1323L28.3337 13.1218L29.7853 11.276C29.9304 11.0747 30.0417 10.9016 30.1206 10.7562C30.2007 10.6061 30.2558 10.4766 30.2886 10.3669C30.3217 10.2532 30.3371 10.1504 30.3371 10.0577C30.3371 9.89922 30.3184 9.77032 30.2856 9.66972Z" fill="#F8F6EF"/>
</g>
<path d="M9.596 40.07L13.586 31.11L8.91 31.124V29.808H15.07L15.21 31.11L11.22 40.07H9.596ZM20.424 38.824C20.8813 38.824 21.2873 38.6607 21.642 38.334C21.9967 38.0073 22.272 37.5547 22.468 36.976C22.664 36.388 22.762 35.7113 22.762 34.946C22.762 34.1807 22.664 33.504 22.468 32.916C22.272 32.328 21.9967 31.8707 21.642 31.544C21.2873 31.2173 20.8813 31.054 20.424 31.054C19.9667 31.054 19.556 31.2173 19.192 31.544C18.8373 31.8707 18.562 32.328 18.366 32.916C18.17 33.504 18.072 34.1807 18.072 34.946C18.072 35.7113 18.17 36.388 18.366 36.976C18.562 37.5547 18.8373 38.0073 19.192 38.334C19.556 38.6607 19.9667 38.824 20.424 38.824ZM20.424 40.14C19.6867 40.14 19.024 39.9207 18.436 39.482C17.8573 39.034 17.4047 38.418 17.078 37.634C16.7513 36.8407 16.588 35.9447 16.588 34.946C16.588 33.938 16.7513 33.042 17.078 32.258C17.4047 31.4647 17.8573 30.8487 18.436 30.41C19.0147 29.9713 19.6773 29.752 20.424 29.752C21.1613 29.752 21.8193 29.9713 22.398 30.41C22.9767 30.8487 23.4293 31.4647 23.756 32.258C24.0827 33.042 24.246 33.938 24.246 34.946C24.246 35.9447 24.0827 36.8407 23.756 37.634C23.4293 38.418 22.9767 39.034 22.398 39.482C21.8193 39.9207 21.1613 40.14 20.424 40.14ZM25.9058 34.862C26.1204 34.3487 26.4518 33.9333 26.8998 33.616C27.3571 33.2987 27.8471 33.14 28.3698 33.14C28.5844 33.14 28.8364 33.1867 29.1258 33.28C29.4244 33.3733 29.6811 33.49 29.8958 33.63L31.0718 34.358C31.1838 34.4327 31.3051 34.4933 31.4358 34.54C31.5664 34.5867 31.6738 34.61 31.7578 34.61C31.9818 34.6287 32.1964 34.5633 32.4018 34.414C32.6164 34.2553 32.7704 34.0453 32.8638 33.784L34.3058 34.344C34.0911 34.8853 33.7551 35.324 33.2978 35.66C32.8404 35.9867 32.3411 36.15 31.7998 36.15C31.5944 36.15 31.3424 36.108 31.0438 36.024C30.7544 35.94 30.4978 35.8233 30.2738 35.674L29.0698 34.932C28.7711 34.764 28.5331 34.68 28.3558 34.68C28.1504 34.68 27.9498 34.7547 27.7538 34.904C27.5671 35.044 27.4271 35.226 27.3338 35.45L25.9058 34.862ZM36.9398 40.07L40.9298 31.11L36.2538 31.124V29.808H42.4137L42.5538 31.11L38.5638 40.07H36.9398ZM44.8558 40.07L48.8458 31.11L44.1698 31.124V29.808H50.3298L50.4698 31.11L46.4798 40.07H44.8558Z" fill="#536349"/>
</g>
<defs>
<filter id="filter0_d_174_3311" x="18.99" y="-1" width="22.02" height="22.02" filterUnits="userSpaceOnUse" color-interpolation-filters="sRGB">
<feFlood flood-opacity="0" result="BackgroundImageFix"/>
<feColorMatrix in="SourceAlpha" type="matrix" values="0 0 0 0 0 0 0 0 0 0 0 0 0 0 0 0 0 0 127 0" result="hardAlpha"/>
<feOffset dy="1.01"/>
<feGaussianBlur stdDeviation="0.505"/>
<feComposite in2="hardAlpha" operator="out"/>
<feColorMatrix type="matrix" values="0 0 0 0 1 0 0 0 0 1 0 0 0 0 1 0 0 0 0.2 0"/>
<feBlend mode="normal" in2="BackgroundImageFix" result="effect1_dropShadow_174_3311"/>
<feBlend mode="normal" in="SourceGraphic" in2="effect1_dropShadow_174_3311" result="shape"/>
</filter>
<clipPath id="clip0_174_3311">
<rect width="60" height="60" rx="5" fill="white"/>
</clipPath>
</defs>
</svg>
