<svg width="45" height="45" viewBox="0 0 45 45" fill="none" xmlns="http://www.w3.org/2000/svg">
<rect width="45" height="45" rx="22.5" fill="#F8F6EF"/>
<path fill-rule="evenodd" clip-rule="evenodd" d="M30.6663 17.5147C31.0446 17.7926 31.126 18.3246 30.848 18.7029L27.0877 23.8212C26.8347 24.1655 26.6221 24.4549 26.4359 24.6782C26.246 24.9061 26.0354 25.1258 25.7703 25.2861C24.8986 25.8138 23.7963 25.7718 22.9672 25.1794C22.7152 24.9992 22.5219 24.7641 22.3498 24.5224C22.1812 24.2856 21.9912 23.9809 21.7651 23.6182L21.7512 23.5959C21.4896 23.1762 21.3139 22.895 21.1687 22.6914C21.0223 22.486 20.9545 22.4296 20.9323 22.4141C20.6413 22.213 20.2561 22.213 19.9652 22.4141C19.943 22.4296 19.8752 22.486 19.7288 22.6914C19.5836 22.895 19.4078 23.1762 19.1462 23.5959L17.2843 26.5827C17.036 26.981 16.5117 27.1026 16.1133 26.8543C15.715 26.606 15.5933 26.0817 15.8417 25.6834L17.7179 22.6737C17.9615 22.2828 18.165 21.9564 18.3444 21.7046C18.5261 21.4497 18.7309 21.2009 18.9981 21.016C19.871 20.4123 21.0265 20.4123 21.8993 21.016C22.1665 21.2009 22.3713 21.4497 22.553 21.7046C22.7325 21.9564 22.936 22.2828 23.1796 22.6737L23.1939 22.6966C23.4375 23.0873 23.6 23.3473 23.7346 23.5365C23.8693 23.7255 23.9325 23.7797 23.9557 23.7962C24.232 23.9937 24.5995 24.0077 24.8901 23.8318C24.9143 23.8171 24.9816 23.7679 25.1302 23.5896C25.2789 23.4113 25.4607 23.1645 25.7333 22.7934L29.478 17.6964C29.756 17.3181 30.288 17.2367 30.6663 17.5147Z" fill="#536349"/>
<path d="M13.1677 11.8872C12.6905 11.8872 12.3037 12.274 12.3037 12.7512V25.3681C12.3037 26.7942 12.3037 27.9516 12.4263 28.8639C12.5541 29.8143 12.8291 30.6268 13.476 31.2737C14.1229 31.9206 14.9353 32.1955 15.8857 32.3232C16.798 32.446 17.9554 32.446 19.3814 32.4459H31.9984C32.4756 32.4459 32.8624 32.0591 32.8624 31.5819C32.8624 31.1048 32.4756 30.718 31.9984 30.718H19.4446C17.9406 30.718 16.8997 30.7162 16.116 30.6108C15.3572 30.5088 14.9702 30.3242 14.6978 30.0518C14.4254 29.7795 14.2408 29.3924 14.1388 28.6337C14.0335 27.85 14.0316 26.809 14.0316 25.3051V12.7512C14.0316 12.274 13.6448 11.8872 13.1677 11.8872Z" fill="#536349"/>
</svg>
