<svg width="23" height="23" viewBox="0 0 23 23" fill="none" xmlns="http://www.w3.org/2000/svg">
<path fill-rule="evenodd" clip-rule="evenodd" d="M19.4158 6.68175C19.7941 6.95969 19.8755 7.4917 19.5975 7.87002L15.8372 12.9883C15.5843 13.3326 15.3716 13.622 15.1854 13.8453C14.9955 14.0732 14.7849 14.2928 14.5198 14.4532C13.6481 14.9809 12.5458 14.9388 11.7167 14.3465C11.4647 14.1663 11.2714 13.9312 11.0993 13.6895C10.9307 13.4527 10.7407 13.148 10.5147 12.7853L10.5007 12.763C10.2391 12.3433 10.0634 12.0621 9.91823 11.8584C9.7718 11.6531 9.704 11.5966 9.68178 11.5812C9.39083 11.3801 9.00565 11.3801 8.7147 11.5812C8.69248 11.5966 8.62468 11.6531 8.47827 11.8584C8.33308 12.0621 8.15734 12.3433 7.89573 12.763L6.03384 15.7497C5.78551 16.1481 5.26124 16.2697 4.86286 16.0214C4.46448 15.7731 4.34285 15.2488 4.5912 14.8504L6.46738 11.8408C6.71099 11.4499 6.91448 11.1235 7.09392 10.8717C7.27564 10.6168 7.48044 10.3679 7.74764 10.1831C8.62048 9.57938 9.776 9.57938 10.6488 10.1831C10.916 10.3679 11.1208 10.6168 11.3026 10.8717C11.482 11.1235 11.6855 11.4499 11.9291 11.8408L11.9434 11.8637C12.187 12.2544 12.3495 12.5144 12.4841 12.7036C12.6188 12.8926 12.682 12.9468 12.7052 12.9633C12.9816 13.1608 13.349 13.1748 13.6396 12.9989C13.6638 12.9842 13.7311 12.935 13.8797 12.7567C14.0284 12.5783 14.2102 12.3316 14.4828 11.9604L18.2275 6.86348C18.5055 6.48517 19.0375 6.4038 19.4158 6.68175Z" fill="#536349"/>
<path d="M1.91815 1.0542C1.441 1.0542 1.0542 1.441 1.0542 1.91815V14.5351C1.05418 15.9611 1.05416 17.1186 1.17681 18.0308C1.30459 18.9813 1.57957 19.7937 2.22649 20.4407C2.87339 21.0876 3.68579 21.3625 4.63622 21.4902C5.54844 21.613 6.70591 21.613 8.1319 21.6129H20.7489C21.2261 21.6129 21.6129 21.2261 21.6129 20.7489C21.6129 20.2718 21.2261 19.885 20.7489 19.885H8.19508C6.69113 19.885 5.65014 19.8832 4.86645 19.7778C4.10766 19.6758 3.72065 19.4911 3.44829 19.2188C3.17593 18.9465 2.99132 18.5594 2.88931 17.8007C2.78394 17.017 2.7821 15.976 2.7821 14.4721V1.91815C2.7821 1.441 2.3953 1.0542 1.91815 1.0542Z" fill="#536349"/>
</svg>
