<svg width="15" height="15" viewBox="0 0 15 15" fill="none" xmlns="http://www.w3.org/2000/svg">
<path fill-rule="evenodd" clip-rule="evenodd" d="M7.46867 0.75H7.53135C8.80275 0.749995 9.79943 0.74999 10.5901 0.835658C11.3971 0.923078 12.0508 1.10468 12.6091 1.51026C12.947 1.7558 13.2442 2.05298 13.4897 2.39093C13.8953 2.94916 14.0769 3.60295 14.1643 4.40986C14.25 5.20057 14.25 6.19724 14.25 7.46866V7.53142C14.25 8.80282 14.25 9.79943 14.1643 10.5901C14.0769 11.3971 13.8953 12.0508 13.4897 12.6091C13.2442 12.947 12.947 13.2442 12.6091 13.4897C12.0508 13.8953 11.3971 14.0769 10.5901 14.1643C9.79943 14.25 8.80275 14.25 7.53135 14.25H7.46861C6.19719 14.25 5.20056 14.25 4.40986 14.1643C3.60295 14.0769 2.94916 13.8953 2.39093 13.4897C2.05298 13.2442 1.7558 12.947 1.51026 12.6091C1.10468 12.0508 0.923078 11.3971 0.835658 10.5901C0.74999 9.79943 0.749995 8.80275 0.75 7.53135V7.46867C0.749995 6.19723 0.74999 5.20057 0.835658 4.40986C0.923078 3.60295 1.10468 2.94916 1.51026 2.39093C1.7558 2.05298 2.05298 1.7558 2.39093 1.51026C2.94916 1.10468 3.60295 0.923078 4.40986 0.835658C5.20057 0.74999 6.19723 0.749995 7.46867 0.75ZM9.98805 6.43254C10.1632 6.20549 10.1211 5.87943 9.89407 5.70427C9.66698 5.52911 9.34095 5.57119 9.16582 5.79824L6.86705 8.77807L5.80086 7.6473C5.60414 7.43866 5.27552 7.42899 5.06687 7.6257C4.85823 7.82242 4.84856 8.15108 5.04529 8.35972L6.09999 9.47835C6.18862 9.57248 6.28884 9.67883 6.38593 9.75645C6.50042 9.84788 6.68098 9.95813 6.92486 9.94605C7.16873 9.93398 7.33753 9.80647 7.44242 9.7041C7.53135 9.61732 7.6206 9.50152 7.6995 9.39915L9.98805 6.43254Z" fill="#536349"/>
</svg>
