<svg width="20" height="20" viewBox="0 0 20 20" fill="none" xmlns="http://www.w3.org/2000/svg">
<path fill-rule="evenodd" clip-rule="evenodd" d="M10 1C10.4145 1.00001 10.7505 1.33577 10.7505 1.74995L10.7503 10.5L11.7563 9.49479C12.0493 9.20192 12.5245 9.20192 12.8176 9.49479C13.1106 9.78766 13.1106 10.2625 12.8176 10.5554L10.5305 12.8408C10.2374 13.1337 9.76232 13.1337 9.46925 12.8408L7.18221 10.5554C6.88913 10.2625 6.88913 9.78766 7.1822 9.49479C7.47528 9.20192 7.95044 9.20192 8.24351 9.49479L9.24947 10.5001L9.24959 1.74993C9.2496 1.33575 9.58559 0.999994 10 1Z" fill="#536349"/>
<path fill-rule="evenodd" clip-rule="evenodd" d="M6.79184 6.11285H6.22654C5.65925 6.11283 5.17965 6.11282 4.78454 6.15178C4.36591 6.19306 3.97756 6.28264 3.61098 6.50121C3.47721 6.58096 3.35047 6.67192 3.2321 6.7731C2.90773 7.0504 2.6987 7.38952 2.52581 7.77275C2.36262 8.13445 2.20941 8.58859 2.02817 9.1258L1.88223 9.55833C1.56384 10.5019 1.38609 11.0287 1.26363 11.5713C1.17011 11.9856 1.10124 12.4051 1.0574 12.8276C0.99998 13.3808 0.999987 13.9367 1 14.9325V15.0114C0.999989 15.5775 0.999979 16.0501 1.03332 16.4353C1.06812 16.8375 1.14345 17.2141 1.3358 17.5666C1.58886 18.0304 1.97026 18.4115 2.43438 18.6644C2.78714 18.8566 3.164 18.9319 3.56641 18.9667C3.95194 19 4.4248 19 4.99134 19H15.0087C15.5752 19 16.0481 19 16.4336 18.9667C16.836 18.9319 17.2129 18.8566 17.5656 18.6644C18.0297 18.4115 18.4111 18.0304 18.6642 17.5666C18.8566 17.2141 18.9319 16.8375 18.9667 16.4353C19 16.0501 19 15.5776 19 15.0114V14.9326C19 13.9367 19 13.3808 18.9426 12.8276C18.8988 12.4051 18.8299 11.9856 18.7364 11.5713C18.6139 11.0287 18.4362 10.5019 18.1177 9.55827L17.9718 9.1258C17.7906 8.5886 17.6374 8.13445 17.4742 7.77275C17.3013 7.38952 17.0923 7.0504 16.7679 6.7731C16.6495 6.67192 16.5228 6.58096 16.389 6.50121C16.0224 6.28264 15.6341 6.19306 15.2155 6.15178C14.8204 6.11282 14.3408 6.11283 13.7735 6.11285H13.2082C12.7937 6.11285 12.4577 6.44861 12.4577 6.86279C12.4577 7.27697 12.7937 7.61273 13.2082 7.61273H13.7378C14.3503 7.61273 14.7554 7.61357 15.0681 7.64441C15.3655 7.67374 15.5129 7.72537 15.62 7.78925C15.6808 7.8255 15.7384 7.86685 15.7922 7.91284C15.887 7.99389 15.9831 8.11691 16.1059 8.38921C16.2351 8.67548 16.3653 9.05881 16.561 9.63874L16.6806 9.99336C17.0178 10.9926 17.1689 11.4433 17.2723 11.9013C17.3352 12.1802 17.3852 12.4619 17.422 12.7454H14.96C14.6816 12.7454 14.4196 12.7453 14.1985 12.7678C13.9531 12.7926 13.6933 12.8499 13.4412 13.0048C13.3829 13.0406 13.3268 13.0799 13.2731 13.1223C13.0409 13.3056 12.8979 13.5298 12.7902 13.7516C12.6932 13.9514 12.6033 14.1972 12.5077 14.4585L12.497 14.4877C12.387 14.7883 12.3228 14.9611 12.2631 15.0841C12.2361 15.1396 12.218 15.1678 12.208 15.1814C12.2034 15.1877 12.1998 15.1915 12.1998 15.1915C12.1923 15.1974 12.184 15.2031 12.1758 15.2082C12.1758 15.2082 12.1714 15.2101 12.1639 15.2122C12.1477 15.2169 12.115 15.2243 12.0535 15.2305C11.9174 15.2443 11.733 15.2452 11.4126 15.2452H8.58726C8.26693 15.2452 8.08245 15.2443 7.94633 15.2305C7.88491 15.2243 7.85218 15.2169 7.83603 15.2122C7.82851 15.2101 7.82375 15.208 7.82375 15.208C7.81553 15.203 7.80732 15.1971 7.79974 15.1912C7.79974 15.1912 7.7965 15.1877 7.79187 15.1814C7.78193 15.1678 7.76377 15.1396 7.73682 15.0841C7.6771 14.9611 7.6129 14.7883 7.50288 14.4877L7.49223 14.4585C7.39664 14.1973 7.3067 13.9514 7.20968 13.7516C7.102 13.5298 6.95898 13.3056 6.7268 13.1223C6.67309 13.0799 6.61695 13.0406 6.55864 13.0048C6.30659 12.8499 6.04678 12.7926 5.80136 12.7678C5.58025 12.7453 5.31831 12.7454 5.03992 12.7454H2.57798C2.61481 12.4619 2.66479 12.1803 2.72775 11.9013C2.83114 11.4433 2.98222 10.9926 3.31938 9.99336L3.43903 9.63874C3.6347 9.05881 3.76493 8.67548 3.89408 8.38921C4.01693 8.11691 4.11297 7.99389 4.20777 7.91284C4.26158 7.86685 4.31919 7.8255 4.37999 7.78925C4.48713 7.72537 4.63447 7.67374 4.93192 7.64441C5.24464 7.61357 5.64974 7.61273 6.26216 7.61273H6.79184C7.20631 7.61273 7.5423 7.27697 7.5423 6.86279C7.5423 6.44861 7.20631 6.11285 6.79184 6.11285Z" fill="#536349"/>
</svg>
