<svg width="26" height="26" viewBox="0 0 26 26" fill="none" xmlns="http://www.w3.org/2000/svg">
<path d="M14.4364 1.43918C13.4878 1.25361 12.5122 1.25361 11.5637 1.43918C10.2202 1.70203 8.99651 2.46079 7.00736 3.69417L6.66822 3.90438C4.87465 5.01565 3.77081 5.69958 2.98167 6.66505C2.4238 7.34759 1.99154 8.12343 1.70493 8.95657C1.29951 10.1351 1.29972 11.432 1.30007 13.5391L1.30008 19.6489C1.30008 22.4385 3.56558 24.7 6.36021 24.7C8.59068 24.7 10.3988 22.8951 10.3988 20.6686V17.7795C10.3988 16.3454 11.5634 15.1828 13 15.1828C14.4367 15.1828 15.6012 16.3454 15.6012 17.7795V20.6686C15.6012 22.8951 17.4094 24.7 19.6399 24.7C22.4345 24.7 24.7 22.4385 24.7 19.6489V13.5392C24.7003 11.432 24.7006 10.1351 24.2951 8.95657C24.0086 8.12343 23.5763 7.34759 23.0184 6.66505C22.2293 5.69958 21.1254 5.01565 19.3318 3.90437L18.9928 3.69417C17.0035 2.46079 15.7798 1.70203 14.4364 1.43918Z" fill="#536349"/>
</svg>
