<svg width="26" height="26" viewBox="0 0 26 26" fill="none" xmlns="http://www.w3.org/2000/svg">
<path fill-rule="evenodd" clip-rule="evenodd" d="M14.0616 3.34755C13.3605 3.21039 12.6395 3.21039 11.9384 3.34755C10.9886 3.53338 10.0834 4.07672 7.85596 5.4573C5.85042 6.70034 5.04927 7.2116 4.49115 7.89443C4.07882 8.39891 3.75932 8.97235 3.54747 9.58815C3.26074 10.4217 3.24824 11.3707 3.24824 13.7272V19.6488C3.24824 21.3644 4.64151 22.7553 6.36022 22.7553C7.51475 22.7553 8.45067 21.821 8.45067 20.6686V17.7794C8.45067 15.2713 10.4875 13.2381 13 13.2381C15.5126 13.2381 17.5494 15.2713 17.5494 17.7794V20.6686C17.5494 21.821 18.4854 22.7553 19.6399 22.7553C21.3585 22.7553 22.7519 21.3644 22.7519 19.6488V13.7272C22.7519 11.3707 22.7394 10.4217 22.4526 9.58815C22.2408 8.97235 21.9213 8.39891 21.5089 7.89443C20.9508 7.2116 20.1497 6.70034 18.1441 5.4573C15.9167 4.07672 15.0115 3.53338 14.0616 3.34755ZM11.5637 1.43917C12.5122 1.2536 13.4878 1.2536 14.4364 1.43917C15.7798 1.70201 17.0035 2.46077 18.9928 3.69416C19.0517 3.73074 19.1115 3.76775 19.1718 3.80517C19.2257 3.83861 19.2792 3.87167 19.3318 3.90437C21.1254 5.01564 22.2293 5.69956 23.0184 6.66504C23.5763 7.34758 24.0086 8.12341 24.2951 8.95656C24.7006 10.1351 24.7003 11.4319 24.7 13.5392C24.7 13.6011 24.7 13.6639 24.7 13.7272V19.6488C24.7 22.4385 22.4345 24.7 19.6399 24.7C17.4094 24.7 15.6012 22.8951 15.6012 20.6686V17.7794C15.6012 16.3454 14.4367 15.1828 13 15.1828C11.5634 15.1828 10.3988 16.3454 10.3988 17.7794V20.6686C10.3988 22.8951 8.59068 24.7 6.36022 24.7C3.56558 24.7 1.30008 22.4385 1.30008 19.6488V13.7272C1.30008 13.6639 1.30007 13.6011 1.30007 13.5391C1.29972 11.4319 1.29951 10.1351 1.70493 8.95656C1.99154 8.12341 2.4238 7.34758 2.98167 6.66504C3.77081 5.69956 4.87465 5.01564 6.66822 3.90437C6.72098 3.87167 6.77434 3.83861 6.82831 3.80517C6.88868 3.76775 6.94836 3.73074 7.00736 3.69416C8.99651 2.46077 10.2202 1.70201 11.5637 1.43917Z" fill="#9C9CA1" fill-opacity="0.5"/>
</svg>
