<svg width="20" height="22" viewBox="0 0 20 22" fill="none" xmlns="http://www.w3.org/2000/svg">
<g filter="url(#filter0_d_152_1741)">
<path d="M4.4545 6.86817C5.60315 5.70454 7.1185 4.90081 8.81422 4.64247L7.13299 1.9794C6.74821 1.3699 6.07581 1 5.35268 1H1.52656C1.10734 1 0.856787 1.46456 1.08838 1.81241L4.4545 6.86817Z" fill="#F8F6EF"/>
<path d="M11.2036 4.64517C12.8979 4.90727 14.4111 5.71398 15.5572 6.87988L18.3902 2.62482C18.8666 1.90929 19.1048 1.55152 18.9561 1.27576C18.8074 1 18.3762 1 17.5139 1H15.8288C14.6926 1 14.1245 1 13.6498 1.26114C13.1751 1.52228 12.8728 2.00113 12.2682 2.9588L11.2036 4.64517Z" fill="#F8F6EF"/>
<path fill-rule="evenodd" clip-rule="evenodd" d="M10.0001 19C13.7214 19 16.7381 15.9969 16.7381 12.2925C16.7381 8.58799 13.7214 5.58493 10.0001 5.58493C6.27888 5.58493 3.26221 8.58799 3.26221 12.2925C3.26221 15.9969 6.27888 19 10.0001 19ZM10.2856 10.6697C10.253 10.5674 10.2078 10.5007 10.1567 10.4581L10.1526 10.4546C10.1075 10.4142 10.0507 10.3913 9.9715 10.3913C9.86958 10.3913 9.79583 10.4215 9.73837 10.4755C9.67331 10.5368 9.61868 10.6262 9.58013 10.7528C9.57263 10.7787 9.56584 10.8054 9.55979 10.8331L9.55825 10.8401C9.53705 10.9371 9.51892 11.02 9.49867 11.0837C9.47865 11.1467 9.44836 11.2199 9.38484 11.271C9.3249 11.3192 9.25594 11.3351 9.19353 11.3419C9.13476 11.3484 9.06226 11.3483 8.98143 11.3483H8.66608C8.57778 11.3484 8.49466 11.3484 8.42673 11.3376C8.34898 11.3252 8.27111 11.296 8.21023 11.2235C8.15213 11.1544 8.13385 11.0781 8.13377 11.0009C8.1337 10.9361 8.14686 10.8609 8.16024 10.7844L8.16198 10.7744C8.19753 10.5709 8.2596 10.3777 8.34832 10.1952L8.34881 10.1943C8.50061 9.88782 8.71457 9.64191 8.99031 9.45994C9.27391 9.27189 9.60982 9.18114 9.99103 9.18114C10.358 9.18114 10.6765 9.24956 10.9389 9.39533C11.2021 9.54013 11.4019 9.74858 11.5352 10.0177C11.6704 10.2827 11.7348 10.5933 11.7348 10.9444C11.7348 11.1477 11.7083 11.346 11.6552 11.5389C11.6028 11.7266 11.5284 11.9136 11.433 12.099C11.338 12.2809 11.2215 12.4664 11.0849 12.6539C10.9508 12.8379 10.8002 13.0279 10.6332 13.2239L10.3365 13.647C10.2368 13.7893 10.1722 13.8821 10.137 13.9523C10.1202 13.9858 10.1152 14.0041 10.114 14.0128C10.1218 14.0167 10.1396 14.0232 10.1767 14.0287C10.2544 14.0401 10.3675 14.0405 10.5412 14.0405H11.3265C11.4131 14.0405 11.4925 14.0405 11.557 14.0492C11.6281 14.0587 11.7033 14.0812 11.7651 14.143C11.8269 14.2048 11.8494 14.28 11.8589 14.3511C11.8676 14.4156 11.8676 14.495 11.8676 14.5816V14.7096C11.8676 14.7962 11.8676 14.8756 11.8589 14.9401C11.8494 15.0112 11.8269 15.0864 11.7651 15.1482C11.7033 15.21 11.6281 15.2325 11.557 15.242C11.4925 15.2507 11.4131 15.2507 11.3266 15.2507H8.75708C8.67053 15.2507 8.59115 15.2507 8.52659 15.242C8.4555 15.2325 8.38035 15.21 8.31855 15.1482C8.25674 15.0864 8.23425 15.0112 8.22469 14.9401C8.21601 14.8756 8.21602 14.7962 8.21603 14.7096V14.4618L8.21601 14.4484C8.21588 14.3936 8.21573 14.3346 8.23528 14.2781C8.25483 14.2216 8.29143 14.1753 8.32541 14.1323L8.33371 14.1218L9.78526 12.276C9.93042 12.0747 10.0417 11.9016 10.1206 11.7562C10.2007 11.6061 10.2558 11.4766 10.2886 11.3669C10.3217 11.2532 10.3371 11.1504 10.3371 11.0577C10.3371 10.8992 10.3184 10.7703 10.2856 10.6697Z" fill="#F8F6EF"/>
</g>
<defs>
<filter id="filter0_d_152_1741" x="-1.01" y="0" width="22.02" height="22.02" filterUnits="userSpaceOnUse" color-interpolation-filters="sRGB">
<feFlood flood-opacity="0" result="BackgroundImageFix"/>
<feColorMatrix in="SourceAlpha" type="matrix" values="0 0 0 0 0 0 0 0 0 0 0 0 0 0 0 0 0 0 127 0" result="hardAlpha"/>
<feOffset dy="1.01"/>
<feGaussianBlur stdDeviation="0.505"/>
<feComposite in2="hardAlpha" operator="out"/>
<feColorMatrix type="matrix" values="0 0 0 0 1 0 0 0 0 1 0 0 0 0 1 0 0 0 0.2 0"/>
<feBlend mode="normal" in2="BackgroundImageFix" result="effect1_dropShadow_152_1741"/>
<feBlend mode="normal" in="SourceGraphic" in2="effect1_dropShadow_152_1741" result="shape"/>
</filter>
</defs>
</svg>
