<svg width="20" height="22" viewBox="0 0 20 22" fill="none" xmlns="http://www.w3.org/2000/svg">
<g filter="url(#filter0_d_172_2741)">
<path d="M4.4545 6.86817C5.60315 5.70454 7.1185 4.90081 8.81422 4.64247L7.13299 1.9794C6.74821 1.3699 6.07581 1 5.35268 1H1.52656C1.10734 1 0.856787 1.46456 1.08838 1.81241L4.4545 6.86817Z" fill="#F8F6EF"/>
<path d="M11.2036 4.64517C12.8979 4.90727 14.4111 5.71398 15.5572 6.87988L18.3902 2.62482C18.8666 1.90929 19.1048 1.55152 18.9561 1.27576C18.8074 1 18.3762 1 17.5139 1H15.8288C14.6926 1 14.1245 1 13.6498 1.26114C13.1751 1.52228 12.8728 2.00113 12.2682 2.9588L11.2036 4.64517Z" fill="#F8F6EF"/>
<path fill-rule="evenodd" clip-rule="evenodd" d="M10.0001 19C13.7214 19 16.7381 15.9969 16.7381 12.2925C16.7381 8.58799 13.7214 5.58493 10.0001 5.58493C6.27888 5.58493 3.26221 8.58799 3.26221 12.2925C3.26221 15.9969 6.27888 19 10.0001 19ZM9.79108 14.0955C9.84522 14.1334 9.90347 14.1519 9.97146 14.1519C10.0633 14.1519 10.133 14.1291 10.1894 14.0899C10.2486 14.0488 10.2976 13.9894 10.3341 13.903C10.3711 13.8153 10.3926 13.7061 10.3926 13.5706C10.3926 13.3846 10.368 13.2529 10.3304 13.1645L10.3298 13.1632C10.2914 13.0709 10.2421 13.0174 10.1877 12.9859L10.1843 12.9839C10.1227 12.9466 10.0405 12.9229 9.92849 12.9229H9.66286L9.64877 12.923C9.59979 12.9231 9.53972 12.9233 9.48546 12.9081C9.35094 12.8705 9.24582 12.7653 9.20815 12.6308C9.19296 12.5766 9.19315 12.5165 9.1933 12.4675L9.19333 12.4534V12.1253L9.19328 12.1073C9.19303 12.0445 9.19272 11.9672 9.21755 11.8992C9.258 11.7883 9.34537 11.7009 9.45627 11.6604C9.52435 11.6356 9.60164 11.6359 9.66438 11.6362H9.68239H9.92458C10.0314 11.6362 10.101 11.6125 10.1476 11.5802C10.199 11.5418 10.2415 11.4858 10.2713 11.402C10.3036 11.3111 10.3222 11.1979 10.3222 11.0589C10.3222 10.9304 10.305 10.8264 10.2753 10.7433C10.2473 10.6648 10.2081 10.6124 10.1615 10.5764C10.1224 10.5461 10.0664 10.5245 9.97927 10.5245C9.92498 10.5245 9.87523 10.5389 9.82598 10.5707C9.77855 10.6013 9.73605 10.6471 9.70061 10.7158L9.69907 10.7188C9.65632 10.8043 9.62151 10.874 9.59331 10.9253C9.57888 10.9515 9.56404 10.9769 9.54879 10.9994C9.53483 11.0199 9.51346 11.0487 9.48379 11.0733L9.48237 11.0744C9.47366 11.0817 9.45821 11.0945 9.43942 11.1061C9.42063 11.1177 9.40226 11.1258 9.3919 11.1303L9.39023 11.1311C9.33876 11.1538 9.28721 11.16 9.24629 11.1626C9.20676 11.1651 9.15891 11.1651 9.10734 11.1651H8.73778C8.65092 11.1652 8.56276 11.1652 8.48954 11.1529C8.40178 11.1382 8.31024 11.1024 8.23995 11.0138C8.17462 10.9315 8.15495 10.8424 8.15851 10.7539C8.16132 10.6841 8.17953 10.6061 8.19616 10.5349L8.19895 10.523C8.23911 10.3506 8.30433 10.1904 8.39507 10.0436C8.55695 9.78164 8.77579 9.57628 9.04863 9.4296C9.32196 9.28264 9.62308 9.21044 9.94802 9.21044C10.3038 9.21044 10.6256 9.27772 10.9078 9.41868C11.1931 9.55853 11.4176 9.76823 11.5778 10.044C11.7406 10.3215 11.816 10.6555 11.816 11.0354C11.816 11.2438 11.7757 11.4452 11.6957 11.6383C11.6182 11.8317 11.505 12.0054 11.3578 12.1584L11.3565 12.1598C11.3477 12.1687 11.3334 12.1955 11.3357 12.2393C11.3381 12.2831 11.3555 12.3113 11.3674 12.3215C11.3912 12.342 11.4142 12.3634 11.4364 12.3855C11.5909 12.5371 11.7057 12.7176 11.7806 12.9244C11.8546 13.1285 11.8902 13.3499 11.8902 13.5862C11.8902 13.8741 11.8422 14.1384 11.7415 14.3754C11.6422 14.6089 11.502 14.8092 11.3202 14.973C11.1411 15.1346 10.9333 15.257 10.699 15.3409L10.697 15.3417C10.4629 15.4226 10.2114 15.462 9.94411 15.462C9.71688 15.462 9.49397 15.426 9.27615 15.3543C9.05583 15.2809 8.85631 15.1672 8.68032 15.0147C8.49992 14.8584 8.35935 14.6631 8.25735 14.4329C8.20553 14.3159 8.16735 14.1902 8.14199 14.0566L8.13974 14.0447C8.12569 13.9709 8.11067 13.8919 8.10999 13.8224C8.10914 13.7359 8.12947 13.6471 8.19643 13.5663C8.26752 13.4804 8.35875 13.4468 8.44448 13.433C8.51692 13.4213 8.60428 13.4214 8.6912 13.4214H9.0157C9.08312 13.4214 9.14577 13.4214 9.19718 13.4257C9.25083 13.4303 9.31795 13.441 9.38126 13.4794C9.38986 13.4846 9.39443 13.4876 9.40267 13.4934C9.4715 13.5414 9.51369 13.6193 9.54065 13.6718C9.57194 13.7328 9.60821 13.8149 9.65177 13.9135L9.65368 13.9179C9.6905 13.9992 9.73715 14.056 9.79108 14.0955Z" fill="#F8F6EF"/>
</g>
<defs>
<filter id="filter0_d_172_2741" x="-1.01" y="0" width="22.02" height="22.02" filterUnits="userSpaceOnUse" color-interpolation-filters="sRGB">
<feFlood flood-opacity="0" result="BackgroundImageFix"/>
<feColorMatrix in="SourceAlpha" type="matrix" values="0 0 0 0 0 0 0 0 0 0 0 0 0 0 0 0 0 0 127 0" result="hardAlpha"/>
<feOffset dy="1.01"/>
<feGaussianBlur stdDeviation="0.505"/>
<feComposite in2="hardAlpha" operator="out"/>
<feColorMatrix type="matrix" values="0 0 0 0 1 0 0 0 0 1 0 0 0 0 1 0 0 0 0.2 0"/>
<feBlend mode="normal" in2="BackgroundImageFix" result="effect1_dropShadow_172_2741"/>
<feBlend mode="normal" in="SourceGraphic" in2="effect1_dropShadow_172_2741" result="shape"/>
</filter>
</defs>
</svg>
