<svg width="20" height="22" viewBox="0 0 20 22" fill="none" xmlns="http://www.w3.org/2000/svg">
<g filter="url(#filter0_d_152_1740)">
<path d="M4.4545 6.86817C5.60315 5.70454 7.1185 4.90081 8.81422 4.64247L7.13299 1.9794C6.74821 1.3699 6.07581 1 5.35268 1H1.52656C1.10734 1 0.856787 1.46456 1.08838 1.81241L4.38887 6.76965C4.41132 6.80336 4.43318 6.8362 4.4545 6.86817Z" fill="#F8F6EF"/>
<path d="M11.2036 4.64517C12.8979 4.90727 14.4111 5.71398 15.5572 6.87988C15.581 6.84424 15.6054 6.8075 15.6306 6.76966L18.3902 2.62482C18.8666 1.90929 19.1048 1.55152 18.9561 1.27576C18.8074 1 18.3762 1 17.5139 1H15.8288C14.6926 1 14.1245 1 13.6498 1.26114C13.1751 1.52228 12.8728 2.00113 12.2682 2.9588L11.2036 4.64517Z" fill="#F8F6EF"/>
<path fill-rule="evenodd" clip-rule="evenodd" d="M16.7381 12.2925C16.7381 15.9969 13.7214 19 10.0001 19C6.27888 19 3.26221 15.9969 3.26221 12.2925C3.26221 8.58799 6.27888 5.58493 10.0001 5.58493C13.7214 5.58493 16.7381 8.58799 16.7381 12.2925ZM10.0098 9.44068C9.87304 9.44068 9.79012 9.62458 9.62428 9.99236L9.56382 10.1264C9.32435 10.6575 9.20461 10.9231 8.98011 11.0872C8.75561 11.2512 8.46525 11.2854 7.88454 11.3539L7.74157 11.3707C7.35205 11.4166 7.15729 11.4395 7.11517 11.5669C7.07306 11.6942 7.21603 11.8278 7.50198 12.0951L7.55121 12.1411C8.01053 12.5704 8.2402 12.7851 8.31885 13.0711C8.39751 13.3571 8.30972 13.6583 8.13413 14.2607L8.05939 14.5171C7.94324 14.9155 7.88517 15.1147 7.99187 15.2028C8.09858 15.2908 8.28447 15.1971 8.65624 15.0095L9.0643 14.8037C9.5282 14.5697 9.76017 14.4526 10.0103 14.4516C10.2604 14.4506 10.4933 14.5658 10.9591 14.7961L11.3664 14.9974C11.7373 15.1807 11.9227 15.2724 12.0286 15.1841C12.1345 15.0957 12.0763 14.898 11.9599 14.5024L11.8896 14.2632C11.712 13.6597 11.6232 13.3579 11.7017 13.0711C11.7802 12.7844 12.0105 12.5691 12.471 12.1387L12.5176 12.0951C12.8036 11.8278 12.9465 11.6942 12.9044 11.5669C12.8623 11.4395 12.6675 11.4166 12.278 11.3707L12.135 11.3539C11.5543 11.2854 11.264 11.2512 11.0395 11.0872C10.815 10.9231 10.6952 10.6575 10.4558 10.1264L10.3953 9.99236C10.2295 9.62458 10.1465 9.44068 10.0098 9.44068Z" fill="#F8F6EF"/>
</g>
<defs>
<filter id="filter0_d_152_1740" x="-1.01" y="0" width="22.02" height="22.02" filterUnits="userSpaceOnUse" color-interpolation-filters="sRGB">
<feFlood flood-opacity="0" result="BackgroundImageFix"/>
<feColorMatrix in="SourceAlpha" type="matrix" values="0 0 0 0 0 0 0 0 0 0 0 0 0 0 0 0 0 0 127 0" result="hardAlpha"/>
<feOffset dy="1.01"/>
<feGaussianBlur stdDeviation="0.505"/>
<feComposite in2="hardAlpha" operator="out"/>
<feColorMatrix type="matrix" values="0 0 0 0 1 0 0 0 0 1 0 0 0 0 1 0 0 0 0.2 0"/>
<feBlend mode="normal" in2="BackgroundImageFix" result="effect1_dropShadow_152_1740"/>
<feBlend mode="normal" in="SourceGraphic" in2="effect1_dropShadow_152_1740" result="shape"/>
</filter>
</defs>
</svg>
