<svg width="22" height="22" viewBox="0 0 22 22" fill="none" xmlns="http://www.w3.org/2000/svg">
<g filter="url(#filter0_d_152_1726)">
<path d="M5.4545 6.86805C6.60315 5.70442 8.1185 4.90069 9.81422 4.64235L8.13299 1.97928C7.74821 1.36978 7.07581 0.999878 6.35268 0.999878H2.52656C2.10734 0.999878 1.85679 1.46444 2.08838 1.81229L5.4545 6.86805Z" fill="#F8F6EF"/>
<path d="M12.2031 4.64505C13.8974 4.90715 15.4106 5.71386 16.5567 6.87976L19.3897 2.6247C19.8661 1.90917 20.1043 1.5514 19.9556 1.27564C19.8069 0.999878 19.3757 0.999878 18.5134 0.999878H16.8283C15.6921 0.999878 15.124 0.999878 14.6493 1.26102C14.1746 1.52216 13.8723 2.00101 13.2677 2.95868L12.2031 4.64505Z" fill="#F8F6EF"/>
<path fill-rule="evenodd" clip-rule="evenodd" d="M10.9996 19.0001C14.7209 19.0001 17.7376 15.997 17.7376 12.2926C17.7376 8.58808 14.7209 5.58502 10.9996 5.58502C7.27839 5.58502 4.26172 8.58808 4.26172 12.2926C4.26172 15.997 7.27839 19.0001 10.9996 19.0001ZM11.852 14.8325V9.62021C11.852 9.4557 11.7186 9.32235 11.5541 9.32235C11.5153 9.32235 11.4768 9.32994 11.4409 9.34471L9.63682 10.0862C9.5832 10.1082 9.52924 10.1304 9.48522 10.1543C9.43486 10.1818 9.38136 10.2197 9.34004 10.2814C9.29872 10.343 9.28395 10.4069 9.27773 10.4639C9.27229 10.5138 9.27231 10.5721 9.27232 10.6301V10.7158C9.2723 10.8359 9.27228 10.9474 9.28525 11.0355C9.29931 11.131 9.33473 11.2458 9.44507 11.322L9.44674 11.3231C9.55746 11.3987 9.67732 11.3906 9.77154 11.3694C9.85841 11.3498 9.96242 11.3098 10.0746 11.2666L10.0871 11.2618C10.2162 11.2121 10.2922 11.1834 10.3468 11.1711L10.3492 11.1705L10.3496 11.173C10.3577 11.2283 10.3583 11.3096 10.3583 11.4479L10.3582 14.8325C10.3582 14.9173 10.3582 14.9997 10.3674 15.0677C10.3777 15.1443 10.4028 15.2318 10.4754 15.3044C10.5481 15.3771 10.6355 15.4022 10.7121 15.4125C10.7801 15.4216 10.8625 15.4216 10.9474 15.4216H11.2629C11.3477 15.4216 11.4301 15.4216 11.4981 15.4125C11.5747 15.4022 11.6622 15.3771 11.7348 15.3044C11.8075 15.2318 11.8326 15.1443 11.8429 15.0677C11.852 14.9997 11.852 14.9173 11.852 14.8325Z" fill="#F8F6EF"/>
</g>
<defs>
<filter id="filter0_d_152_1726" x="-0.0126581" y="0" width="22.0253" height="22.0253" filterUnits="userSpaceOnUse" color-interpolation-filters="sRGB">
<feFlood flood-opacity="0" result="BackgroundImageFix"/>
<feColorMatrix in="SourceAlpha" type="matrix" values="0 0 0 0 0 0 0 0 0 0 0 0 0 0 0 0 0 0 127 0" result="hardAlpha"/>
<feOffset dy="1.01266"/>
<feGaussianBlur stdDeviation="0.506329"/>
<feComposite in2="hardAlpha" operator="out"/>
<feColorMatrix type="matrix" values="0 0 0 0 1 0 0 0 0 1 0 0 0 0 1 0 0 0 0.2 0"/>
<feBlend mode="normal" in2="BackgroundImageFix" result="effect1_dropShadow_152_1726"/>
<feBlend mode="normal" in="SourceGraphic" in2="effect1_dropShadow_152_1726" result="shape"/>
</filter>
</defs>
</svg>
