<svg width="16" height="16" viewBox="0 0 16 16" fill="none" xmlns="http://www.w3.org/2000/svg">
<path d="M5.46212 6.65118C5.13023 6.65118 4.86279 6.92514 4.86279 7.26106C4.86279 7.59697 5.13023 7.87092 5.46212 7.87092H10.5377C10.8695 7.87092 11.137 7.59697 11.137 7.26106C11.137 6.92514 10.8695 6.65118 10.5377 6.65118H5.46212Z" fill="#949A6E"/>
<path d="M5.46212 9.60703C5.13023 9.60703 4.86279 9.88095 4.86279 10.2169C4.86279 10.5528 5.13023 10.8267 5.46212 10.8267H10.5377C10.8695 10.8267 11.137 10.5528 11.137 10.2169C11.137 9.88095 10.8695 9.60703 10.5377 9.60703H5.46212Z" fill="#949A6E"/>
<path fill-rule="evenodd" clip-rule="evenodd" d="M9.8301 5.16747e-07H6.17007C6.01591 -7.77095e-06 5.87157 -1.55278e-05 5.74979 0.00845336C5.61807 0.017613 5.46959 0.0386843 5.3177 0.102812C4.99303 0.239878 4.73538 0.502645 4.60112 0.833C4.56249 0.928048 4.53983 1.02172 4.52602 1.11095C4.18192 1.11687 3.90565 1.13683 3.65635 1.20491C2.69855 1.46649 1.95099 2.2288 1.69462 3.204C1.59979 3.56472 1.59992 3.98345 1.60011 4.5812L1.60014 11.0005C1.60012 12.008 1.60011 12.8255 1.68511 13.4699C1.77363 14.141 1.96414 14.7147 2.41245 15.1717C2.86089 15.6287 3.42416 15.823 4.08312 15.9134C4.71551 16 5.51786 16 6.50617 16H9.49402C10.4823 16 11.2847 16 11.9171 15.9134C12.576 15.823 13.1393 15.6287 13.5878 15.1717C14.036 14.7147 14.2266 14.141 14.3151 13.4699C14.4001 12.8255 14.4001 12.008 14.4 11.0006L14.4001 4.58122C14.4003 3.9835 14.4004 3.56471 14.3055 3.204C14.0492 2.2288 13.3016 1.46649 12.3439 1.20491C12.0945 1.13682 11.8183 1.11687 11.4741 1.11095C11.4603 1.02172 11.4376 0.928048 11.3991 0.833C11.2647 0.502645 11.0071 0.239878 10.6824 0.102812C10.5306 0.0386843 10.3821 0.017613 10.2503 0.00845336C10.1286 -1.55263e-05 9.98426 -7.77095e-06 9.8301 5.16747e-07ZM5.83151 1.22535C5.90744 1.22007 6.01019 1.21974 6.18738 1.21974H9.81274C9.98994 1.21974 10.0927 1.22007 10.1687 1.22535C10.2035 1.22778 10.2218 1.23072 10.2291 1.23214C10.2551 1.24478 10.2763 1.2663 10.2888 1.29324C10.2902 1.30066 10.2931 1.3194 10.2955 1.35549C10.3007 1.433 10.3011 1.53784 10.3011 1.71839C10.3011 1.89894 10.3007 2.00378 10.2955 2.0813C10.2931 2.11738 10.2902 2.13613 10.2888 2.14354C10.2763 2.1705 10.2551 2.19201 10.2291 2.20464C10.2218 2.20606 10.2035 2.20901 10.1687 2.21143C10.0927 2.21671 9.98994 2.21704 9.81274 2.21704H6.18738C6.01019 2.21704 5.90744 2.21671 5.83151 2.21143C5.79666 2.20901 5.7784 2.20606 5.77107 2.20464C5.74506 2.19201 5.72388 2.1705 5.71135 2.14354C5.70995 2.13613 5.70701 2.11738 5.70459 2.0813C5.6994 2.00378 5.69908 1.89894 5.69908 1.71839C5.69908 1.53784 5.6994 1.433 5.70459 1.35549C5.70701 1.3194 5.70995 1.30066 5.71135 1.29325C5.72388 1.2663 5.74506 1.24478 5.77107 1.23214C5.7784 1.23072 5.79666 1.22778 5.83151 1.22535ZM3.96706 2.38296C4.08609 2.35046 4.23167 2.33678 4.5269 2.33147C4.54079 2.41901 4.56331 2.51074 4.60112 2.60378C4.73538 2.93414 4.99303 3.1969 5.3177 3.33398C5.46959 3.3981 5.61807 3.41917 5.74979 3.42833C5.87158 3.4368 6.01589 3.43679 6.17007 3.43678H9.8301C9.98426 3.43679 10.1286 3.4368 10.2503 3.42833C10.3821 3.41917 10.5306 3.3981 10.6824 3.33398C11.0071 3.1969 11.2647 2.93414 11.3991 2.60378C11.4368 2.51074 11.4594 2.41901 11.4732 2.33147C11.7685 2.33678 11.9141 2.35045 12.0331 2.38296C12.5767 2.53139 13.0018 2.96427 13.1476 3.51923C13.1963 3.70414 13.2014 3.94768 13.2014 4.67445V10.9561C13.2014 12.0184 13.2002 12.7539 13.1271 13.3076C13.0563 13.8438 12.9283 14.1174 12.7395 14.3098C12.5508 14.5022 12.2827 14.6325 11.7571 14.7046C11.214 14.779 10.4927 14.7802 9.45026 14.7802H6.54994C5.50752 14.7802 4.78614 14.779 4.2431 14.7046C3.71742 14.6325 3.44939 14.5022 3.2607 14.3098C3.07187 14.1174 2.94383 13.8438 2.8731 13.3076C2.80005 12.7539 2.79879 12.0184 2.79879 10.9561V4.67444C2.79879 3.94768 2.80393 3.70414 2.85255 3.51923C2.99844 2.96427 3.42355 2.53139 3.96706 2.38296Z" fill="#949A6E"/>
</svg>
