<svg width="38" height="38" viewBox="0 0 38 38" fill="none" xmlns="http://www.w3.org/2000/svg">
<path fill-rule="evenodd" clip-rule="evenodd" d="M36.1001 19C36.1001 9.55593 28.4442 1.89999 19.0001 1.89999C9.55596 1.89999 1.9001 9.55593 1.9001 19C1.9001 28.4441 9.55596 36.1 19.0001 36.1C28.4442 36.1 36.1001 28.4441 36.1001 19ZM23.9607 17.5516C24.7606 17.5516 25.4091 18.2 25.4091 19C25.4091 19.7999 24.7606 20.4484 23.9607 20.4484L20.4485 20.4484L20.4485 23.9607C20.4485 24.7606 19.8 25.4091 19.0001 25.4091C18.2002 25.4091 17.5517 24.7606 17.5517 23.9605L17.5517 20.4484L14.0394 20.4484C13.2395 20.4484 12.591 19.7999 12.591 19C12.591 18.2 13.2395 17.5516 14.0396 17.5516L17.5517 17.5516L17.5517 14.0394C17.5517 13.2394 18.2002 12.591 19.0001 12.591C19.8 12.591 20.4485 13.2394 20.4485 14.0394L20.4485 17.5516L23.9607 17.5516Z" fill="#536349"/>
</svg>
