<svg width="24" height="24" viewBox="0 0 24 24" fill="none" xmlns="http://www.w3.org/2000/svg">
<path d="M7.85889 21.8387C7.85889 22.98 8.78415 23.9052 9.9255 23.9052C11.0669 23.9052 11.9921 22.98 11.9921 21.8387C11.9921 20.6972 11.0669 19.772 9.9255 19.772C8.78415 19.772 7.85889 20.6972 7.85889 21.8387Z" fill="#536349"/>
<path d="M7.63892 3.15184C7.63892 4.89254 9.05004 6.30366 10.7908 6.30366C12.5315 6.30366 13.9425 4.89254 13.9425 3.15184C13.9425 1.41113 12.5315 0 10.7908 0C9.05004 0 7.63892 1.41113 7.63892 3.15184Z" fill="#536349"/>
<path d="M8.05652 5.90432C8.74336 6.6692 9.73994 7.15031 10.8489 7.15031C12.0889 7.15031 13.1883 6.5488 13.8715 5.62163C14.8294 5.86544 16.6385 6.54337 18.8626 8.41618C19.6341 9.06575 19.2622 10.2719 18.2726 10.4655C17.9027 10.5379 17.5187 10.4402 17.222 10.208C13.2837 7.12591 13.7019 8.82632 13.7203 8.89586L13.7217 8.90149L14.6713 13.0674L16.7134 22.3568C16.9085 23.2444 16.1901 24.0682 15.2841 23.9954C14.6971 23.9483 14.2088 23.5302 14.0739 22.957C13.5092 20.5547 12.0604 14.4714 11.872 14.463C11.8503 14.4621 11.8489 14.5876 11.8465 14.7976C11.8346 15.855 11.7986 19.0551 9.02982 19.0551C6.85576 19.2128 5.95016 16.7924 5.57771 14.9814C5.37993 14.0199 6.25588 13.2606 7.21715 13.46C7.58666 13.5366 7.89281 13.7939 8.03181 14.1448L8.85676 16.227C8.87591 16.2754 8.9473 16.2644 8.94898 16.2124C8.97107 15.531 9.03438 13.4883 9.0387 12.3258C9.04406 10.8836 9.02637 10.048 9.00426 9.56406C8.98433 9.12761 8.82359 8.59463 8.3913 8.53124C7.9899 8.47238 7.44348 8.84884 7.02503 10.8527C6.93309 11.2929 6.62073 11.6611 6.19154 11.7956C5.38438 12.0485 4.5775 11.3982 4.74651 10.5694C5.42211 7.25639 7.00275 6.22044 8.05652 5.90432Z" fill="#536349"/>
</svg>
