<svg width="24" height="25" viewBox="0 0 24 25" fill="none" xmlns="http://www.w3.org/2000/svg">
<path d="M7.73462 22.8487C7.73462 23.9849 8.66308 24.906 9.80839 24.906C10.9537 24.906 11.8822 23.9849 11.8822 22.8487C11.8822 21.7125 10.9537 20.7913 9.80839 20.7913C8.66308 20.7913 7.73462 21.7125 7.73462 22.8487Z" fill="#9C9CA1" fill-opacity="0.5"/>
<path fill-rule="evenodd" clip-rule="evenodd" d="M7.80841 5.19635C7.77848 5.01197 7.76292 4.82283 7.76292 4.63007C7.76292 2.67849 9.35764 1.09644 11.3248 1.09644C13.292 1.09644 14.8867 2.67849 14.8867 4.63007C14.8867 4.75967 14.8797 4.88765 14.8659 5.01365C14.9425 5.02141 15.0206 5.03364 15.1002 5.05087C16.2779 5.3061 17.9419 6.0509 19.9206 7.97535C20.9163 8.94382 20.778 10.4863 19.8133 11.3534C18.8324 12.2352 17.3648 12.1496 16.4479 11.2885C16.1237 10.9838 15.8503 10.7459 15.6217 10.5614L16.1003 12.8575L18.0095 21.0788C18.3959 22.7427 17.0821 24.3159 15.3621 24.2486C14.1651 24.2016 13.1551 23.3543 12.9068 22.1933C12.7208 21.3238 12.4626 20.129 12.2019 18.9638C12.0636 19.1651 11.9012 19.358 11.7107 19.5364C11.0301 20.1737 10.0834 20.5389 8.85533 20.5389C7.29506 20.5389 6.17678 19.9222 5.42964 19.0213C4.71395 18.1583 4.38461 17.093 4.22839 16.2226C3.90716 14.4328 5.45858 13.2037 6.9885 13.2037C7.2874 13.2037 7.57586 13.2561 7.84409 13.3527C7.8444 13.0126 7.84499 12.6931 7.84598 12.4265C7.84619 12.373 7.84625 12.3206 7.84619 12.2691C7.41972 12.7486 6.83162 13.1006 6.09181 13.1599C4.51961 13.2858 3.0349 11.9165 3.47278 10.2145C4.45099 6.4122 6.55983 5.33638 7.80841 5.19635ZM9.56916 4.63007C9.56916 3.66814 10.3552 2.88833 11.3248 2.88833C12.2945 2.88833 13.0805 3.66814 13.0805 4.63007C13.0805 5.4391 12.5245 6.11932 11.7708 6.3151C11.625 6.34531 11.4561 6.36578 11.2604 6.37065C10.3206 6.33703 9.56916 5.57061 9.56916 4.63007ZM11.2542 8.16302C11.2262 8.16345 11.198 8.16366 11.1696 8.16366H11.1366L11.1036 8.16128C10.105 8.08878 9.487 7.69095 9.03584 7.40052L9.01199 7.38516C8.60294 7.12199 8.37718 6.98929 7.9896 6.97968C7.5662 7.03801 6.03134 7.51528 5.2229 10.6576C5.17421 10.8469 5.22565 11.018 5.35328 11.1546C5.48719 11.298 5.70079 11.3934 5.94637 11.3737C6.2958 11.3457 6.6873 11.0224 6.82944 10.4189C7.03652 9.53966 7.39056 9.06954 7.66614 8.83255C7.73988 8.76916 7.87184 8.67212 8.05879 8.61764C8.26732 8.55685 8.57381 8.54596 8.86366 8.73267C9.09472 8.88152 9.22673 9.09436 9.306 9.26716C9.38886 9.44778 9.45013 9.6638 9.49777 9.91651C9.5931 10.4223 9.65682 11.2036 9.65221 12.4332C9.64822 13.5012 9.65076 15.4303 9.65182 16.099C9.6527 16.6595 9.19655 16.9849 8.79877 17.0158C8.40805 17.0462 7.92174 16.8075 7.81721 16.2755L7.6762 15.5577C7.61207 15.2312 7.32378 14.9956 6.9885 14.9956C6.65622 14.9956 6.3747 15.1246 6.20082 15.2997C6.03758 15.464 5.96354 15.6683 6.00666 15.9084C6.13656 16.6322 6.38723 17.3556 6.82447 17.8828C7.23025 18.3721 7.83782 18.747 8.85533 18.747C9.70306 18.747 10.1799 18.5057 10.4709 18.2332C10.7797 17.944 10.9773 17.527 11.0881 17.0255C11.1985 16.5253 11.2084 16.0051 11.1919 15.5853C11.1852 15.4134 11.1746 15.2682 11.1655 15.1432L11.1598 15.0645C11.1556 15.0043 11.1499 14.9209 11.1498 14.8499C11.1498 14.823 11.1496 14.7394 11.1677 14.6438C11.175 14.6047 11.2 14.4771 11.2839 14.3382C11.3774 14.1833 11.6417 13.8799 12.1038 13.9003C12.3779 13.9125 12.5631 14.0406 12.6427 14.1049C12.7296 14.1752 12.7854 14.2464 12.8135 14.2851C12.8708 14.3637 12.9069 14.4382 12.9243 14.4755C12.9635 14.5593 12.9963 14.6515 13.0221 14.7294C13.0767 14.8937 13.139 15.1136 13.2051 15.3633C13.3388 15.8682 13.5044 16.5577 13.6785 17.3122C14.0276 18.8243 14.4192 20.6312 14.6737 21.8214C14.7509 22.182 15.0638 22.4436 15.4334 22.4581C15.9635 22.4788 16.3685 21.9939 16.2494 21.4811L14.3355 13.2401L13.6346 9.87753L13.6344 9.87604L13.6339 9.87377C13.6281 9.84598 13.5846 9.63339 13.6067 9.37868C13.6243 9.17517 13.7244 8.55564 14.3669 8.30386C14.9245 8.08536 15.4897 8.32611 15.8928 8.55891C16.3572 8.82704 16.9403 9.2833 17.6898 9.98726C17.966 10.2467 18.3639 10.2382 18.6006 10.0255C18.8645 9.78834 18.8442 9.43783 18.656 9.25489C16.8771 7.52467 15.5065 6.97309 14.7146 6.80149C14.6499 6.78746 14.5457 6.78659 14.3031 6.92712C14.1809 6.99804 14.0508 7.08872 13.8908 7.2048L13.8135 7.26107C13.6802 7.35833 13.5245 7.47189 13.3686 7.57391C13.0479 7.78366 12.6612 7.95353 12.2003 8.05617C11.9202 8.12639 11.6269 8.1637 11.3248 8.1637C11.3012 8.1637 11.2777 8.16347 11.2542 8.16302Z" fill="#9C9CA1" fill-opacity="0.5"/>
</svg>
