<svg width="15" height="15" viewBox="0 0 15 15" fill="none" xmlns="http://www.w3.org/2000/svg">
<path fill-rule="evenodd" clip-rule="evenodd" d="M7.5 0C3.35787 0 0 3.35787 0 7.5C0 11.6422 3.35787 15 7.5 15C11.6422 15 15 11.6422 15 7.5C15 3.35787 11.6422 0 7.5 0ZM8.58083 5.52769C8.827 5.28153 9.22608 5.28153 9.47225 5.52769C9.71842 5.77387 9.71842 6.17298 9.47225 6.41915L8.39142 7.5L9.47225 8.58083C9.71842 8.827 9.71842 9.22617 9.47225 9.47233C9.22608 9.7185 8.827 9.7185 8.58083 9.47233L7.49996 8.3915L6.4191 9.47233C6.17293 9.7185 5.77381 9.7185 5.52764 9.47233C5.28148 9.22617 5.28148 8.827 5.52764 8.58083L6.60851 7.5L5.52764 6.41915C5.28148 6.17298 5.28148 5.77387 5.52764 5.52769C5.77381 5.28153 6.17293 5.28153 6.4191 5.52769L7.49996 6.60856L8.58083 5.52769Z" fill="#536349"/>
</svg>
