<svg width="26" height="26" viewBox="0 0 26 26" fill="none" xmlns="http://www.w3.org/2000/svg">
<path d="M2.98466 15.9423L3.54474 18.0353C4.19907 20.4783 4.52732 21.7003 5.26941 22.4922C5.85511 23.117 6.61284 23.5543 7.44691 23.7488C8.50424 23.9958 9.72624 23.6687 12.1702 23.0143C14.6121 22.36 15.8341 22.0328 16.626 21.2908C16.6917 21.2286 16.7553 21.1651 16.8167 21.1001C16.4477 21.0668 16.0809 21.0126 15.7182 20.9376C14.9642 20.7881 14.0682 20.5476 13.0087 20.2638L12.8928 20.2323L12.8657 20.2258C11.7131 19.916 10.75 19.6582 9.98082 19.3808C9.17157 19.0883 8.43707 18.7276 7.81199 18.1426C6.95217 17.337 6.35048 16.2946 6.08299 15.1472C5.88799 14.3141 5.94432 13.4973 6.09599 12.6512C6.24116 11.8398 6.50116 10.8669 6.81316 9.70234L7.39274 7.54217L7.41224 7.46634C5.33224 8.02642 4.23699 8.35792 3.50682 9.04151C2.88119 9.62765 2.44348 10.3862 2.24907 11.2212C2.00207 12.2774 2.32924 13.4994 2.98466 15.9423Z" fill="#536349"/>
<path fill-rule="evenodd" clip-rule="evenodd" d="M22.5657 11.6079L22.0046 13.7009C21.3492 16.1438 21.022 17.3658 20.2799 18.1578C19.6944 18.783 18.9366 19.2207 18.1024 19.4155C17.9977 19.4401 17.8912 19.4588 17.7828 19.4718C16.7916 19.5943 15.5815 19.2703 13.3802 18.681C10.9372 18.0256 9.71525 17.6984 8.92333 16.9563C8.29788 16.3705 7.86018 15.6124 7.66558 14.7778C7.41858 13.7204 7.74574 12.4995 8.40116 10.0566L8.96124 7.9636L9.22558 6.98318C9.71849 5.17835 10.05 4.18493 10.6859 3.50568C11.2716 2.88081 12.0293 2.44352 12.8634 2.24901C13.9207 2.00201 15.1427 2.32918 17.5867 2.9846C20.0286 3.63893 21.2506 3.9661 22.0425 4.7071C22.6681 5.29324 23.1058 6.05179 23.3002 6.88676C23.5472 7.9441 23.2201 9.16501 22.5657 11.6079ZM11.9718 10.6221C11.9995 10.519 12.0472 10.4224 12.1122 10.3377C12.1772 10.2531 12.2582 10.1821 12.3507 10.1288C12.4431 10.0754 12.5452 10.0409 12.651 10.027C12.7568 10.0131 12.8643 10.0202 12.9674 10.0479L18.1999 11.4508C18.3057 11.4759 18.4054 11.522 18.493 11.5863C18.5807 11.6506 18.6546 11.7319 18.7103 11.8252C18.766 11.9186 18.8023 12.0222 18.8173 12.1299C18.8322 12.2376 18.8253 12.3472 18.7971 12.4522C18.7689 12.5572 18.7199 12.6555 18.653 12.7412C18.5862 12.8269 18.5028 12.8984 18.4078 12.9513C18.3128 13.0042 18.2081 13.0375 18.1001 13.0492C17.992 13.0609 17.8826 13.0508 17.7785 13.0195L12.546 11.6177C12.3381 11.5618 12.1608 11.4257 12.0531 11.2392C11.9455 11.0528 11.9162 10.8301 11.9718 10.6221ZM11.1312 13.7627C11.187 13.5547 11.3231 13.3775 11.5096 13.2698C11.6961 13.1622 11.9176 13.1329 12.1257 13.1885L15.2652 14.0303C15.3715 14.0548 15.4717 14.1005 15.56 14.1646C15.6482 14.2287 15.7227 14.31 15.7789 14.4035C15.8351 14.497 15.8719 14.6008 15.887 14.7089C15.9022 14.8169 15.8955 14.9269 15.8673 15.0322C15.839 15.1376 15.7899 15.2362 15.7227 15.3222C15.6555 15.4082 15.5717 15.4797 15.4763 15.5326C15.3809 15.5855 15.2758 15.6186 15.1673 15.63C15.0588 15.6414 14.9492 15.6308 14.8448 15.5989L11.7053 14.7583C11.6022 14.7306 11.5056 14.6829 11.421 14.6179C11.3363 14.5529 11.2653 14.4719 11.212 14.3794C11.1587 14.287 11.1241 14.1849 11.1102 14.0791C11.0964 13.9733 11.1035 13.8658 11.1312 13.7627Z" fill="#536349"/>
</svg>
