<svg width="26" height="26" viewBox="0 0 26 26" fill="none" xmlns="http://www.w3.org/2000/svg">
<path fill-rule="evenodd" clip-rule="evenodd" d="M17.7601 2.18941L17.8316 2.20891C19.0233 2.52849 19.9669 2.78091 20.709 3.04957C21.4684 3.32366 22.088 3.63674 22.5983 4.11449C23.3409 4.81056 23.8604 5.71123 24.0911 6.70257C24.2504 7.38291 24.2125 8.07624 24.0695 8.87032C23.9319 9.64816 23.6795 10.5917 23.3599 11.7823L22.7792 13.9479C22.4607 15.1385 22.2072 16.0821 21.9396 16.8252C21.6645 17.5836 21.3514 18.2032 20.8736 18.7135C20.2003 19.4325 19.3347 19.9431 18.3798 20.1847C18.1 20.8261 17.6923 21.4037 17.1816 21.8822C16.6714 22.36 16.0517 22.6731 15.2923 22.9482C14.5502 23.2169 13.6066 23.4693 12.416 23.7889L12.3435 23.8084C11.1518 24.1269 10.2093 24.3793 9.43146 24.5191C8.63738 24.661 7.94404 24.6989 7.26263 24.5407C6.27141 24.3092 5.37112 23.789 4.67563 23.0457C4.19896 22.5366 3.88479 21.9169 3.60963 21.1575C3.34204 20.4154 3.08963 19.4718 2.77004 18.2802L2.18938 16.1157C1.87088 14.924 1.61738 13.9815 1.47871 13.2037C1.33679 12.4096 1.29888 11.7162 1.45704 11.0348C1.68854 10.0436 2.20881 9.14332 2.95204 8.44782C3.46121 7.97116 4.08088 7.65699 4.84029 7.38182C5.58238 7.11424 6.52596 6.86182 7.71654 6.54224L7.75338 6.53141L8.56696 6.31474C8.99163 4.79916 9.36429 3.72774 10.0923 2.95099C10.7879 2.20816 11.6882 1.68827 12.6793 1.45707C13.3607 1.29891 14.053 1.33682 14.8481 1.47874C15.6249 1.61741 16.5685 1.87091 17.7601 2.18941ZM8.07621 8.12824C6.89213 8.44566 6.04388 8.67532 5.39171 8.91041C4.73088 9.14874 4.34413 9.36974 4.06246 9.63407C3.554 10.11 3.1981 10.726 3.03979 11.4042C2.95313 11.7812 2.95421 12.2276 3.07879 12.9177C3.20338 13.6186 3.43846 14.4961 3.76888 15.7311L4.33004 17.8241C4.66046 19.0591 4.89663 19.9366 5.13821 20.605C5.37654 21.2658 5.59754 21.6537 5.86188 21.9353C6.3378 22.4438 6.95383 22.7997 7.63204 22.958C8.00796 23.0447 8.45538 23.0425 9.14546 22.919C9.84638 22.7944 10.7239 22.5593 11.9589 22.2289C13.1939 21.8974 14.0714 21.6623 14.7409 21.4197C15.4006 21.1813 15.7885 20.9603 16.0701 20.6971C16.2196 20.5562 16.3554 20.4049 16.4775 20.2432C16.2765 20.2145 16.0763 20.1802 15.8773 20.1402C15.1493 19.9951 14.274 19.7611 13.196 19.4718L13.1332 19.4556C11.9426 19.136 10.999 18.8836 10.257 18.6149C9.49754 18.3408 8.87788 18.0277 8.36763 17.55C7.62461 16.8541 7.10471 15.9534 6.87371 14.9619C6.71554 14.2816 6.75346 13.5882 6.89538 12.7942C7.03404 12.0163 7.28754 11.0727 7.60604 9.88216L8.07621 8.12824ZM14.5621 3.07882C13.871 2.95424 13.4246 2.95207 13.0487 3.03982C12.3705 3.19814 11.7545 3.55403 11.2785 4.06249C10.8062 4.56624 10.5148 5.34624 10.01 7.19657L9.74671 8.17374L9.18554 10.2667C8.85513 11.5017 8.62004 12.3792 8.49546 13.0802C8.37088 13.7702 8.36871 14.2177 8.45646 14.5936C8.61477 15.2718 8.97067 15.8878 9.47913 16.3637C9.76079 16.6281 10.1486 16.848 10.8084 17.0874C11.4779 17.329 12.3554 17.5641 13.5904 17.8956C14.7008 18.1935 15.5241 18.4134 16.1936 18.5456C16.8599 18.6788 17.3127 18.7113 17.6832 18.6658C17.7641 18.655 17.8421 18.6413 17.9172 18.6247C18.5954 18.4663 19.2115 18.1105 19.6874 17.602C19.9517 17.3203 20.1727 16.9325 20.411 16.2727C20.6526 15.6032 20.8877 14.7257 21.2192 13.4907L21.7804 11.3977C22.1108 10.1627 22.3459 9.28524 22.4705 8.58432C22.594 7.89424 22.5972 7.44682 22.5095 7.07091C22.3512 6.39269 21.9953 5.77667 21.4868 5.30074C21.2051 5.03641 20.8173 4.81649 20.1575 4.57707C19.487 4.33549 18.6105 4.10041 17.3755 3.76891C16.1405 3.43849 15.263 3.20341 14.5621 3.07882ZM11.973 10.6232C12.0006 10.5201 12.0483 10.4234 12.1133 10.3388C12.1783 10.2542 12.2594 10.1831 12.3518 10.1298C12.4443 10.0765 12.5463 10.0419 12.6521 10.0281C12.758 10.0142 12.8655 10.0213 12.9685 10.049L18.201 11.4508C18.4034 11.5117 18.5741 11.649 18.6769 11.8336C18.7798 12.0182 18.8066 12.2356 18.7518 12.4397C18.6969 12.6438 18.5648 12.8185 18.3833 12.9267C18.2018 13.035 17.9852 13.0682 17.7796 13.0195L12.5471 11.6177C12.3392 11.5618 12.1619 11.4257 12.0543 11.2392C11.9466 11.0527 11.9174 10.8312 11.973 10.6232ZM11.1312 13.7627C11.1589 13.6595 11.2066 13.5627 11.2717 13.478C11.3367 13.3933 11.4179 13.3222 11.5105 13.2689C11.603 13.2155 11.7052 13.181 11.8112 13.1672C11.9171 13.1534 12.0247 13.1606 12.1279 13.1885L15.2663 14.0292C15.4745 14.0849 15.6519 14.221 15.7597 14.4077C15.8675 14.5943 15.8967 14.816 15.841 15.0242C15.7853 15.2324 15.6491 15.4099 15.4625 15.5176C15.2759 15.6254 15.0541 15.6546 14.846 15.5989L11.7065 14.7572C11.4985 14.7013 11.3212 14.5652 11.2136 14.3787C11.1059 14.1922 11.0767 13.9707 11.1323 13.7627" fill="#9C9CA1" fill-opacity="0.5"/>
</svg>
