<svg width="26" height="26" viewBox="0 0 26 26" fill="none" xmlns="http://www.w3.org/2000/svg">
<path d="M23.3507 6.90174C23.4 7.02048 23.413 7.15117 23.388 7.27729C23.363 7.4034 23.3011 7.51927 23.2103 7.61024L20.6103 10.2102C20.5498 10.2706 20.4781 10.3184 20.3991 10.3509C20.3201 10.3835 20.2355 10.4002 20.1501 10.4H16.5192L14.7603 12.1589C14.9586 12.574 15.0037 13.0458 14.8877 13.491C14.7718 13.9361 14.5022 14.326 14.1266 14.5916C13.751 14.8571 13.2936 14.9814 12.8353 14.9424C12.3769 14.9034 11.9471 14.7035 11.6219 14.3783C11.2966 14.053 11.0968 13.6232 11.0578 13.1649C11.0187 12.7065 11.143 12.2491 11.4086 11.8735C11.6742 11.498 12.064 11.2284 12.5092 11.1124C12.9543 10.9964 13.4261 11.0416 13.8412 11.2398L15.6001 9.48094V5.85004C15.5999 5.76462 15.6166 5.68001 15.6492 5.60105C15.6818 5.52209 15.7296 5.45031 15.7899 5.38984L18.3899 2.78984C18.4808 2.6987 18.5967 2.63661 18.723 2.61143C18.8492 2.58625 18.9801 2.59913 19.099 2.64842C19.2179 2.69771 19.3195 2.7812 19.3909 2.88831C19.4623 2.99542 19.5003 3.12131 19.5001 3.25004V6.50004H22.7501C22.8787 6.50006 23.0044 6.53824 23.1114 6.60975C23.2183 6.68125 23.3016 6.78287 23.3507 6.90174ZM21.181 7.80004H18.8501C18.6777 7.80004 18.5124 7.73156 18.3905 7.60966C18.2686 7.48776 18.2001 7.32243 18.2001 7.15004V4.81914L16.9001 6.11914V9.10004H19.881L21.181 7.80004ZM22.8892 9.76954C23.2207 10.7861 23.4001 11.8729 23.4001 13C23.3996 15.197 22.7035 17.3373 21.4114 19.1141C20.1194 20.8909 18.2979 22.213 16.2081 22.8906C14.1183 23.5683 11.8676 23.5668 9.7787 22.8863C7.68983 22.2058 5.87011 20.8813 4.58049 19.1027C3.29087 17.3241 2.5976 15.1829 2.6001 12.9859C2.60261 10.789 3.30075 8.64932 4.59441 6.87369C5.88808 5.09805 7.71082 3.77769 9.80123 3.10196C11.8916 2.42622 14.1424 2.42982 16.2306 3.11224L15.1802 4.16264C13.2505 3.68683 11.218 3.85588 9.39341 4.64396C7.56881 5.43204 6.05238 6.79581 5.07584 8.52689C4.09931 10.258 3.71636 12.2612 3.98551 14.2304C4.25467 16.1996 5.16113 18.0265 6.56638 19.4321C7.97164 20.8376 9.79841 21.7444 11.7676 22.014C13.7367 22.2835 15.74 21.9009 17.4713 20.9247C19.2025 19.9485 20.5666 18.4324 21.355 16.6079C22.1435 14.7835 22.3129 12.7511 21.8375 10.8212L22.8892 9.76954ZM19.3701 11.7C19.4568 12.1212 19.5001 12.5546 19.5001 13C19.4998 14.3413 19.0846 15.6497 18.3114 16.7457C17.5382 17.8418 16.4448 18.6717 15.1813 19.1218C13.9177 19.5719 12.5459 19.6201 11.2539 19.2598C9.9619 18.8994 8.81301 18.1482 7.9648 17.1092C7.11659 16.0701 6.61059 14.7941 6.51621 13.4561C6.42183 12.1181 6.74368 10.7837 7.43762 9.63584C8.13157 8.488 9.16363 7.58294 10.3922 7.0448C11.6209 6.50665 12.9859 6.36178 14.3001 6.63004V7.96384C13.1957 7.67893 12.0283 7.76503 10.9776 8.20885C9.92699 8.65268 9.0514 9.42963 8.48574 10.42C7.92008 11.4104 7.69572 12.5593 7.84723 13.6897C7.99874 14.8202 8.5177 15.8695 9.32419 16.6759C10.1307 17.4824 11.18 18.0014 12.3104 18.1529C13.4408 18.3044 14.5897 18.0801 15.5801 17.5144C16.5705 16.9487 17.3475 16.0732 17.7913 15.0225C18.2351 13.9719 18.3212 12.8044 18.0363 11.7H19.3701Z" fill="#9C9CA1" fill-opacity="0.5"/>
</svg>
