<svg width="24" height="24" viewBox="0 0 24 24" fill="none" xmlns="http://www.w3.org/2000/svg">
<path d="M21.1237 9.02282C21.7914 11.0741 21.7487 13.2905 21.0024 15.3145C20.2561 17.3386 18.8497 19.0522 17.0102 20.179C15.1707 21.3058 13.0052 21.7802 10.863 21.5255C8.72089 21.2708 6.72699 20.302 5.20294 18.7752C3.67889 17.2485 2.71355 15.2529 2.46263 13.1103C2.21171 10.9677 2.68984 8.80308 3.81989 6.96552C4.94995 5.12797 6.66605 3.72464 8.69138 2.9819C10.7167 2.23916 12.9332 2.20031 14.9833 2.87162L13.7269 4.12802C13.6581 4.19682 13.5949 4.27082 13.5373 4.35002C11.8958 4.0187 10.1913 4.22446 8.67578 4.93688C7.16028 5.64929 5.91429 6.83052 5.12209 8.30589C4.32989 9.78125 4.03354 11.4724 4.27687 13.1292C4.5202 14.786 5.29029 16.3206 6.47324 17.5058C7.6562 18.6911 9.1892 19.4642 10.8455 19.7108C12.5019 19.9574 14.1936 19.6644 15.6705 18.8751C17.1474 18.0858 18.3311 16.8421 19.0465 15.328C19.7619 13.8139 19.971 12.1098 19.6429 10.4676C19.725 10.4094 19.8021 10.3443 19.8733 10.2732L21.1237 9.02282ZM17.8777 10.8C17.9577 11.1888 17.9977 11.5888 17.9977 12C17.9974 13.2382 17.6139 14.446 16.9 15.4577C16.1861 16.4694 15.1767 17.2354 14.0102 17.6507C12.8437 18.066 11.5773 18.1103 10.3847 17.7774C9.19203 17.4445 8.1316 16.7508 7.34882 15.7914C6.56603 14.832 6.09924 13.654 6.01247 12.4188C5.92569 11.1836 6.22318 9.95185 6.86414 8.89244C7.50509 7.83303 8.45812 6.99786 9.59249 6.5015C10.7269 6.00513 11.987 5.87188 13.2001 6.12002V7.97522C12.3045 7.70786 11.3453 7.74688 10.4744 8.0861C9.60343 8.42533 8.87053 9.04537 8.3917 9.84807C7.91288 10.6508 7.71548 11.5903 7.83078 12.5178C7.94607 13.4453 8.36745 14.3079 9.02822 14.9689C9.68899 15.63 10.5514 16.0517 11.4789 16.1674C12.4063 16.2831 13.3459 16.0861 14.1488 15.6076C14.9517 15.1291 15.5721 14.3965 15.9117 13.5257C16.2513 12.6549 16.2907 11.6957 16.0237 10.8H17.8777ZM11.9977 13.8C12.2738 13.8002 12.5461 13.7368 12.7938 13.6149C13.0415 13.4929 13.2577 13.3157 13.4259 13.0968C13.5941 12.8779 13.7097 12.6232 13.7638 12.3525C13.8179 12.0818 13.8089 11.8023 13.7377 11.5356L15.6361 9.63602L15.6721 9.60002H18.6001C18.679 9.60016 18.7571 9.58476 18.83 9.5547C18.9028 9.52463 18.9691 9.4805 19.0249 9.42482L21.4249 7.02482C21.509 6.9409 21.5664 6.8339 21.5896 6.71737C21.6128 6.60084 21.601 6.48003 21.5555 6.37026C21.51 6.26049 21.4329 6.16671 21.334 6.10079C21.2352 6.03488 21.1189 5.9998 21.0001 6.00002H18.0001V3.00002C18.0001 2.88144 17.9649 2.76553 17.8991 2.66692C17.8332 2.56831 17.7396 2.49142 17.6301 2.44597C17.5206 2.40052 17.4 2.38854 17.2837 2.41154C17.1674 2.43455 17.0605 2.4915 16.9765 2.57522L14.5765 4.97522C14.5206 5.03094 14.4763 5.09715 14.446 5.17004C14.4157 5.24294 14.4001 5.32109 14.4001 5.40002V8.32802L14.3641 8.36402L12.4657 10.2612C12.1988 10.1893 11.9189 10.1799 11.6477 10.2337C11.3765 10.2874 11.1214 10.4029 10.9021 10.5712C10.6827 10.7395 10.5051 10.956 10.383 11.204C10.2608 11.452 10.1974 11.7248 10.1977 12.0012C10.1977 12.4786 10.3874 12.9364 10.7249 13.274C11.0625 13.6116 11.5203 13.8012 11.9977 13.8012" fill="#536349"/>
</svg>
