<svg width="22" height="22" viewBox="0 0 22 22" fill="none" xmlns="http://www.w3.org/2000/svg">
<path d="M6.14153 1.78709V3.13222C6.14153 3.58563 6.5109 3.9532 6.96653 3.9532C7.42218 3.9532 7.79153 3.58563 7.79153 3.13222V1.67335C8.56038 1.64998 9.44005 1.64999 10.4506 1.64999H11.5489C12.5596 1.64999 13.4394 1.64998 14.2083 1.67336V3.13222C14.2083 3.58563 14.5776 3.9532 15.0333 3.9532C15.4889 3.9532 15.8583 3.58563 15.8583 3.13222V1.78712C16.7861 1.90344 17.5688 2.12535 18.263 2.57259C18.9472 3.01329 19.5298 3.5931 19.9727 4.27389C20.403 4.93547 20.6258 5.67772 20.7465 6.55025C20.2337 6.5102 19.5949 6.464 18.8545 6.41782C16.8316 6.29165 14.0466 6.16536 10.9998 6.16536C7.95299 6.16536 5.18497 6.29165 3.17903 6.41784C2.41939 6.46564 1.76848 6.51345 1.25244 6.55445C1.37307 5.68011 1.59582 4.93653 2.02689 4.27389C2.46975 3.5931 3.05239 3.01329 3.73653 2.57259C4.43086 2.1253 5.2136 1.9034 6.14153 1.78709Z" fill="#536349"/>
<path d="M1.1267 8.21211C1.10009 9.00003 1.10009 9.90688 1.1001 10.9554V11.0449C1.10009 12.6931 1.10008 13.9913 1.20346 15.0277C1.3091 16.0866 1.52905 16.9605 2.02721 17.7262C2.47007 18.407 3.05272 18.9868 3.73685 19.4275C4.50639 19.9232 5.38453 20.1421 6.44861 20.2473C7.49004 20.3501 8.79464 20.3501 10.4509 20.3501H11.5528C11.9437 20.3501 12.315 20.3501 12.6678 20.3488C11.3675 19.3477 10.5303 17.7797 10.5303 16.0172C10.5303 12.9944 12.9927 10.544 16.0303 10.544C18.1314 10.544 19.9573 11.7164 20.8834 13.4397C20.9001 12.7357 20.9001 11.9422 20.9001 11.0449V10.9554C20.9001 9.9049 20.9001 8.99656 20.8734 8.20757C20.3323 8.16394 19.6118 8.11033 18.7517 8.05668C16.7527 7.932 14.0034 7.80743 11.0001 7.80743C7.99699 7.80743 5.26499 7.932 3.28345 8.05665C2.40062 8.11219 1.66752 8.16771 1.1267 8.21211Z" fill="#536349"/>
<path fill-rule="evenodd" clip-rule="evenodd" d="M16.0317 12.244C13.9647 12.244 12.2891 13.947 12.2891 16.0479C12.2891 18.1486 13.9647 19.8517 16.0317 19.8517C16.7749 19.8517 17.4675 19.6314 18.0499 19.2517L18.8953 20.111C19.2085 20.4294 19.7164 20.4294 20.0295 20.111C20.3427 19.7927 20.3427 19.2766 20.0295 18.9584L19.1841 18.0989C19.5576 17.5071 19.7742 16.8032 19.7742 16.0479C19.7742 13.947 18.0986 12.244 16.0317 12.244ZM13.8931 16.0479C13.8931 14.8473 14.8505 13.8742 16.0317 13.8742C17.2128 13.8742 18.1702 14.8473 18.1702 16.0479C18.1702 17.2483 17.2128 18.2215 16.0317 18.2215C14.8505 18.2215 13.8931 17.2483 13.8931 16.0479Z" fill="#536349"/>
</svg>
