<svg width="20" height="20" viewBox="0 0 20 20" fill="none" xmlns="http://www.w3.org/2000/svg">
<path d="M4.3302 3.26273C0.983566 5.04442 0 8.28976 0 10.0521C0 12.5651 2 18.0937 10 18.0937C13.2048 18.0937 15.4467 17.2065 16.9829 15.9813L12.6436 11.6194C12.1919 12.4879 11.3107 13.0677 10 13.0677C8 13.0677 7 11.7176 7 10.0521C7 8.89958 7.47885 7.89808 8.43655 7.39048L4.3302 3.26273Z" fill="#536349"/>
<path d="M12.9944 9.83979C12.9154 8.3319 11.9875 7.12936 10.2107 7.04159L5.81982 2.62785C6.98622 2.24038 8.36827 2.01041 9.9999 2.01041C17.9999 2.01041 19.9999 7.53906 19.9999 10.0521C19.9999 11.2897 19.5148 13.2588 18.0668 14.9386L12.9944 9.83979Z" fill="#536349"/>
<path d="M0.263211 0.2237C0.554588 -0.0691955 1.027 -0.0691955 1.31838 0.2237L19.7225 18.7237C20.0139 19.0166 20.0139 19.4915 19.7225 19.7844C19.4311 20.0773 18.9587 20.0773 18.6673 19.7844L0.263211 1.28437C-0.0281667 0.991471 -0.0281667 0.516595 0.263211 0.2237Z" fill="#536349"/>
</svg>
