<svg width="23" height="23" viewBox="0 0 23 23" fill="none" xmlns="http://www.w3.org/2000/svg">
<path d="M8.47793 10.1139C8.11729 9.81338 7.58131 9.8621 7.28077 10.2227C6.98025 10.5834 7.02897 11.1194 7.38961 11.4199L10.7896 14.2532C11.1503 14.5538 11.6862 14.5051 11.9868 14.1444C12.2873 13.7837 12.2386 13.2477 11.878 12.9473L8.47793 10.1139Z" fill="#536349"/>
<path fill-rule="evenodd" clip-rule="evenodd" d="M9.28645 0.871888C9.28645 0.390408 9.67928 9.15527e-05 10.1639 9.15527e-05H12.5037C12.9882 9.15527e-05 13.381 0.390408 13.381 0.871888C13.381 1.35337 12.9882 1.74368 12.5037 1.74368H12.2112V4.69128C13.266 4.79193 14.268 5.07214 15.1859 5.50079L15.5311 4.91278L15.403 4.84427C14.9762 4.61608 14.8165 4.08739 15.0462 3.66342C15.2759 3.23945 15.808 3.08075 16.2347 3.30893L18.067 4.28888C18.4937 4.51707 18.6535 5.04576 18.4238 5.46973C18.1942 5.89369 17.6621 6.0524 17.2354 5.82421L17.0772 5.73963L16.6942 6.39201C18.9416 8.03154 20.4005 10.6756 20.4005 13.6583C20.4005 18.6335 16.3412 22.6668 11.3338 22.6668C6.32638 22.6668 2.26709 18.6335 2.26709 13.6583C2.26709 8.97701 5.86067 5.12976 10.4564 4.69128V1.74368H10.1639C9.67928 1.74368 9.28645 1.35337 9.28645 0.871888ZM11.3338 6.39323C7.29555 6.39323 4.02193 9.64587 4.02193 13.6583C4.02193 17.6705 7.29555 20.9232 11.3338 20.9232C15.372 20.9232 18.6456 17.6705 18.6456 13.6583C18.6456 9.64587 15.372 6.39323 11.3338 6.39323Z" fill="#536349"/>
</svg>
