<svg width="24" height="24" viewBox="0 0 24 24" fill="none" xmlns="http://www.w3.org/2000/svg">
<path d="M6.30005 5.16456C6.30005 2.20175 8.96867 0 12 0C15.0314 0 17.7 2.20175 17.7 5.16456C17.7 8.12737 15.0314 10.3291 12 10.3291C8.96867 10.3291 6.30005 8.12737 6.30005 5.16456Z" fill="#536349"/>
<path d="M4.53829 23.9861C4.66871 24.0006 4.82369 24.0006 5.13367 24.0006H18.8662C19.1761 24.0006 19.3311 24.0006 19.4615 23.9861C20.5799 23.8619 21.463 22.9676 21.5856 21.8351C21.5999 21.7031 21.5999 21.5461 21.5999 21.2322V20.6201C21.5999 18.107 20.3085 15.7752 18.1909 14.4648C14.3903 12.1128 9.60949 12.1128 5.8089 14.4648C3.69138 15.7752 2.3999 18.107 2.3999 20.6201V21.2322C2.3999 21.5461 2.3999 21.7031 2.41421 21.8351C2.53685 22.9676 3.41991 23.8619 4.53829 23.9861Z" fill="#536349"/>
</svg>
