<svg width="26" height="26" viewBox="0 0 26 26" fill="none" xmlns="http://www.w3.org/2000/svg">
<path d="M23.3309 16.4487C24.9888 17.3476 26 18.9473 26 20.6712V21.0596C26.0002 21.2072 26.0002 21.339 25.9853 21.4589C25.8599 22.474 24.9564 23.2756 23.812 23.387C23.6771 23.4002 23.5283 23.4 23.3622 23.4H18.9884C18.7823 23.4 18.6792 23.4 18.6362 23.3413C18.5932 23.2826 18.5885 23.165 18.7104 23.0013C20.1823 21.0256 19.6361 17.4572 18.4197 15.6476C18.3001 15.4696 18.2735 15.3619 18.3183 15.2983C18.3633 15.2347 18.4706 15.2389 18.6852 15.2472C20.1321 15.3032 22.0482 15.7533 23.3309 16.4487Z" fill="#536349"/>
<path fill-rule="evenodd" clip-rule="evenodd" d="M9.08039 2.60001C6.43966 2.60001 4.08545 4.45944 4.08545 6.99458C4.08545 9.52973 6.43966 11.3892 9.08039 11.3892C11.7211 11.3892 14.0753 9.52973 14.0753 6.99458C14.0753 4.45944 11.7211 2.60001 9.08039 2.60001ZM19.1023 6.16571C16.8845 6.16571 14.8733 7.73107 14.8733 9.90345C14.8733 12.0758 16.8845 13.6412 19.1023 13.6412C21.32 13.6412 23.3312 12.0758 23.3312 9.90345C23.3312 7.73107 21.32 6.16571 19.1023 6.16571Z" fill="#536349"/>
<path fill-rule="evenodd" clip-rule="evenodd" d="M14.8239 13.8936C11.2979 11.782 6.86265 11.782 3.33675 13.8936C1.26412 15.135 2.17004e-05 17.3438 2.17004e-05 19.7242L1.06399e-05 20.2727C-6.98915e-05 20.4873 -0.000136038 20.6635 0.0176145 20.8221C0.168477 22.1703 1.25476 23.2349 2.63049 23.3827C2.79235 23.4001 2.97209 23.4001 3.19108 23.4H14.9695C15.1884 23.4001 15.3682 23.4001 15.5301 23.3827C16.9059 23.2349 17.9921 22.1703 18.1429 20.8221C18.1607 20.6635 18.1606 20.4873 18.1606 20.2727V19.7242C18.1606 17.3438 16.8965 15.135 14.8239 13.8936Z" fill="#536349"/>
</svg>
