<svg width="26" height="26" viewBox="0 0 26 26" fill="none" xmlns="http://www.w3.org/2000/svg">
<path fill-rule="evenodd" clip-rule="evenodd" d="M9.08083 2.60001C6.43014 2.60001 4.04468 4.47082 4.04468 7.04668C4.04468 9.62254 6.43014 11.4934 9.08083 11.4934C11.7315 11.4934 14.117 9.62254 14.117 7.04668C14.117 4.47082 11.7315 2.60001 9.08083 2.60001ZM6.02675 7.04668C6.02675 5.78507 7.26522 4.54782 9.08083 4.54782C10.8964 4.54782 12.1349 5.78507 12.1349 7.04668C12.1349 8.30829 10.8964 9.54554 9.08083 9.54554C7.26522 9.54554 6.02675 8.30829 6.02675 7.04668Z" fill="#9C9CA1" fill-opacity="0.5"/>
<path fill-rule="evenodd" clip-rule="evenodd" d="M19.0042 6.13437C16.7725 6.13437 14.7266 7.71356 14.7266 9.9299C14.7266 12.1462 16.7725 13.7254 19.0042 13.7254C21.2359 13.7254 23.2819 12.1462 23.2819 9.9299C23.2819 7.71356 21.2359 6.13437 19.0042 6.13437ZM16.7087 9.9299C16.7087 9.0276 17.6079 8.08219 19.0042 8.08219C20.4005 8.08219 21.2999 9.0276 21.2999 9.9299C21.2999 10.8322 20.4005 11.7776 19.0042 11.7776C17.6079 11.7776 16.7087 10.8322 16.7087 9.9299Z" fill="#9C9CA1" fill-opacity="0.5"/>
<path fill-rule="evenodd" clip-rule="evenodd" d="M3.34775 13.8086C1.26874 15.0552 2.2733e-05 17.274 2.2733e-05 19.6659L1.03156e-05 20.2136C-6.89594e-05 20.4231 -0.000136596 20.602 0.0179995 20.7643C0.17219 22.1438 1.28202 23.2314 2.68528 23.3823C2.85038 23.4001 3.03242 23.4 3.24613 23.4H14.9163C15.1301 23.4 15.3122 23.4001 15.4773 23.3823C16.8805 23.2314 17.9904 22.1438 18.1446 20.7643C18.1627 20.602 18.1627 20.4231 18.1626 20.2136V19.6659C18.1626 17.274 16.8939 15.0552 14.8148 13.8086C11.295 11.6981 6.86758 11.6981 3.34775 13.8086ZM1.9821 19.6659C1.9821 17.9541 2.89011 16.3647 4.38012 15.4713C7.26604 13.741 10.8965 13.741 13.7825 15.4713C15.2724 16.3647 16.1805 17.9541 16.1805 19.6659V20.1656C16.1805 20.4482 16.179 20.5102 16.1743 20.5516C16.1218 21.0215 15.7433 21.3942 15.2616 21.4461C15.2191 21.4507 15.1555 21.4522 14.8677 21.4522H3.29489C3.00704 21.4522 2.94351 21.4507 2.901 21.4461C2.4193 21.3942 2.04074 21.0215 1.98822 20.5516C1.98361 20.5102 1.9821 20.4482 1.9821 20.1656V19.6659Z" fill="#9C9CA1" fill-opacity="0.5"/>
<path d="M23.284 15.5058C21.9356 14.7378 20.4132 14.3651 18.8987 14.3831C18.7643 14.3848 18.6297 14.3895 18.4954 14.3973C17.9505 14.4288 17.5321 14.8884 17.5645 15.4269C17.5969 15.9652 18.0672 16.3732 18.612 16.3417C18.7155 16.3357 18.8193 16.3321 18.9229 16.3308C20.0922 16.3169 21.2612 16.605 22.2901 17.191C23.3791 17.8114 24.0176 18.897 24.0176 20.0402V20.3804C24.0177 20.5245 24.0164 20.5793 24.012 20.6169C23.9648 21.0178 23.6103 21.3922 23.0851 21.4459C23.0343 21.4511 22.9659 21.4521 22.8136 21.4521H19.6046C19.0587 21.4521 18.6136 21.8866 18.6136 22.426C18.6136 22.9653 19.0587 23.3999 19.6046 23.3999H22.8328C22.9563 23.4001 23.1253 23.4002 23.2901 23.3833C24.6689 23.2424 25.8191 22.2158 25.9808 20.8406C25.9999 20.6786 25.9998 20.5135 25.9997 20.3994V20.3978V20.3793V20.0402C25.9997 18.1689 24.9547 16.4574 23.284 15.5058Z" fill="#9C9CA1" fill-opacity="0.5"/>
</svg>
