<svg width="24" height="24" viewBox="0 0 24 24" fill="none" xmlns="http://www.w3.org/2000/svg">
<path fill-rule="evenodd" clip-rule="evenodd" d="M6.34937 5.16456C6.34937 2.20174 8.99484 0 11.9999 0C15.005 0 17.6504 2.20174 17.6504 5.16456C17.6504 8.12737 15.005 10.3291 11.9999 10.3291C8.99484 10.3291 6.34937 8.12737 6.34937 5.16456ZM11.9999 1.82279C9.74906 1.82279 8.13375 3.42946 8.13375 5.16456C8.13375 6.89965 9.74906 8.50633 11.9999 8.50633C14.2508 8.50633 15.8661 6.89965 15.8661 5.16456C15.8661 3.42946 14.2508 1.82279 11.9999 1.82279Z" fill="#9C9CA1" fill-opacity="0.5"/>
<path fill-rule="evenodd" clip-rule="evenodd" d="M5.91908 13.4502C9.65192 11.09 14.3478 11.09 18.0807 13.4502C20.2673 14.8327 21.5999 17.2923 21.5999 19.9416V20.5583C21.5999 20.8007 21.6 20.9939 21.5815 21.1677C21.4247 22.6474 20.2949 23.8183 18.861 23.9811C18.6927 24.0001 18.5057 24 18.2715 24H5.72829C5.49414 24 5.30714 24.0001 5.1388 23.9811C3.70488 23.8183 2.57505 22.6474 2.41821 21.1677C2.39979 20.9939 2.39984 20.8007 2.39991 20.5582V19.9416C2.39991 17.2923 3.73255 14.8327 5.91908 13.4502ZM17.1415 15.0329C13.9851 13.0371 10.0148 13.0371 6.85825 15.0329C5.20633 16.0774 4.1979 17.9368 4.1979 19.9416V20.5084C4.1979 20.824 4.19925 20.9065 4.20553 20.9658C4.271 21.5836 4.74193 22.0689 5.33527 22.1362C5.3921 22.1427 5.47153 22.144 5.77666 22.144H18.2231C18.5283 22.144 18.6077 22.1427 18.6646 22.1362C19.2579 22.0689 19.7287 21.5836 19.7943 20.9658C19.8005 20.9065 19.8019 20.824 19.8019 20.5084V19.9416C19.8019 17.9368 18.7935 16.0774 17.1415 15.0329Z" fill="#9C9CA1" fill-opacity="0.5"/>
</svg>
