<svg width="50" height="50" viewBox="0 0 50 50" fill="none" xmlns="http://www.w3.org/2000/svg">
<path d="M0 25C0 17.0451 0 13.0676 2.1967 10.5963C4.3934 8.125 7.92893 8.125 15 8.125H20C27.0711 8.125 30.6066 8.125 32.8033 10.5963C35.0001 13.0676 35.0001 17.0451 35.0001 25C35.0001 32.955 35.0001 36.9325 32.8033 39.4038C30.6066 41.875 27.0711 41.875 20 41.875H15C7.92893 41.875 4.3934 41.875 2.1967 39.4038C0 36.9325 0 32.955 0 25Z" fill="#F8F6EF"/>
<path d="M36.875 35.3159C42.274 39.1667 45.149 41.0114 47.4753 39.9427C49.9998 38.7827 49.9998 35.0542 49.9998 27.5972V22.3725C49.9998 14.8847 49.9997 11.1409 47.4677 9.98289C45.1387 8.91787 42.2665 10.7712 36.8805 14.6419C37.0468 16.7783 37.0467 19.4456 37.0467 22.8349V27.0537C37.0467 30.4797 37.0468 33.1679 36.875 35.3159Z" fill="#F8F6EF"/>
</svg>
