<svg width="15" height="15" viewBox="0 0 15 15" fill="none" xmlns="http://www.w3.org/2000/svg">
<path d="M3.7878 10.4168C3.56813 10.6365 3.56813 10.9926 3.7878 11.2123C4.00747 11.432 4.36362 11.432 4.5833 11.2123L7.50012 8.29545L10.4169 11.2123C10.6366 11.432 10.9928 11.432 11.2125 11.2123C11.4321 10.9926 11.4321 10.6365 11.2125 10.4168L8.29565 7.49997L11.2124 4.58318C11.4321 4.3635 11.4321 4.00735 11.2124 3.78768C10.9927 3.56801 10.6366 3.56801 10.4169 3.78768L7.50012 6.70448L4.58334 3.78768C4.36366 3.56801 4.00751 3.56801 3.78784 3.78768C3.56817 4.00735 3.56817 4.3635 3.78784 4.58318L6.70464 7.49997L3.7878 10.4168Z" fill="#121212" fill-opacity="0.4"/>
</svg>
